<?xml version="1.0" encoding="UTF-8" ?>
<!DOCTYPE svg PUBLIC "-//W3C//DTD SVG 1.1//EN" "http://www.w3.org/Graphics/SVG/1.1/DTD/svg11.dtd">
<svg width="512pt" height="512pt" viewBox="0 0 512 512" version="1.1" xmlns="http://www.w3.org/2000/svg">
<g id="#000000ff">
<path fill="#000000" opacity="1.00" d=" M 58.51 20.38 C 61.10 13.81 67.80 9.09 74.89 9.04 C 79.93 8.96 84.98 8.94 90.02 9.05 C 98.34 9.16 105.94 15.83 107.22 24.04 C 107.80 28.17 107.45 32.36 107.53 36.52 C 123.03 36.57 138.53 36.48 154.03 36.57 C 155.13 36.32 157.74 37.24 157.26 35.14 C 157.49 30.51 156.69 25.71 158.29 21.24 C 160.63 14.28 167.54 9.11 174.92 9.04 C 179.96 8.95 185.02 8.94 190.06 9.05 C 198.36 9.13 205.95 15.72 207.31 23.89 C 207.94 28.06 207.55 32.30 207.62 36.50 C 224.21 36.57 240.80 36.54 257.40 36.51 C 257.45 32.58 257.18 28.64 257.58 24.73 C 258.54 16.60 265.68 9.70 273.86 9.12 C 279.26 8.87 284.67 8.99 290.08 9.04 C 298.40 9.09 306.05 15.67 307.42 23.86 C 308.05 28.04 307.66 32.30 307.75 36.51 C 324.33 36.56 340.91 36.53 357.49 36.52 C 357.58 32.33 357.22 28.11 357.81 23.94 C 359.13 15.82 366.64 9.22 374.89 9.06 C 380.29 8.97 385.70 8.89 391.10 9.10 C 399.09 9.54 406.20 16.00 407.53 23.87 C 408.15 28.02 407.80 32.24 407.80 36.42 C 418.42 37.08 429.29 35.32 439.69 38.18 C 458.59 43.13 472.90 61.41 473.08 80.98 C 473.21 128.99 473.07 177.00 473.15 225.02 C 473.10 227.59 473.34 230.22 472.71 232.74 C 471.81 235.77 468.83 237.47 465.88 237.99 C 461.70 237.81 457.85 234.37 458.15 230.01 C 458.09 202.63 458.15 175.25 458.12 147.87 C 448.47 147.86 438.81 147.87 429.15 147.87 C 291.10 147.87 153.05 147.86 15.00 147.87 C 14.97 220.61 15.04 293.36 14.97 366.11 C 15.20 370.32 11.54 373.67 7.50 374.00 C 3.93 373.64 0.84 371.19 0.00 367.65 L 0.00 80.39 C 0.56 62.70 12.33 46.09 28.84 39.75 C 37.75 35.88 47.61 36.50 57.07 36.56 C 57.47 31.18 56.37 25.51 58.51 20.38 M 74.15 24.28 C 72.63 24.81 72.07 26.52 72.17 27.99 C 72.16 39.66 72.15 51.33 72.18 63.00 C 71.98 64.75 73.14 66.71 75.03 66.78 C 79.69 66.97 84.37 66.87 89.04 66.84 C 91.11 67.04 92.75 65.09 92.51 63.10 C 92.55 51.40 92.53 39.70 92.52 28.00 C 92.79 25.99 91.28 23.83 89.12 24.04 C 84.14 24.09 79.09 23.68 74.15 24.28 M 174.25 24.28 C 172.75 24.83 172.18 26.49 172.28 27.96 C 172.27 39.65 172.26 51.35 172.29 63.04 C 172.11 64.76 173.22 66.67 175.07 66.78 C 179.73 66.98 184.40 66.86 189.06 66.84 C 191.19 67.08 192.90 65.07 192.63 63.01 C 192.66 51.32 192.65 39.63 192.63 27.95 C 192.92 25.86 191.24 23.76 189.04 24.03 C 184.12 24.11 179.13 23.66 174.25 24.28 M 274.27 24.31 C 272.84 24.91 272.30 26.51 272.40 27.95 C 272.39 39.67 272.37 51.39 272.41 63.11 C 272.24 64.77 273.31 66.61 275.09 66.77 C 279.04 67.03 283.00 66.78 286.96 66.89 C 290.15 67.67 293.60 65.58 292.77 62.00 C 292.72 50.64 292.78 39.28 292.74 27.91 C 293.02 25.82 291.32 23.77 289.14 24.02 C 284.20 24.13 279.17 23.63 274.27 24.31 M 374.29 24.35 C 372.44 25.16 372.46 27.35 372.48 29.06 C 372.53 40.36 372.46 51.67 372.51 62.97 C 372.19 65.04 373.88 67.05 376.01 66.84 C 380.64 66.88 385.29 66.96 389.92 66.79 C 391.82 66.77 393.03 64.81 392.85 63.05 C 392.88 51.34 392.87 39.64 392.85 27.93 C 393.16 25.76 391.33 23.71 389.10 24.02 C 384.18 24.16 379.15 23.57 374.29 24.35 M 34.46 53.63 C 23.00 57.98 14.88 69.74 15.02 82.02 C 14.98 98.97 15.00 115.92 15.01 132.87 C 153.04 132.87 291.07 132.86 429.10 132.87 C 438.77 132.86 448.45 132.88 458.12 132.86 C 458.16 116.90 458.11 100.94 458.15 84.98 C 458.23 80.22 457.82 75.38 456.00 70.95 C 451.91 60.27 441.41 52.39 429.98 51.64 C 424.88 51.41 419.77 51.56 414.67 51.57 C 412.40 51.54 410.13 51.53 407.87 51.54 C 407.74 56.50 408.11 61.47 407.64 66.42 C 406.52 74.58 399.23 81.35 391.00 81.79 C 385.64 81.94 380.28 81.89 374.92 81.82 C 366.30 81.66 358.53 74.48 357.66 65.91 C 357.29 61.12 357.60 56.32 357.48 51.53 C 340.91 51.54 324.33 51.52 307.76 51.54 C 307.66 56.27 307.93 61.00 307.61 65.72 C 306.83 74.12 299.45 81.28 291.02 81.78 C 285.66 81.95 280.29 81.88 274.93 81.83 C 267.75 81.70 261.04 76.80 258.57 70.10 C 256.45 64.15 257.75 57.71 257.38 51.54 C 240.80 51.53 224.23 51.53 207.65 51.54 C 207.56 56.24 207.82 60.94 207.51 65.63 C 206.76 74.03 199.42 81.24 190.99 81.77 C 185.66 81.97 180.32 81.87 174.98 81.83 C 166.19 81.81 158.21 74.46 157.41 65.71 C 157.11 60.99 157.36 56.27 157.27 51.55 C 140.70 51.52 124.12 51.53 107.54 51.54 C 107.44 56.32 107.73 61.11 107.37 65.88 C 106.51 74.13 99.32 81.15 91.04 81.76 C 85.68 81.98 80.31 81.86 74.94 81.84 C 66.16 81.84 58.16 74.55 57.31 65.82 C 56.99 61.07 57.25 56.30 57.16 51.54 C 49.58 51.74 41.65 50.61 34.46 53.63 Z" />
<path fill="#000000" opacity="1.00" d=" M 55.41 170.48 C 57.80 169.42 60.48 169.80 63.01 169.72 C 70.32 169.80 77.64 169.62 84.94 169.80 C 89.88 169.76 93.62 175.42 91.63 179.96 C 90.62 182.66 87.90 184.67 84.99 184.70 C 76.33 184.78 67.66 184.72 59.00 184.73 C 55.72 184.93 52.48 182.79 51.49 179.64 C 50.22 176.15 52.06 171.99 55.41 170.48 Z" />
<path fill="#000000" opacity="1.00" d=" M 136.22 170.20 C 143.38 169.15 150.73 170.01 157.96 169.73 C 162.00 169.97 166.91 168.73 170.08 171.98 C 173.29 175.00 172.84 180.76 169.22 183.27 C 167.47 184.70 165.14 184.79 162.99 184.75 C 154.96 184.70 146.94 184.77 138.92 184.72 C 135.44 184.89 132.12 182.33 131.41 178.93 C 130.49 175.34 132.72 171.35 136.22 170.20 Z" />
<path fill="#000000" opacity="1.00" d=" M 216.15 170.26 C 223.33 169.08 230.75 170.04 238.02 169.73 C 242.04 169.97 246.91 168.74 250.10 171.90 C 253.20 174.73 253.07 180.15 249.86 182.85 C 246.91 185.59 242.64 184.54 239.02 184.74 C 231.60 184.54 224.11 185.13 216.72 184.44 C 209.99 182.88 209.58 172.35 216.15 170.26 Z" />
<path fill="#000000" opacity="1.00" d=" M 296.22 170.28 C 303.36 169.06 310.75 170.05 317.99 169.73 C 322.44 169.91 328.24 168.62 331.15 172.97 C 334.44 177.28 331.32 184.31 325.90 184.66 C 316.92 184.83 307.94 184.71 298.97 184.72 C 295.20 184.85 291.73 181.69 291.48 177.94 C 291.12 174.70 293.18 171.42 296.22 170.28 Z" />
<path fill="#000000" opacity="1.00" d=" M 375.47 170.68 C 377.47 169.55 379.84 169.77 382.04 169.72 C 389.67 169.79 397.31 169.66 404.94 169.77 C 408.93 169.60 412.61 173.05 412.60 177.06 C 412.83 181.16 409.13 184.90 405.03 184.72 C 396.31 184.74 387.59 184.76 378.87 184.70 C 375.56 184.74 372.48 182.22 371.78 179.00 C 370.93 175.80 372.56 172.21 375.47 170.68 Z" />
<path fill="#000000" opacity="1.00" d=" M 57.52 207.59 C 65.34 207.28 73.18 207.57 81.01 207.45 C 83.73 207.50 86.79 207.13 89.09 208.94 C 92.44 211.26 93.15 216.41 90.56 219.57 C 89.05 221.60 86.48 222.59 83.98 222.46 C 75.34 222.43 66.69 222.55 58.05 222.41 C 54.23 222.29 51.01 218.74 51.10 214.95 C 51.04 211.36 53.93 207.98 57.52 207.59 Z" />
<path fill="#000000" opacity="1.00" d=" M 137.44 207.61 C 146.29 207.28 155.17 207.55 164.03 207.47 C 167.25 207.26 170.55 209.09 171.71 212.17 C 173.79 216.73 170.00 222.55 164.97 222.43 C 156.29 222.51 147.60 222.47 138.92 222.45 C 135.25 222.63 131.80 219.75 131.31 216.12 C 130.60 212.23 133.52 208.15 137.44 207.61 Z" />
<path fill="#000000" opacity="1.00" d=" M 217.48 207.62 C 226.34 207.26 235.23 207.56 244.10 207.47 C 247.65 207.18 251.26 209.52 252.12 213.04 C 253.50 217.53 249.67 222.59 244.96 222.43 C 236.32 222.50 227.68 222.47 219.04 222.45 C 215.31 222.64 211.80 219.66 211.40 215.95 C 210.80 212.14 213.65 208.19 217.48 207.62 Z" />
<path fill="#000000" opacity="1.00" d=" M 297.53 207.64 C 306.36 207.24 315.22 207.57 324.06 207.47 C 328.02 207.07 332.04 209.99 332.44 214.05 C 333.10 218.36 329.32 222.63 324.94 222.44 C 316.29 222.49 307.63 222.49 298.98 222.44 C 294.97 222.59 291.36 219.01 291.45 215.01 C 291.35 211.50 294.07 208.20 297.53 207.64 Z" />
<path fill="#000000" opacity="1.00" d=" M 377.52 207.66 C 386.34 207.21 395.20 207.59 404.04 207.46 C 407.80 207.09 411.70 209.55 412.43 213.36 C 413.57 217.87 409.67 222.70 405.00 222.45 C 396.35 222.48 387.71 222.49 379.07 222.44 C 375.07 222.58 371.48 219.00 371.57 215.01 C 371.47 211.55 374.12 208.29 377.52 207.66 Z" />
<path fill="#000000" opacity="1.00" d=" M 289.22 256.20 C 298.36 250.83 310.40 251.02 319.39 256.63 C 329.26 262.53 334.92 274.59 333.13 285.96 C 332.23 293.04 328.43 299.47 323.24 304.28 C 288.56 338.90 253.96 373.60 219.27 408.21 C 212.29 415.36 201.55 418.44 191.83 416.19 C 186.23 414.98 181.11 411.97 177.09 407.91 C 164.27 395.06 151.41 382.26 138.61 369.39 C 132.01 362.72 129.02 352.79 130.73 343.57 C 132.48 333.24 140.22 324.27 150.14 320.93 C 160.18 317.38 172.06 319.83 179.81 327.16 C 186.06 333.24 192.14 339.49 198.35 345.62 C 225.72 318.25 253.09 290.88 280.46 263.50 C 283.13 260.79 285.86 258.06 289.22 256.20 M 301.40 267.51 C 297.14 268.12 293.84 271.07 291.04 274.13 C 262.91 302.30 234.74 330.41 206.61 358.58 C 204.60 360.49 202.77 362.97 199.90 363.54 C 197.30 364.15 194.55 363.15 192.76 361.24 C 185.24 353.77 177.79 346.24 170.27 338.77 C 166.45 334.79 160.31 333.27 155.09 335.11 C 150.90 336.47 147.47 339.87 146.08 344.06 C 144.18 349.31 145.73 355.51 149.75 359.35 C 162.59 372.16 175.36 385.05 188.26 397.80 C 193.83 403.50 203.87 403.06 209.14 397.15 C 243.99 362.33 278.81 327.48 313.65 292.65 C 318.18 288.49 319.78 281.45 317.15 275.83 C 314.65 269.85 307.74 266.31 301.40 267.51 Z" />
<path fill="#000000" opacity="1.00" d=" M 458.20 264.03 C 458.24 259.93 462.05 257.09 465.89 256.83 C 469.90 257.33 473.43 260.72 473.10 264.94 C 473.23 284.80 472.98 304.66 473.23 324.51 C 496.92 342.47 511.53 371.58 512.00 401.29 L 512.00 408.28 C 510.86 424.33 506.34 440.22 497.97 454.02 C 487.69 471.35 472.01 485.39 453.68 493.74 C 436.34 501.69 416.69 504.42 397.83 501.59 C 370.44 497.68 345.28 481.52 329.87 458.61 C 259.91 458.58 189.95 458.62 119.99 458.59 C 115.54 459.05 111.71 455.42 111.44 451.06 C 111.76 447.19 114.84 443.51 118.94 443.64 C 186.48 443.53 254.02 443.64 321.56 443.59 C 311.26 420.54 310.21 393.55 318.77 369.80 C 326.78 347.21 343.29 327.78 364.27 316.20 C 383.79 305.23 407.10 301.34 429.14 305.11 C 439.26 306.60 448.81 310.42 458.09 314.52 C 458.25 297.69 457.99 280.86 458.20 264.03 M 403.12 319.22 C 372.65 322.30 345.03 343.52 333.96 372.03 C 326.35 390.99 326.03 412.74 333.04 431.92 C 339.49 449.88 352.29 465.44 368.59 475.35 C 384.11 484.90 402.79 489.11 420.92 487.26 C 437.24 485.66 453.04 479.13 465.74 468.74 C 480.25 456.99 490.71 440.31 494.84 422.08 C 498.91 404.50 497.14 385.62 489.81 369.13 C 481.97 351.32 467.79 336.39 450.39 327.69 C 435.90 320.34 419.25 317.42 403.12 319.22 Z" />
<path fill="#000000" opacity="1.00" d=" M 399.45 330.69 C 414.31 328.04 430.01 329.98 443.67 336.46 C 459.39 343.77 472.31 356.86 479.50 372.63 C 491.36 397.86 486.99 429.62 468.73 450.70 C 457.73 463.78 442.06 472.87 425.19 475.74 C 409.43 478.53 392.77 476.02 378.60 468.55 C 363.82 460.92 351.78 448.12 345.09 432.88 C 338.13 417.27 336.96 399.20 341.71 382.79 C 349.08 356.35 372.40 335.30 399.45 330.69 M 376.14 357.23 C 364.04 366.71 356.06 381.09 354.20 396.33 C 358.37 395.27 362.72 395.68 366.97 395.73 C 370.79 395.75 374.12 399.16 374.16 402.96 C 374.38 406.90 370.97 410.63 367.00 410.63 C 362.72 410.64 358.39 410.99 354.17 410.14 C 355.68 420.99 359.93 431.49 366.90 439.99 C 376.36 451.85 390.58 459.58 405.60 461.50 C 404.63 457.36 405.03 453.08 405.04 448.88 C 404.97 445.09 408.25 441.65 412.04 441.53 C 416.17 441.14 420.06 444.79 419.96 448.94 C 419.96 453.12 420.36 457.38 419.38 461.50 C 431.56 459.88 443.30 454.64 452.28 446.21 C 462.51 436.87 468.97 423.81 470.82 410.14 C 466.90 410.97 462.88 410.62 458.91 410.67 C 455.90 410.87 452.84 409.22 451.56 406.45 C 449.33 402.25 452.23 396.52 456.93 395.85 C 461.53 395.60 466.26 395.27 470.79 396.34 C 469.39 385.80 465.35 375.59 458.76 367.23 C 449.27 354.97 434.78 346.67 419.34 344.97 C 420.41 348.91 419.93 353.03 419.97 357.06 C 420.16 360.56 417.61 363.97 414.16 364.67 C 409.95 365.80 405.28 362.43 405.08 358.08 C 405.02 353.69 404.58 349.21 405.64 344.91 C 394.95 346.30 384.58 350.47 376.14 357.23 Z" />
<path fill="#000000" opacity="1.00" d=" M 405.12 386.88 C 405.64 381.43 412.88 378.52 417.06 382.07 C 421.32 385.27 419.69 391.12 420.01 395.68 C 423.93 395.86 428.00 395.14 431.82 396.25 C 436.64 397.96 438.11 404.89 434.39 408.41 C 432.28 410.78 428.92 410.79 426.01 410.68 C 421.35 410.60 416.69 410.76 412.03 410.63 C 408.15 410.56 404.86 406.93 405.02 403.08 C 405.02 397.68 404.85 392.27 405.12 386.88 Z" />
<path fill="#000000" opacity="1.00" d=" M 0.00 399.38 C 0.70 395.72 3.88 393.21 7.50 392.81 C 11.16 393.20 14.76 395.93 14.90 399.82 C 15.19 412.94 14.84 426.07 15.06 439.19 C 14.96 441.78 17.46 443.78 19.95 443.57 C 41.64 443.67 63.34 443.52 85.03 443.64 C 89.14 443.50 92.22 447.19 92.56 451.06 C 92.23 454.97 89.13 458.63 85.01 458.54 C 63.00 458.65 40.98 458.62 18.97 458.55 C 9.48 458.51 1.24 450.65 0.00 441.37 L 0.00 399.38 Z" />
</g>
<g id="#ffbd47ff">
<path fill="#ffbd47" opacity="1.00" d=" M 74.15 24.28 C 79.09 23.68 84.14 24.09 89.12 24.04 C 91.28 23.83 92.79 25.99 92.52 28.00 C 92.53 39.70 92.55 51.40 92.51 63.10 C 92.75 65.09 91.11 67.04 89.04 66.84 C 84.37 66.87 79.69 66.97 75.03 66.78 C 73.14 66.71 71.98 64.75 72.18 63.00 C 72.15 51.33 72.16 39.66 72.17 27.99 C 72.07 26.52 72.63 24.81 74.15 24.28 Z" />
<path fill="#ffbd47" opacity="1.00" d=" M 174.25 24.28 C 179.13 23.66 184.12 24.11 189.04 24.03 C 191.24 23.76 192.92 25.86 192.63 27.95 C 192.65 39.63 192.66 51.32 192.63 63.01 C 192.90 65.07 191.19 67.08 189.06 66.84 C 184.40 66.86 179.73 66.98 175.07 66.78 C 173.22 66.67 172.11 64.76 172.29 63.04 C 172.26 51.35 172.27 39.65 172.28 27.96 C 172.18 26.49 172.75 24.83 174.25 24.28 Z" />
<path fill="#ffbd47" opacity="1.00" d=" M 274.27 24.31 C 279.17 23.63 284.20 24.13 289.14 24.02 C 291.32 23.77 293.02 25.82 292.74 27.91 C 292.78 39.28 292.72 50.64 292.77 62.00 C 293.60 65.58 290.15 67.67 286.96 66.89 C 283.00 66.78 279.04 67.03 275.09 66.77 C 273.31 66.61 272.24 64.77 272.41 63.11 C 272.37 51.39 272.39 39.67 272.40 27.95 C 272.30 26.51 272.84 24.91 274.27 24.31 Z" />
<path fill="#ffbd47" opacity="1.00" d=" M 374.29 24.35 C 379.15 23.57 384.18 24.16 389.10 24.02 C 391.33 23.71 393.16 25.76 392.85 27.93 C 392.87 39.64 392.88 51.34 392.85 63.05 C 393.03 64.81 391.82 66.77 389.92 66.79 C 385.29 66.96 380.64 66.88 376.01 66.84 C 373.88 67.05 372.19 65.04 372.51 62.97 C 372.46 51.67 372.53 40.36 372.48 29.06 C 372.46 27.35 372.44 25.16 374.29 24.35 Z" />
</g>
<g id="#f72b2bff">
<path fill="#f72b2b" opacity="1.00" d=" M 34.46 53.63 C 41.65 50.61 49.58 51.74 57.16 51.54 C 57.25 56.30 56.99 61.07 57.31 65.82 C 58.16 74.55 66.16 81.84 74.94 81.84 C 80.31 81.86 85.68 81.98 91.04 81.76 C 99.32 81.15 106.51 74.13 107.37 65.88 C 107.73 61.11 107.44 56.32 107.54 51.54 C 124.12 51.53 140.70 51.52 157.27 51.55 C 157.36 56.27 157.11 60.99 157.41 65.71 C 158.21 74.46 166.19 81.81 174.98 81.83 C 180.32 81.87 185.66 81.97 190.99 81.77 C 199.42 81.24 206.76 74.03 207.51 65.63 C 207.82 60.94 207.56 56.24 207.65 51.54 C 224.23 51.53 240.80 51.53 257.38 51.54 C 257.75 57.71 256.45 64.15 258.57 70.10 C 261.04 76.80 267.75 81.70 274.93 81.83 C 280.29 81.88 285.66 81.95 291.02 81.78 C 299.45 81.28 306.83 74.12 307.61 65.72 C 307.93 61.00 307.66 56.27 307.76 51.54 C 324.33 51.52 340.91 51.54 357.48 51.53 C 357.60 56.32 357.29 61.12 357.66 65.91 C 358.53 74.48 366.30 81.66 374.92 81.82 C 380.28 81.89 385.64 81.94 391.00 81.79 C 399.23 81.35 406.52 74.58 407.64 66.42 C 408.11 61.47 407.74 56.50 407.87 51.54 C 410.13 51.53 412.40 51.54 414.67 51.57 C 422.48 59.06 428.84 68.81 429.07 79.96 C 429.30 97.59 429.20 115.23 429.10 132.87 C 291.07 132.86 153.04 132.87 15.01 132.87 C 15.00 115.92 14.98 98.97 15.02 82.02 C 14.88 69.74 23.00 57.98 34.46 53.63 Z" />
<path fill="#f72b2b" opacity="1.00" d=" M 301.40 267.51 C 307.74 266.31 314.65 269.85 317.15 275.83 C 319.78 281.45 318.18 288.49 313.65 292.65 C 278.81 327.48 243.99 362.33 209.14 397.15 C 203.87 403.06 193.83 403.50 188.26 397.80 C 175.36 385.05 162.59 372.16 149.75 359.35 C 145.73 355.51 144.18 349.31 146.08 344.06 C 147.47 339.87 150.90 336.47 155.09 335.11 C 160.31 333.27 166.45 334.79 170.27 338.77 C 177.79 346.24 185.24 353.77 192.76 361.24 C 194.55 363.15 197.30 364.15 199.90 363.54 C 202.77 362.97 204.60 360.49 206.61 358.58 C 234.74 330.41 262.91 302.30 291.04 274.13 C 293.84 271.07 297.14 268.12 301.40 267.51 Z" />
</g>
<g id="#d61b1fff">
<path fill="#d61b1f" opacity="1.00" d=" M 414.67 51.57 C 419.77 51.56 424.88 51.41 429.98 51.64 C 441.41 52.39 451.91 60.27 456.00 70.95 C 457.82 75.38 458.23 80.22 458.15 84.98 C 458.11 100.94 458.16 116.90 458.12 132.86 C 448.45 132.88 438.77 132.86 429.10 132.87 C 429.20 115.23 429.30 97.59 429.07 79.96 C 428.84 68.81 422.48 59.06 414.67 51.57 Z" />
</g>
<g id="#d0f4efff">
<path fill="#d0f4ef" opacity="1.00" d=" M 15.00 147.87 C 153.05 147.86 291.10 147.87 429.15 147.87 C 429.21 200.28 429.24 252.69 429.14 305.11 C 407.10 301.34 383.79 305.23 364.27 316.20 C 343.29 327.78 326.78 347.21 318.77 369.80 C 310.21 393.55 311.26 420.54 321.56 443.59 C 254.02 443.64 186.48 443.53 118.94 443.64 C 114.84 443.51 111.76 447.19 111.44 451.06 C 105.14 451.07 98.85 451.07 92.56 451.06 C 92.22 447.19 89.14 443.50 85.03 443.64 C 63.34 443.52 41.64 443.67 19.95 443.57 C 17.46 443.78 14.96 441.78 15.06 439.19 C 14.84 426.07 15.19 412.94 14.90 399.82 C 14.76 395.93 11.16 393.20 7.50 392.81 C 7.50 386.54 7.50 380.27 7.50 374.00 C 11.54 373.67 15.20 370.32 14.97 366.11 C 15.04 293.36 14.97 220.61 15.00 147.87 M 55.41 170.48 C 52.06 171.99 50.22 176.15 51.49 179.64 C 52.48 182.79 55.72 184.93 59.00 184.73 C 67.66 184.72 76.33 184.78 84.99 184.70 C 87.90 184.67 90.62 182.66 91.63 179.96 C 93.62 175.42 89.88 169.76 84.94 169.80 C 77.64 169.62 70.32 169.80 63.01 169.72 C 60.48 169.80 57.80 169.42 55.41 170.48 M 136.22 170.20 C 132.72 171.35 130.49 175.34 131.41 178.93 C 132.12 182.33 135.44 184.89 138.92 184.72 C 146.94 184.77 154.96 184.70 162.99 184.75 C 165.14 184.79 167.47 184.70 169.22 183.27 C 172.84 180.76 173.29 175.00 170.08 171.98 C 166.91 168.73 162.00 169.97 157.96 169.73 C 150.73 170.01 143.38 169.15 136.22 170.20 M 216.15 170.26 C 209.58 172.35 209.99 182.88 216.72 184.44 C 224.11 185.13 231.60 184.54 239.02 184.74 C 242.64 184.54 246.91 185.59 249.86 182.85 C 253.07 180.15 253.20 174.73 250.10 171.90 C 246.91 168.74 242.04 169.97 238.02 169.73 C 230.75 170.04 223.33 169.08 216.15 170.26 M 296.22 170.28 C 293.18 171.42 291.12 174.70 291.48 177.94 C 291.73 181.69 295.20 184.85 298.97 184.72 C 307.94 184.71 316.92 184.83 325.90 184.66 C 331.32 184.31 334.44 177.28 331.15 172.97 C 328.24 168.62 322.44 169.91 317.99 169.73 C 310.75 170.05 303.36 169.06 296.22 170.28 M 375.47 170.68 C 372.56 172.21 370.93 175.80 371.78 179.00 C 372.48 182.22 375.56 184.74 378.87 184.70 C 387.59 184.76 396.31 184.74 405.03 184.72 C 409.13 184.90 412.83 181.16 412.60 177.06 C 412.61 173.05 408.93 169.60 404.94 169.77 C 397.31 169.66 389.67 169.79 382.04 169.72 C 379.84 169.77 377.47 169.55 375.47 170.68 M 57.52 207.59 C 53.93 207.98 51.04 211.36 51.10 214.95 C 51.01 218.74 54.23 222.29 58.05 222.41 C 66.69 222.55 75.34 222.43 83.98 222.46 C 86.48 222.59 89.05 221.60 90.56 219.57 C 93.15 216.41 92.44 211.26 89.09 208.94 C 86.79 207.13 83.73 207.50 81.01 207.45 C 73.18 207.57 65.34 207.28 57.52 207.59 M 137.44 207.61 C 133.52 208.15 130.60 212.23 131.31 216.12 C 131.80 219.75 135.25 222.63 138.92 222.45 C 147.60 222.47 156.29 222.51 164.97 222.43 C 170.00 222.55 173.79 216.73 171.71 212.17 C 170.55 209.09 167.25 207.26 164.03 207.47 C 155.17 207.55 146.29 207.28 137.44 207.61 M 217.48 207.62 C 213.65 208.19 210.80 212.14 211.40 215.95 C 211.80 219.66 215.31 222.64 219.04 222.45 C 227.68 222.47 236.32 222.50 244.96 222.43 C 249.67 222.59 253.50 217.53 252.12 213.04 C 251.26 209.52 247.65 207.18 244.10 207.47 C 235.23 207.56 226.34 207.26 217.48 207.62 M 297.53 207.64 C 294.07 208.20 291.35 211.50 291.45 215.01 C 291.36 219.01 294.97 222.59 298.98 222.44 C 307.63 222.49 316.29 222.49 324.94 222.44 C 329.32 222.63 333.10 218.36 332.44 214.05 C 332.04 209.99 328.02 207.07 324.06 207.47 C 315.22 207.57 306.36 207.24 297.53 207.64 M 377.52 207.66 C 374.12 208.29 371.47 211.55 371.57 215.01 C 371.48 219.00 375.07 222.58 379.07 222.44 C 387.71 222.49 396.35 222.48 405.00 222.45 C 409.67 222.70 413.57 217.87 412.43 213.36 C 411.70 209.55 407.80 207.09 404.04 207.46 C 395.20 207.59 386.34 207.21 377.52 207.66 M 289.22 256.20 C 285.86 258.06 283.13 260.79 280.46 263.50 C 253.09 290.88 225.72 318.25 198.35 345.62 C 192.14 339.49 186.06 333.24 179.81 327.16 C 172.06 319.83 160.18 317.38 150.14 320.93 C 140.22 324.27 132.48 333.24 130.73 343.57 C 129.02 352.79 132.01 362.72 138.61 369.39 C 151.41 382.26 164.27 395.06 177.09 407.91 C 181.11 411.97 186.23 414.98 191.83 416.19 C 201.55 418.44 212.29 415.36 219.27 408.21 C 253.96 373.60 288.56 338.90 323.24 304.28 C 328.43 299.47 332.23 293.04 333.13 285.96 C 334.92 274.59 329.26 262.53 319.39 256.63 C 310.40 251.02 298.36 250.83 289.22 256.20 Z" />
<path fill="#d0f4ef" opacity="1.00" d=" M 376.14 357.23 C 384.58 350.47 394.95 346.30 405.64 344.91 C 404.58 349.21 405.02 353.69 405.08 358.08 C 405.28 362.43 409.95 365.80 414.16 364.67 C 417.61 363.97 420.16 360.56 419.97 357.06 C 419.93 353.03 420.41 348.91 419.34 344.97 C 434.78 346.67 449.27 354.97 458.76 367.23 C 465.35 375.59 469.39 385.80 470.79 396.34 C 466.26 395.27 461.53 395.60 456.93 395.85 C 452.23 396.52 449.33 402.25 451.56 406.45 C 452.84 409.22 455.90 410.87 458.91 410.67 C 462.88 410.62 466.90 410.97 470.82 410.14 C 468.97 423.81 462.51 436.87 452.28 446.21 C 443.30 454.64 431.56 459.88 419.38 461.50 C 420.36 457.38 419.96 453.12 419.96 448.94 C 420.06 444.79 416.17 441.14 412.04 441.53 C 408.25 441.65 404.97 445.09 405.04 448.88 C 405.03 453.08 404.63 457.36 405.60 461.50 C 390.58 459.58 376.36 451.85 366.90 439.99 C 359.93 431.49 355.68 420.99 354.17 410.14 C 358.39 410.99 362.72 410.64 367.00 410.63 C 370.97 410.63 374.38 406.90 374.16 402.96 C 374.12 399.16 370.79 395.75 366.97 395.73 C 362.72 395.68 358.37 395.27 354.20 396.33 C 356.06 381.09 364.04 366.71 376.14 357.23 M 405.12 386.88 C 404.85 392.27 405.02 397.68 405.02 403.08 C 404.86 406.93 408.15 410.56 412.03 410.63 C 416.69 410.76 421.35 410.60 426.01 410.68 C 428.92 410.79 432.28 410.78 434.39 408.41 C 438.11 404.89 436.64 397.96 431.82 396.25 C 428.00 395.14 423.93 395.86 420.01 395.68 C 419.69 391.12 421.32 385.27 417.06 382.07 C 412.88 378.52 405.64 381.43 405.12 386.88 Z" />
</g>
<g id="#abe0daff">
<path fill="#abe0da" opacity="1.00" d=" M 429.15 147.87 C 438.81 147.87 448.47 147.86 458.12 147.87 C 458.15 175.25 458.09 202.63 458.15 230.01 C 457.85 234.37 461.70 237.81 465.88 237.99 C 465.88 244.27 465.86 250.55 465.89 256.83 C 462.05 257.09 458.24 259.93 458.20 264.03 C 457.99 280.86 458.25 297.69 458.09 314.52 C 448.81 310.42 439.26 306.60 429.14 305.11 C 429.24 252.69 429.21 200.28 429.15 147.87 Z" />
</g>
<g id="#38aaffff">
<path fill="#38aaff" opacity="1.00" d=" M 403.12 319.22 C 419.25 317.42 435.90 320.34 450.39 327.69 C 467.79 336.39 481.97 351.32 489.81 369.13 C 497.14 385.62 498.91 404.50 494.84 422.08 C 490.71 440.31 480.25 456.99 465.74 468.74 C 453.04 479.13 437.24 485.66 420.92 487.26 C 402.79 489.11 384.11 484.90 368.59 475.35 C 352.29 465.44 339.49 449.88 333.04 431.92 C 326.03 412.74 326.35 390.99 333.96 372.03 C 345.03 343.52 372.65 322.30 403.12 319.22 M 399.45 330.69 C 372.40 335.30 349.08 356.35 341.71 382.79 C 336.96 399.20 338.13 417.27 345.09 432.88 C 351.78 448.12 363.82 460.92 378.60 468.55 C 392.77 476.02 409.43 478.53 425.19 475.74 C 442.06 472.87 457.73 463.78 468.73 450.70 C 486.99 429.62 491.36 397.86 479.50 372.63 C 472.31 356.86 459.39 343.77 443.67 336.46 C 430.01 329.98 414.31 328.04 399.45 330.69 Z" />
</g>
</svg>
