<?xml version="1.0" encoding="UTF-8" ?>
<!DOCTYPE svg PUBLIC "-//W3C//DTD SVG 1.1//EN" "http://www.w3.org/Graphics/SVG/1.1/DTD/svg11.dtd">
<svg width="740pt" height="740pt" viewBox="0 0 740 740" version="1.1" xmlns="http://www.w3.org/2000/svg">
<g id="#fdfdfdff">
<path fill="#fdfdfd" opacity="1.00" d=" M 382.23 230.37 C 389.17 228.50 397.64 228.62 403.09 233.94 C 404.43 235.28 406.72 236.94 405.14 239.00 C 402.34 243.35 396.29 242.43 391.94 241.63 C 388.53 240.66 384.44 239.93 382.45 236.67 C 381.14 234.76 381.93 232.45 382.23 230.37 Z" />
</g>
<g id="#f8f8f8ff">
</g>
<g id="#553a00ff">
<path fill="#553a00" opacity="1.00" d=" M 322.88 99.63 C 330.92 95.42 340.27 93.03 349.34 94.63 C 354.15 96.18 358.51 99.46 360.61 104.14 C 359.91 108.10 361.88 111.96 361.40 115.94 C 361.06 118.16 360.50 120.34 360.02 122.53 C 360.82 122.01 361.65 121.54 362.52 121.11 C 370.74 113.42 381.02 107.88 391.94 105.02 C 392.47 106.31 395.55 106.98 395.66 105.26 C 394.91 105.15 393.41 104.93 392.66 104.82 C 395.41 104.12 398.21 103.61 401.02 103.21 C 407.72 104.73 414.70 103.85 421.52 104.02 C 436.38 107.67 445.20 123.88 443.80 138.49 C 441.34 139.74 441.58 142.94 442.92 144.94 C 440.71 155.59 435.89 165.66 429.02 174.08 C 432.08 173.06 435.27 172.50 438.47 172.09 C 443.45 173.92 448.80 172.91 453.97 173.09 C 458.96 172.96 463.79 174.83 468.80 174.33 C 480.12 177.20 489.62 186.75 491.71 198.34 C 490.31 204.60 490.21 211.05 490.10 217.43 C 486.82 227.46 479.89 236.01 471.56 242.34 C 471.63 242.65 471.76 243.26 471.83 243.56 C 465.51 246.33 462.96 237.06 457.19 236.92 C 456.53 236.29 455.86 235.68 455.19 235.07 C 455.24 232.50 455.02 229.94 454.58 227.41 C 459.09 230.89 463.18 234.87 467.23 238.88 C 475.97 233.27 483.36 224.80 486.05 214.61 C 488.00 208.98 488.39 202.82 486.62 197.09 C 484.65 189.24 478.28 183.13 470.81 180.36 C 456.66 174.98 440.55 174.91 426.16 179.48 C 423.53 179.92 420.91 180.35 418.30 180.81 C 426.68 172.42 432.19 161.69 436.77 150.88 C 438.22 147.65 438.42 144.08 438.58 140.61 C 439.34 133.58 438.76 126.06 434.83 119.99 C 430.73 112.93 422.94 108.68 414.97 107.78 C 402.41 106.19 389.82 110.00 378.75 115.71 C 370.24 120.15 362.64 126.26 356.27 133.42 C 354.47 135.41 353.30 137.85 352.25 140.30 C 353.10 134.07 356.95 128.74 357.83 122.51 C 358.81 116.54 358.81 109.90 355.26 104.72 C 353.20 101.37 349.37 99.46 345.52 99.15 C 338.09 98.46 330.90 101.24 324.43 104.62 C 313.59 110.55 304.13 118.74 295.98 127.99 C 295.73 125.37 295.77 122.74 295.96 120.12 L 295.97 119.95 C 303.82 111.85 312.91 104.93 322.88 99.63 M 433.17 173.27 C 433.55 174.63 437.11 174.56 437.66 173.33 C 436.36 172.52 434.47 172.49 433.17 173.27 M 437.69 175.40 C 444.07 176.32 450.63 176.22 457.03 175.51 C 450.65 174.49 444.10 174.80 437.69 175.40 M 488.32 199.54 C 488.02 203.49 487.93 207.45 488.28 211.40 C 489.44 207.62 489.48 203.28 488.32 199.54 Z" />
</g>
<g id="#ffd091ff">
<path fill="#ffd091" opacity="1.00" d=" M 324.43 104.62 C 330.90 101.24 338.09 98.46 345.52 99.15 C 349.37 99.46 353.20 101.37 355.26 104.72 C 358.81 109.90 358.81 116.54 357.83 122.51 C 354.84 117.62 354.98 111.35 351.15 106.87 C 349.16 103.91 345.08 104.07 342.02 104.89 C 331.48 107.87 322.08 113.84 313.65 120.71 C 299.94 132.67 288.88 148.13 283.52 165.62 C 282.44 168.94 282.07 172.47 280.74 175.71 C 279.51 176.26 277.89 175.83 277.65 174.37 C 276.69 169.50 277.17 164.47 277.80 159.58 C 281.30 150.59 285.60 141.84 291.32 134.04 C 292.85 132.00 294.40 129.98 295.98 127.99 C 304.13 118.74 313.59 110.55 324.43 104.62 Z" />
</g>
<g id="#281e19ff">
<path fill="#281e19" opacity="1.00" d=" M 401.02 103.21 C 407.81 102.40 414.89 102.00 421.52 104.02 C 414.70 103.85 407.72 104.73 401.02 103.21 Z" />
</g>
<g id="#ffcd35ff">
<path fill="#ffcd35" opacity="1.00" d=" M 313.65 120.71 C 322.08 113.84 331.48 107.87 342.02 104.89 C 345.08 104.07 349.16 103.91 351.15 106.87 C 354.98 111.35 354.84 117.62 357.83 122.51 C 356.95 128.74 353.10 134.07 352.25 140.30 C 356.41 139.38 359.32 136.18 362.61 133.76 C 374.68 125.06 387.82 116.66 402.95 114.98 C 412.56 114.14 422.73 114.31 431.71 118.16 C 436.44 123.02 438.12 130.31 437.12 136.92 C 436.81 141.58 434.18 145.86 434.68 150.60 C 428.19 162.83 418.26 173.34 406.26 180.29 C 399.08 184.38 390.52 183.80 382.68 182.43 C 368.47 179.96 354.41 176.11 339.92 175.69 C 330.49 175.46 320.98 175.58 311.72 177.53 C 302.96 179.37 293.95 181.36 286.30 186.21 C 282.44 188.55 280.36 192.67 278.67 196.68 C 273.73 185.03 272.16 171.30 277.80 159.58 C 277.17 164.47 276.69 169.50 277.65 174.37 C 277.89 175.83 279.51 176.26 280.74 175.71 C 282.07 172.47 282.44 168.94 283.52 165.62 C 288.88 148.13 299.94 132.67 313.65 120.71 Z" />
<path fill="#ffcd35" opacity="1.00" d=" M 431.02 180.22 C 441.59 180.74 452.40 180.17 462.62 183.42 C 469.97 184.77 475.82 189.66 481.45 194.23 C 479.39 188.63 475.37 184.08 470.81 180.36 C 478.28 183.13 484.65 189.24 486.62 197.09 C 488.39 202.82 488.00 208.98 486.05 214.61 C 482.76 218.15 479.09 223.39 473.58 222.43 C 470.34 220.00 468.22 216.41 465.15 213.78 C 453.61 203.78 438.47 198.78 423.46 197.29 C 420.91 196.55 420.82 192.93 421.97 190.97 C 424.37 186.87 428.81 184.69 432.53 182.01 C 432.16 181.56 431.40 180.67 431.02 180.22 Z" />
<path fill="#ffcd35" opacity="1.00" d=" M 581.55 316.33 C 584.89 319.97 586.03 324.88 587.02 329.58 C 588.89 342.87 584.10 356.07 577.12 367.19 C 576.16 368.57 576.28 370.31 575.94 371.89 L 575.72 372.34 C 575.15 372.14 574.03 371.74 573.46 371.53 C 571.35 367.61 569.11 363.15 564.76 361.34 C 561.91 360.20 559.18 362.28 557.54 364.44 C 553.21 370.05 550.96 376.88 548.22 383.33 C 547.35 385.25 546.54 387.46 544.42 388.32 C 542.88 387.33 541.12 386.45 540.11 384.87 C 539.68 383.39 539.87 381.84 539.83 380.34 C 540.68 370.55 542.48 360.78 545.86 351.54 C 546.01 353.03 546.22 354.54 546.43 356.04 C 548.99 351.42 551.14 346.56 554.23 342.24 C 557.79 337.28 560.90 331.84 565.73 327.96 C 567.33 328.04 568.06 327.28 567.92 325.68 C 570.66 323.08 573.68 320.65 577.30 319.40 C 578.85 318.59 581.30 318.48 581.55 316.33 Z" />
<path fill="#ffcd35" opacity="1.00" d=" M 657.15 341.32 C 657.89 342.12 658.61 342.96 659.32 343.82 C 659.17 350.25 658.85 356.76 657.32 363.02 C 656.80 365.57 654.83 367.32 652.93 368.91 C 652.67 372.32 650.71 375.19 648.69 377.82 C 640.72 388.64 631.54 398.68 620.53 406.46 C 614.07 410.47 606.82 414.05 599.03 413.86 C 590.41 414.02 581.77 408.69 578.49 400.65 C 577.39 398.31 576.76 395.69 575.05 393.70 C 570.10 394.78 567.03 399.95 561.78 400.28 C 564.60 393.26 569.19 387.12 573.73 381.14 C 573.33 383.13 573.10 385.15 572.85 387.17 C 574.79 386.06 576.75 384.92 578.40 383.38 C 584.47 377.75 590.14 371.63 596.80 366.66 C 608.57 356.66 621.90 347.86 636.98 343.88 C 643.56 342.03 650.42 342.38 657.17 342.39 L 657.15 341.32 Z" />
<path fill="#ffcd35" opacity="1.00" d=" M 628.40 413.04 C 645.12 415.48 662.49 410.82 678.86 416.18 C 683.01 417.27 685.40 421.13 687.50 424.56 C 687.18 431.45 681.54 435.88 676.65 439.89 C 671.42 441.74 666.63 444.67 661.31 446.29 C 650.60 449.84 639.04 450.06 627.96 448.37 C 621.82 447.29 615.74 445.09 610.75 441.29 C 607.88 439.34 607.31 435.01 609.21 432.23 C 614.94 424.58 622.94 418.97 631.72 415.33 C 630.61 414.54 629.53 413.76 628.40 413.04 Z" />
</g>
<g id="#360906ff">
<path fill="#360906" opacity="1.00" d=" M 361.40 115.94 C 361.88 111.96 359.91 108.10 360.61 104.14 C 363.57 109.26 362.21 115.25 362.41 120.66 L 362.52 121.11 C 361.65 121.54 360.82 122.01 360.02 122.53 C 360.50 120.34 361.06 118.16 361.40 115.94 Z" />
<path fill="#360906" opacity="1.00" d=" M 356.50 285.66 C 357.58 284.74 359.03 285.68 360.22 285.82 C 360.34 289.79 358.52 293.42 357.31 297.10 C 359.71 299.92 362.28 302.63 364.24 305.79 C 365.74 308.06 366.92 311.12 370.04 311.45 C 376.20 312.24 382.27 310.08 387.93 307.86 C 388.53 308.20 389.74 308.89 390.35 309.24 C 389.69 310.20 389.05 311.19 388.34 312.12 C 384.54 317.09 378.33 319.79 372.11 319.66 C 371.16 319.66 369.24 319.65 368.28 319.65 C 369.94 328.38 368.39 337.64 363.72 345.23 C 363.54 345.50 363.17 346.02 362.99 346.29 C 360.05 348.40 356.51 349.27 353.16 350.49 C 350.25 351.52 348.08 353.82 345.95 355.95 C 345.51 355.99 344.63 356.08 344.19 356.13 C 335.69 357.47 326.63 354.55 320.74 348.25 C 307.59 334.04 309.57 307.98 326.08 297.14 C 326.92 296.51 327.77 295.88 328.61 295.25 C 327.53 291.81 326.98 287.20 330.97 285.46 C 333.84 287.03 334.83 290.32 337.00 292.48 C 340.30 292.93 343.68 292.98 346.98 292.52 C 350.83 291.30 353.30 287.91 356.50 285.66 M 329.02 309.97 C 326.42 312.74 324.32 315.94 321.68 318.66 C 318.82 321.14 315.66 323.44 313.75 326.81 C 313.50 328.82 314.00 330.84 314.16 332.86 C 315.81 332.28 317.84 332.27 319.14 331.00 C 318.54 329.66 317.76 328.44 316.97 327.23 C 318.39 327.66 319.85 328.83 321.39 328.41 C 324.68 326.17 326.18 321.49 330.46 320.74 C 330.47 319.34 329.94 318.00 329.78 316.62 C 331.97 319.86 334.91 323.12 339.04 323.56 C 344.44 324.43 349.65 320.21 350.90 315.09 C 352.85 308.93 349.10 301.63 342.90 299.73 C 336.34 297.46 329.10 303.23 329.02 309.97 M 325.29 331.38 C 322.70 332.75 323.14 336.23 326.01 336.79 C 329.29 336.43 327.99 331.80 325.29 331.38 M 352.39 344.67 C 353.80 344.63 355.21 344.57 356.63 344.52 C 356.64 342.80 356.59 339.81 354.11 340.03 C 351.88 340.29 352.49 343.10 352.39 344.67 Z" />
</g>
<g id="#1c1300ff">
<path fill="#1c1300" opacity="1.00" d=" M 391.94 105.02 L 392.66 104.82 C 393.41 104.93 394.91 105.15 395.66 105.26 C 395.55 106.98 392.47 106.31 391.94 105.02 Z" />
</g>
<g id="#ffd493ff">
<path fill="#ffd493" opacity="1.00" d=" M 378.75 115.71 C 389.82 110.00 402.41 106.19 414.97 107.78 C 422.94 108.68 430.73 112.93 434.83 119.99 C 438.76 126.06 439.34 133.58 438.58 140.61 C 437.47 144.00 436.33 147.41 434.68 150.60 C 434.18 145.86 436.81 141.58 437.12 136.92 C 438.12 130.31 436.44 123.02 431.71 118.16 C 422.73 114.31 412.56 114.14 402.95 114.98 C 387.82 116.66 374.68 125.06 362.61 133.76 C 359.32 136.18 356.41 139.38 352.25 140.30 C 353.30 137.85 354.47 135.41 356.27 133.42 C 362.64 126.26 370.24 120.15 378.75 115.71 Z" />
</g>
<g id="#4e0d0eff">
<path fill="#4e0d0e" opacity="1.00" d=" M 286.42 131.62 C 289.28 127.54 292.39 123.61 295.96 120.12 C 295.77 122.74 295.73 125.37 295.98 127.99 C 294.40 129.98 292.85 132.00 291.32 134.04 C 289.69 133.23 288.05 132.43 286.42 131.62 Z" />
</g>
<g id="#4e3a00ff">
<path fill="#4e3a00" opacity="1.00" d=" M 286.25 131.53 L 286.42 131.62 C 288.05 132.43 289.69 133.23 291.32 134.04 C 285.60 141.84 281.30 150.59 277.80 159.58 C 272.16 171.30 273.73 185.03 278.67 196.68 C 280.43 200.27 283.87 203.05 287.96 203.30 C 292.19 202.76 295.75 200.23 299.53 198.47 C 315.56 190.80 333.07 185.17 351.02 185.79 C 367.57 185.46 383.71 190.14 399.09 195.83 C 412.01 200.80 424.84 206.31 436.42 213.99 C 427.66 214.55 421.18 206.90 412.47 207.08 C 412.21 206.98 411.69 206.77 411.44 206.67 C 409.51 205.89 407.61 205.07 405.70 204.26 C 386.13 196.14 364.89 189.98 343.50 191.96 C 331.24 192.78 319.09 195.73 307.85 200.74 C 300.73 203.54 294.40 208.55 286.56 209.33 C 279.69 207.96 274.12 202.80 271.74 196.28 C 271.77 195.38 271.84 193.58 271.87 192.69 C 267.75 191.25 263.81 194.95 259.76 192.94 C 262.50 191.82 265.26 190.71 267.95 189.46 C 267.63 189.23 266.99 188.77 266.67 188.54 C 267.20 188.35 268.27 187.96 268.81 187.77 C 268.87 187.50 268.98 186.97 269.04 186.71 C 270.53 182.71 270.09 178.44 269.11 174.39 C 270.23 158.70 277.55 144.33 286.25 131.53 M 273.64 184.13 C 274.02 178.69 274.17 173.22 273.71 167.79 C 272.21 173.10 272.73 178.76 273.64 184.13 M 318.42 195.07 C 318.67 196.37 319.42 196.59 320.66 195.72 C 320.41 194.41 319.66 194.20 318.42 195.07 Z" />
</g>
<g id="#2f1800ff">
<path fill="#2f1800" opacity="1.00" d=" M 442.92 144.94 C 441.58 142.94 441.34 139.74 443.80 138.49 C 443.66 140.65 443.41 142.82 442.92 144.94 Z" />
</g>
<g id="#e7a500ff">
<path fill="#e7a500" opacity="1.00" d=" M 434.68 150.60 C 436.33 147.41 437.47 144.00 438.58 140.61 C 438.42 144.08 438.22 147.65 436.77 150.88 C 432.19 161.69 426.68 172.42 418.30 180.81 C 420.91 180.35 423.53 179.92 426.16 179.48 C 427.77 179.72 429.39 180.01 431.02 180.22 C 431.40 180.67 432.16 181.56 432.53 182.01 C 428.81 184.69 424.37 186.87 421.97 190.97 C 420.82 192.93 420.91 196.55 423.46 197.29 C 438.47 198.78 453.61 203.78 465.15 213.78 C 468.22 216.41 470.34 220.00 473.58 222.43 C 479.09 223.39 482.76 218.15 486.05 214.61 C 483.36 224.80 475.97 233.27 467.23 238.88 C 463.18 234.87 459.09 230.89 454.58 227.41 C 449.48 221.74 442.67 218.17 436.42 213.99 C 424.84 206.31 412.01 200.80 399.09 195.83 C 383.71 190.14 367.57 185.46 351.02 185.79 C 333.07 185.17 315.56 190.80 299.53 198.47 C 295.75 200.23 292.19 202.76 287.96 203.30 C 283.87 203.05 280.43 200.27 278.67 196.68 C 280.36 192.67 282.44 188.55 286.30 186.21 C 293.95 181.36 302.96 179.37 311.72 177.53 C 320.98 175.58 330.49 175.46 339.92 175.69 C 354.41 176.11 368.47 179.96 382.68 182.43 C 390.52 183.80 399.08 184.38 406.26 180.29 C 418.26 173.34 428.19 162.83 434.68 150.60 Z" />
</g>
<g id="#281b00ff">
<path fill="#281b00" opacity="1.00" d=" M 273.64 184.13 C 272.73 178.76 272.21 173.10 273.71 167.79 C 274.17 173.22 274.02 178.69 273.64 184.13 Z" />
</g>
<g id="#2d2009ff">
<path fill="#2d2009" opacity="1.00" d=" M 438.47 172.09 C 448.57 170.88 459.07 171.05 468.80 174.33 C 463.79 174.83 458.96 172.96 453.97 173.09 C 448.80 172.91 443.45 173.92 438.47 172.09 Z" />
</g>
<g id="#191200ff">
<path fill="#191200" opacity="1.00" d=" M 433.17 173.27 C 434.47 172.49 436.36 172.52 437.66 173.33 C 437.11 174.56 433.55 174.63 433.17 173.27 Z" />
</g>
<g id="#1c1501ff">
<path fill="#1c1501" opacity="1.00" d=" M 269.11 174.39 C 270.09 178.44 270.53 182.71 269.04 186.71 C 268.79 182.61 268.69 178.48 269.11 174.39 Z" />
</g>
<g id="#231800ff">
<path fill="#231800" opacity="1.00" d=" M 437.69 175.40 C 444.10 174.80 450.65 174.49 457.03 175.51 C 450.63 176.22 444.07 176.32 437.69 175.40 Z" />
<path fill="#231800" opacity="1.00" d=" M 318.42 195.07 C 319.66 194.20 320.41 194.41 320.66 195.72 C 319.42 196.59 318.67 196.37 318.42 195.07 Z" />
</g>
<g id="#ffd693ff">
<path fill="#ffd693" opacity="1.00" d=" M 426.16 179.48 C 440.55 174.91 456.66 174.98 470.81 180.36 C 475.37 184.08 479.39 188.63 481.45 194.23 C 475.82 189.66 469.97 184.77 462.62 183.42 C 452.40 180.17 441.59 180.74 431.02 180.22 C 429.39 180.01 427.77 179.72 426.16 179.48 Z" />
</g>
<g id="#370e10ff">
<path fill="#370e10" opacity="1.00" d=" M 249.87 195.57 C 255.33 192.92 260.95 190.59 266.67 188.54 C 266.99 188.77 267.63 189.23 267.95 189.46 C 265.26 190.71 262.50 191.82 259.76 192.94 C 263.81 194.95 267.75 191.25 271.87 192.69 C 271.84 193.58 271.77 195.38 271.74 196.28 C 271.27 195.15 270.80 194.01 270.35 192.88 C 268.97 193.35 267.58 193.81 266.22 194.32 C 239.76 204.73 215.77 221.36 196.86 242.60 C 181.68 259.32 169.58 278.63 159.67 298.88 C 159.40 297.23 159.40 295.57 159.61 293.92 C 157.45 295.84 155.58 298.05 153.91 300.40 L 153.52 298.96 C 164.60 275.57 178.71 253.41 196.57 234.60 C 211.89 218.64 229.85 205.09 249.87 195.57 Z" />
</g>
<g id="#edc5abff">
<path fill="#edc5ab" opacity="1.00" d=" M 307.85 200.74 C 319.09 195.73 331.24 192.78 343.50 191.96 C 348.43 193.16 353.40 194.17 358.34 195.33 C 367.63 196.37 376.93 197.60 386.03 199.75 C 392.61 201.18 398.73 205.42 405.70 204.26 C 407.61 205.07 409.51 205.89 411.44 206.67 C 411.29 209.83 411.14 212.98 410.93 216.14 C 410.07 215.88 409.22 215.65 408.37 215.43 C 391.97 206.33 374.07 199.66 355.51 196.71 C 347.35 196.02 339.00 196.02 330.98 197.90 C 323.19 199.59 315.34 201.27 308.06 204.64 C 308.67 203.46 309.25 202.27 309.82 201.08 C 309.33 200.99 308.35 200.82 307.85 200.74 Z" />
<path fill="#edc5ab" opacity="1.00" d=" M 204.65 333.51 C 205.24 333.47 206.43 333.39 207.02 333.35 C 207.12 334.67 207.28 335.99 207.48 337.30 C 206.55 337.36 205.64 337.47 204.73 337.64 C 204.42 337.13 203.81 336.12 203.50 335.62 C 203.88 334.91 204.26 334.21 204.65 333.51 Z" />
</g>
<g id="#fdf19cff">
<path fill="#fdf19c" opacity="1.00" d=" M 343.50 191.96 C 364.89 189.98 386.13 196.14 405.70 204.26 C 398.73 205.42 392.61 201.18 386.03 199.75 C 376.93 197.60 367.63 196.37 358.34 195.33 C 353.40 194.17 348.43 193.16 343.50 191.96 Z" />
</g>
<g id="#fae9cdff">
<path fill="#fae9cd" opacity="1.00" d=" M 266.22 194.32 C 267.58 193.81 268.97 193.35 270.35 192.88 C 270.80 194.01 271.27 195.15 271.74 196.28 C 274.12 202.80 279.69 207.96 286.56 209.33 C 288.74 210.03 291.00 211.24 293.34 210.50 C 298.15 209.27 302.69 207.19 307.17 205.08 C 308.81 205.80 310.36 207.12 312.20 207.27 C 319.83 205.85 327.08 202.18 334.98 202.33 C 340.65 202.32 346.32 202.25 351.99 202.22 C 361.64 202.15 370.80 205.52 380.12 207.52 C 384.90 208.39 389.33 210.45 394.00 211.72 C 398.86 212.85 403.12 216.46 408.37 215.43 C 409.22 215.65 410.07 215.88 410.93 216.14 C 418.82 220.79 426.88 225.19 434.11 230.87 C 447.41 239.95 459.90 250.53 469.48 263.57 C 492.74 294.68 505.03 332.73 509.72 370.98 C 509.98 375.34 510.60 379.66 511.21 383.99 C 511.72 390.31 511.34 396.66 511.47 403.00 C 501.34 400.16 490.93 398.32 480.41 397.90 C 466.14 396.51 451.20 398.24 438.61 405.51 C 431.77 409.48 425.87 414.84 420.05 420.14 C 420.45 419.99 421.24 419.69 421.64 419.54 C 416.63 423.79 413.20 429.50 410.06 435.18 C 403.90 446.60 400.66 459.26 397.90 471.85 C 394.88 484.29 394.07 497.27 394.95 510.02 C 397.43 535.02 409.15 557.98 422.42 578.90 C 387.16 592.65 348.71 597.67 311.02 595.07 C 273.09 592.11 235.41 581.77 202.32 562.74 C 187.07 554.25 172.78 543.95 160.07 531.98 C 155.70 528.13 152.43 523.07 147.38 520.03 C 140.61 499.88 136.89 478.77 134.83 457.64 C 136.43 453.11 139.57 448.94 139.41 443.95 C 139.28 438.62 140.27 433.35 140.32 428.03 C 140.42 411.39 140.45 394.74 140.28 378.10 C 148.45 383.11 158.58 384.27 167.89 382.51 C 177.47 380.70 187.21 376.13 192.47 367.56 C 195.03 363.70 195.38 358.78 194.35 354.37 C 193.26 351.78 191.33 349.68 189.78 347.37 C 195.57 348.32 201.79 347.14 206.41 343.41 C 213.76 337.57 217.05 328.09 218.03 319.03 C 218.79 309.62 215.84 299.60 208.92 292.95 C 209.19 290.98 209.60 289.00 209.46 287.01 C 209.16 285.42 207.17 285.34 206.06 284.57 C 204.19 286.83 202.58 289.47 199.97 290.97 C 194.58 290.21 194.97 280.83 188.81 281.65 C 188.68 284.87 188.71 288.12 189.38 291.30 C 185.65 293.89 182.26 296.92 179.49 300.52 C 177.07 303.66 172.57 304.05 168.99 303.04 C 167.79 302.46 166.62 301.81 165.62 300.94 C 165.71 296.67 168.58 293.20 170.48 289.57 C 175.67 281.12 180.28 272.26 186.50 264.48 C 191.20 258.49 195.18 251.92 200.49 246.43 C 204.73 242.03 209.17 237.85 213.44 233.48 C 214.85 232.15 216.17 230.61 217.98 229.81 C 222.62 228.50 223.51 235.90 228.00 235.38 C 240.46 233.43 249.25 223.67 259.94 217.91 C 264.47 215.70 268.26 211.80 269.77 206.95 C 270.39 202.51 269.88 197.38 266.22 194.32 M 382.23 230.37 C 381.93 232.45 381.14 234.76 382.45 236.67 C 384.44 239.93 388.53 240.66 391.94 241.63 C 396.29 242.43 402.34 243.35 405.14 239.00 C 406.72 236.94 404.43 235.28 403.09 233.94 C 397.64 228.62 389.17 228.50 382.23 230.37 M 211.42 255.10 C 211.39 255.13 211.32 255.19 211.29 255.21 C 210.81 255.76 209.85 256.86 209.37 257.40 C 209.34 257.44 209.30 257.51 209.28 257.55 C 208.15 259.34 207.86 261.60 208.50 263.62 C 209.55 265.03 211.42 264.56 212.92 264.50 C 217.60 263.92 222.35 262.96 226.57 260.76 C 226.60 260.74 226.67 260.70 226.70 260.68 C 229.01 259.55 230.65 256.77 229.70 254.22 C 228.62 251.72 225.65 250.50 223.06 250.72 C 218.88 251.11 214.63 252.29 211.42 255.10 M 320.11 252.10 C 317.61 252.83 315.42 255.27 315.72 257.99 C 315.78 260.38 317.82 262.19 320.01 262.75 C 325.82 264.60 331.98 264.94 338.02 265.55 C 340.19 265.65 343.63 266.08 344.15 263.20 C 344.56 259.83 341.72 257.49 339.39 255.61 C 333.84 251.83 326.62 250.73 320.11 252.10 M 356.50 285.66 C 353.30 287.91 350.83 291.30 346.98 292.52 C 343.68 292.98 340.30 292.93 337.00 292.48 C 334.83 290.32 333.84 287.03 330.97 285.46 C 326.98 287.20 327.53 291.81 328.61 295.25 C 327.77 295.88 326.92 296.51 326.08 297.14 C 309.57 307.98 307.59 334.04 320.74 348.25 C 326.63 354.55 335.69 357.47 344.19 356.13 C 344.28 356.50 344.45 357.24 344.53 357.61 C 341.05 361.88 338.10 367.19 339.36 372.92 C 340.81 377.72 343.31 382.51 347.59 385.37 C 357.92 393.05 371.55 394.29 384.00 393.15 C 394.36 391.67 405.59 388.01 411.80 379.00 C 415.67 374.16 415.91 366.78 412.40 361.69 C 407.17 353.24 397.13 349.51 387.85 347.54 C 379.73 345.28 371.27 346.92 362.99 346.29 C 363.17 346.02 363.54 345.50 363.72 345.23 C 366.07 345.93 369.73 345.34 369.87 342.33 C 372.19 338.24 372.66 333.27 375.52 329.49 C 381.10 326.04 387.65 322.38 389.61 315.63 C 389.84 314.32 390.46 311.84 388.34 312.12 C 389.05 311.19 389.69 310.20 390.35 309.24 C 389.74 308.89 388.53 308.20 387.93 307.86 C 382.27 310.08 376.20 312.24 370.04 311.45 C 366.92 311.12 365.74 308.06 364.24 305.79 C 362.28 302.63 359.71 299.92 357.31 297.10 C 358.52 293.42 360.34 289.79 360.22 285.82 C 359.03 285.68 357.58 284.74 356.50 285.66 M 234.88 328.54 C 228.55 331.49 222.02 334.60 217.17 339.77 C 217.42 340.32 217.92 341.42 218.16 341.97 C 217.45 346.29 222.70 346.91 225.40 348.76 C 226.27 354.49 226.96 360.32 229.31 365.67 C 232.03 373.77 238.39 380.45 246.04 384.10 C 250.37 386.29 255.34 385.70 260.01 386.08 C 271.97 386.45 282.70 377.06 285.64 365.75 C 287.31 362.07 286.00 357.81 287.80 354.22 C 289.16 355.16 290.76 354.29 292.22 354.21 C 292.55 352.11 292.72 349.87 291.50 348.00 C 287.65 341.02 281.78 335.46 276.05 330.04 C 270.17 324.47 261.81 322.91 253.99 322.75 C 247.51 324.29 240.96 325.74 234.88 328.54 M 160.34 408.25 C 159.77 410.60 161.49 412.47 163.30 413.65 C 167.01 413.22 169.77 410.20 171.83 407.32 C 170.25 406.30 168.65 405.28 167.07 404.27 C 164.80 405.53 162.04 406.21 160.34 408.25 M 152.23 416.41 C 152.42 418.60 151.87 421.04 153.06 423.02 C 154.81 424.99 157.74 424.93 159.99 423.87 C 160.02 421.37 159.92 418.87 159.67 416.39 C 158.48 415.79 157.29 415.17 156.05 414.70 C 154.74 415.18 153.49 415.81 152.23 416.41 M 167.70 424.28 C 168.46 427.03 171.79 425.72 173.84 425.81 C 174.56 423.72 175.45 421.18 173.57 419.39 C 170.75 416.35 165.52 421.01 167.70 424.28 M 208.11 452.93 C 201.70 456.69 195.33 460.63 189.70 465.52 C 186.29 466.80 182.64 467.48 179.43 469.30 C 171.92 473.06 167.46 480.82 164.59 488.40 C 164.26 493.17 161.45 497.45 161.76 502.26 C 161.35 500.14 160.94 498.03 160.54 495.92 C 157.41 501.40 159.99 507.99 163.34 512.72 C 168.02 519.74 175.71 524.59 184.11 525.60 C 185.47 526.01 186.49 525.04 187.29 524.10 C 189.07 524.09 190.84 523.92 192.62 523.80 C 193.00 522.49 193.38 521.19 193.78 519.90 C 193.47 522.60 193.75 525.35 194.42 528.00 C 197.32 537.94 203.03 547.46 211.90 553.14 C 223.30 563.31 238.56 569.89 254.02 568.67 C 259.82 567.96 266.13 565.55 268.83 559.97 C 270.79 555.92 269.97 551.36 268.87 547.20 C 281.99 552.91 297.46 553.33 310.58 547.42 C 318.86 543.33 327.06 537.66 331.02 529.01 C 333.40 524.30 332.87 518.26 329.95 513.93 C 332.41 514.05 334.72 512.97 337.04 512.30 C 340.99 511.39 343.27 507.70 345.85 504.90 C 346.93 501.48 346.60 497.60 346.04 494.08 C 344.35 491.40 342.04 489.09 340.99 486.04 C 338.45 478.64 330.63 474.02 323.04 473.80 C 318.91 473.76 314.46 473.59 310.85 475.93 C 307.15 472.76 304.45 468.18 299.63 466.53 C 293.95 464.60 287.91 466.88 282.88 469.58 C 277.92 466.98 273.76 462.50 267.96 461.77 C 263.00 460.94 257.22 460.69 253.09 464.06 C 251.25 466.21 250.44 469.01 249.34 471.57 C 244.33 472.44 244.27 466.18 241.08 463.97 C 236.86 459.41 230.26 459.80 224.58 459.59 C 220.79 454.80 214.41 450.45 208.11 452.93 M 150.38 488.47 C 146.76 489.44 145.41 494.21 148.13 496.85 C 151.27 501.22 160.26 498.02 158.51 492.37 C 157.99 488.52 153.61 487.32 150.38 488.47 M 180.20 532.22 C 179.42 536.66 182.36 540.10 184.31 543.74 C 186.82 544.19 189.37 544.14 191.88 543.71 C 189.39 538.95 186.55 532.10 180.20 532.22 M 344.30 536.41 C 341.05 536.74 337.56 538.00 335.89 541.02 C 335.51 543.47 335.37 546.20 336.49 548.48 C 338.24 551.35 342.13 551.53 345.08 550.91 C 350.39 549.81 355.59 547.39 359.36 543.44 C 360.58 541.55 361.48 538.85 360.33 536.75 C 355.09 535.73 349.61 535.98 344.30 536.41 M 351.04 552.04 C 348.39 553.81 348.80 557.42 350.15 559.88 C 357.27 563.08 364.80 555.51 363.67 548.37 C 359.08 547.02 354.83 549.81 351.04 552.04 M 381.19 549.37 C 376.16 550.95 376.71 558.99 381.34 560.75 C 384.83 563.32 390.46 560.37 390.39 556.06 C 391.24 551.18 385.43 547.69 381.19 549.37 M 300.25 578.28 C 298.48 579.62 295.89 582.79 298.35 584.64 C 300.08 586.16 301.84 587.83 304.03 588.67 C 306.75 588.96 309.57 588.98 312.25 588.35 C 315.32 587.89 315.06 582.53 312.17 581.83 C 308.36 580.27 304.46 578.12 300.25 578.28 Z" />
</g>
<g id="#fcfdfdff">
<path fill="#fcfdfd" opacity="1.00" d=" M 196.86 242.60 C 215.77 221.36 239.76 204.73 266.22 194.32 C 269.88 197.38 270.39 202.51 269.77 206.95 C 268.26 211.80 264.47 215.70 259.94 217.91 C 249.25 223.67 240.46 233.43 228.00 235.38 C 223.51 235.90 222.62 228.50 217.98 229.81 C 216.17 230.61 214.85 232.15 213.44 233.48 C 209.17 237.85 204.73 242.03 200.49 246.43 C 195.18 251.92 191.20 258.49 186.50 264.48 C 180.28 272.26 175.67 281.12 170.48 289.57 C 168.58 293.20 165.71 296.67 165.62 300.94 C 166.62 301.81 167.79 302.46 168.99 303.04 C 166.66 302.45 164.31 301.93 161.93 301.57 C 162.42 302.98 162.90 304.42 163.45 305.82 C 159.33 309.97 158.55 316.00 156.07 321.08 C 153.39 326.47 151.86 332.31 149.49 337.82 C 148.47 340.16 147.99 342.68 147.58 345.19 C 145.21 347.21 142.92 349.34 140.47 351.26 C 144.41 336.01 149.68 321.12 156.03 306.70 C 157.31 304.12 158.55 301.53 159.67 298.88 C 169.58 278.63 181.68 259.32 196.86 242.60 Z" />
</g>
<g id="#fcfefeff">
<path fill="#fcfefe" opacity="1.00" d=" M 330.98 197.90 C 339.00 196.02 347.35 196.02 355.51 196.71 C 374.07 199.66 391.97 206.33 408.37 215.43 C 403.12 216.46 398.86 212.85 394.00 211.72 C 389.33 210.45 384.90 208.39 380.12 207.52 C 370.80 205.52 361.64 202.15 351.99 202.22 C 346.32 202.25 340.65 202.32 334.98 202.33 C 327.08 202.18 319.83 205.85 312.20 207.27 C 310.36 207.12 308.81 205.80 307.17 205.08 L 308.06 204.64 C 315.34 201.27 323.19 199.59 330.98 197.90 Z" />
</g>
<g id="#2d210cff">
<path fill="#2d210c" opacity="1.00" d=" M 490.10 217.43 C 490.21 211.05 490.31 204.60 491.71 198.34 C 493.15 204.70 492.19 211.34 490.10 217.43 Z" />
</g>
<g id="#261b00ff">
<path fill="#261b00" opacity="1.00" d=" M 488.32 199.54 C 489.48 203.28 489.44 207.62 488.28 211.40 C 487.93 207.45 488.02 203.49 488.32 199.54 Z" />
</g>
<g id="#fff59cff">
<path fill="#fff59c" opacity="1.00" d=" M 286.56 209.33 C 294.40 208.55 300.73 203.54 307.85 200.74 C 308.35 200.82 309.33 200.99 309.82 201.08 C 309.25 202.27 308.67 203.46 308.06 204.64 L 307.17 205.08 C 302.69 207.19 298.15 209.27 293.34 210.50 C 291.00 211.24 288.74 210.03 286.56 209.33 Z" />
</g>
<g id="#eab193ff">
<path fill="#eab193" opacity="1.00" d=" M 411.44 206.67 C 411.69 206.77 412.21 206.98 412.47 207.08 C 427.93 214.37 442.32 223.83 455.19 235.07 C 455.86 235.68 456.53 236.29 457.19 236.92 C 494.99 271.83 516.80 321.52 523.24 372.06 C 524.50 381.00 525.26 390.01 526.34 398.97 C 529.48 394.75 529.13 389.25 529.28 384.27 C 531.34 385.57 533.37 386.93 535.37 388.32 C 537.66 393.47 543.38 397.59 542.10 403.95 C 538.09 407.29 533.06 409.62 527.79 409.90 C 522.36 407.72 516.94 405.54 511.59 403.17 C 511.36 396.77 511.95 390.36 511.21 383.99 C 510.60 379.66 509.98 375.34 509.72 370.98 C 505.03 332.73 492.74 294.68 469.48 263.57 C 459.90 250.53 447.41 239.95 434.11 230.87 C 426.88 225.19 418.82 220.79 410.93 216.14 C 411.14 212.98 411.29 209.83 411.44 206.67 Z" />
</g>
<g id="#490e0bff">
<path fill="#490e0b" opacity="1.00" d=" M 412.47 207.08 C 421.18 206.90 427.66 214.55 436.42 213.99 C 442.67 218.17 449.48 221.74 454.58 227.41 C 455.02 229.94 455.24 232.50 455.19 235.07 C 442.32 223.83 427.93 214.37 412.47 207.08 Z" />
</g>
<g id="#49100eff">
<path fill="#49100e" opacity="1.00" d=" M 457.19 236.92 C 462.96 237.06 465.51 246.33 471.83 243.56 C 472.74 244.55 473.69 245.53 474.61 246.53 C 498.36 273.32 514.79 306.35 523.03 341.12 C 521.34 341.26 522.04 343.31 523.19 343.72 C 524.78 345.33 524.42 347.96 524.90 350.05 C 523.36 351.21 523.82 353.27 525.36 354.17 L 526.01 354.75 C 527.35 361.79 528.11 368.93 529.06 376.02 C 530.92 378.66 534.26 379.98 536.97 381.70 L 537.49 382.03 C 537.76 379.68 538.01 377.32 538.30 374.98 C 538.84 376.75 539.40 378.52 539.83 380.34 C 539.87 381.84 539.68 383.39 540.11 384.87 C 541.12 386.45 542.88 387.33 544.42 388.32 C 546.36 389.44 548.30 390.58 550.17 391.85 C 549.58 393.48 548.99 395.11 548.48 396.76 C 544.21 393.79 539.79 391.05 535.37 388.32 C 533.37 386.93 531.34 385.57 529.28 384.27 C 529.13 389.25 529.48 394.75 526.34 398.97 C 525.26 390.01 524.50 381.00 523.24 372.06 C 516.80 321.52 494.99 271.83 457.19 236.92 Z" />
</g>
<g id="#de140cff">
<path fill="#de140c" opacity="1.00" d=" M 211.42 255.10 C 214.63 252.29 218.88 251.11 223.06 250.72 C 225.65 250.50 228.62 251.72 229.70 254.22 C 230.65 256.77 229.01 259.55 226.70 260.68 C 226.67 260.70 226.60 260.74 226.57 260.76 C 222.35 262.96 217.60 263.92 212.92 264.50 C 211.42 264.56 209.55 265.03 208.50 263.62 C 207.86 261.60 208.15 259.34 209.28 257.55 C 209.30 257.51 209.34 257.44 209.37 257.40 C 209.85 256.86 210.81 255.76 211.29 255.21 C 211.32 255.19 211.39 255.13 211.42 255.10 Z" />
</g>
<g id="#de1510ff">
<path fill="#de1510" opacity="1.00" d=" M 320.11 252.10 C 326.62 250.73 333.84 251.83 339.39 255.61 C 341.72 257.49 344.56 259.83 344.15 263.20 C 343.63 266.08 340.19 265.65 338.02 265.55 C 331.98 264.94 325.82 264.60 320.01 262.75 C 317.82 262.19 315.78 260.38 315.72 257.99 C 315.42 255.27 317.61 252.83 320.11 252.10 Z" />
</g>
<g id="#813f27ff">
<path fill="#813f27" opacity="1.00" d=" M 211.29 255.21 C 211.32 255.19 211.39 255.13 211.42 255.10 C 211.39 255.13 211.32 255.19 211.29 255.21 Z" />
</g>
<g id="#976f55ff">
<path fill="#976f55" opacity="1.00" d=" M 209.28 257.55 C 209.30 257.51 209.34 257.44 209.37 257.40 C 209.34 257.44 209.30 257.51 209.28 257.55 Z" />
</g>
<g id="#935b42ff">
<path fill="#935b42" opacity="1.00" d=" M 226.57 260.76 C 226.60 260.74 226.67 260.70 226.70 260.68 C 226.67 260.70 226.60 260.74 226.57 260.76 Z" />
</g>
<g id="#360a05ff">
<path fill="#360a05" opacity="1.00" d=" M 188.81 281.65 C 194.97 280.83 194.58 290.21 199.97 290.97 C 202.58 289.47 204.19 286.83 206.06 284.57 C 207.17 285.34 209.16 285.42 209.46 287.01 C 209.60 289.00 209.19 290.98 208.92 292.95 C 215.84 299.60 218.79 309.62 218.03 319.03 C 217.05 328.09 213.76 337.57 206.41 343.41 C 201.79 347.14 195.57 348.32 189.78 347.37 C 186.51 345.70 183.42 343.71 180.29 341.81 C 178.13 340.28 176.81 337.92 175.84 335.53 C 175.81 333.92 175.82 332.33 175.80 330.74 C 175.72 325.12 177.30 319.07 175.04 313.74 C 174.84 313.32 174.43 312.46 174.23 312.03 C 174.17 311.85 174.07 311.50 174.02 311.33 C 169.98 310.68 166.13 309.01 163.45 305.82 C 162.90 304.42 162.42 302.98 161.93 301.57 C 164.31 301.93 166.66 302.45 168.99 303.04 C 172.57 304.05 177.07 303.66 179.49 300.52 C 182.26 296.92 185.65 293.89 189.38 291.30 C 188.71 288.12 188.68 284.87 188.81 281.65 M 197.15 295.12 C 193.70 295.46 191.48 299.01 190.50 302.05 C 189.72 306.42 189.66 311.61 192.95 315.04 C 194.75 317.29 198.46 317.50 200.54 315.52 C 204.95 311.60 205.73 304.63 203.34 299.42 C 202.24 297.07 199.95 294.76 197.15 295.12 M 181.74 324.65 C 184.50 325.23 187.30 325.60 190.12 325.77 C 189.21 323.95 187.98 322.05 185.95 321.39 C 183.83 320.87 182.47 323.00 181.74 324.65 M 204.65 333.51 C 204.26 334.21 203.88 334.91 203.50 335.62 C 203.81 336.12 204.42 337.13 204.73 337.64 C 205.64 337.47 206.55 337.36 207.48 337.30 C 207.28 335.99 207.12 334.67 207.02 333.35 C 206.43 333.39 205.24 333.47 204.65 333.51 Z" />
</g>
<g id="#482424ff">
<path fill="#482424" opacity="1.00" d=" M 153.91 300.40 C 155.58 298.05 157.45 295.84 159.61 293.92 C 159.40 295.57 159.40 297.23 159.67 298.88 C 158.55 301.53 157.31 304.12 156.03 306.70 C 154.44 307.61 153.39 309.09 152.42 310.59 C 151.65 309.14 150.86 307.70 150.07 306.27 C 151.15 303.80 152.25 301.34 153.52 298.96 L 153.91 300.40 Z" />
</g>
<g id="#fcfdfcff">
<path fill="#fcfdfc" opacity="1.00" d=" M 197.15 295.12 C 199.95 294.76 202.24 297.07 203.34 299.42 C 205.73 304.63 204.95 311.60 200.54 315.52 C 198.46 317.50 194.75 317.29 192.95 315.04 C 189.66 311.61 189.72 306.42 190.50 302.05 C 191.48 299.01 193.70 295.46 197.15 295.12 Z" />
</g>
<g id="#fbfefdff">
<path fill="#fbfefd" opacity="1.00" d=" M 329.02 309.97 C 329.10 303.23 336.34 297.46 342.90 299.73 C 349.10 301.63 352.85 308.93 350.90 315.09 C 349.65 320.21 344.44 324.43 339.04 323.56 C 334.91 323.12 331.97 319.86 329.78 316.62 C 329.37 314.43 329.08 312.20 329.02 309.97 Z" />
</g>
<g id="#fbeacfff">
<path fill="#fbeacf" opacity="1.00" d=" M 156.07 321.08 C 158.55 316.00 159.33 309.97 163.45 305.82 C 166.13 309.01 169.98 310.68 174.02 311.33 C 174.07 311.50 174.17 311.85 174.23 312.03 C 173.07 319.81 172.37 328.20 175.84 335.53 C 176.81 337.92 178.13 340.28 180.29 341.81 C 169.58 337.63 157.73 340.95 147.58 345.19 C 147.99 342.68 148.47 340.16 149.49 337.82 C 151.86 332.31 153.39 326.47 156.07 321.08 Z" />
</g>
<g id="#341210ff">
<path fill="#341210" opacity="1.00" d=" M 150.07 306.27 C 150.86 307.70 151.65 309.14 152.42 310.59 C 153.39 309.09 154.44 307.61 156.03 306.70 C 149.68 321.12 144.41 336.01 140.47 351.26 C 137.67 358.23 137.01 365.77 135.72 373.11 L 135.41 372.85 C 135.20 372.69 134.77 372.37 134.56 372.21 C 133.41 374.35 134.14 376.76 134.80 378.94 L 134.72 379.34 C 132.51 382.00 132.76 385.61 133.90 388.67 C 133.24 394.60 133.35 400.58 132.78 406.52 C 130.34 409.09 131.16 412.75 131.12 415.96 C 130.64 416.14 129.67 416.50 129.18 416.68 C 129.29 412.10 129.24 407.50 128.61 402.96 C 127.63 410.97 129.26 419.15 127.21 427.05 L 126.75 425.75 C 126.54 408.11 126.85 390.37 129.84 372.93 C 133.52 349.92 140.69 327.56 150.07 306.27 Z" />
</g>
<g id="#471b18ff">
<path fill="#471b18" opacity="1.00" d=" M 321.68 318.66 C 324.32 315.94 326.42 312.74 329.02 309.97 C 329.08 312.20 329.37 314.43 329.78 316.62 C 329.94 318.00 330.47 319.34 330.46 320.74 C 326.18 321.49 324.68 326.17 321.39 328.41 C 319.85 328.83 318.39 327.66 316.97 327.23 C 317.76 328.44 318.54 329.66 319.14 331.00 C 317.84 332.27 315.81 332.28 314.16 332.86 C 314.00 330.84 313.50 328.82 313.75 326.81 C 315.66 323.44 318.82 321.14 321.68 318.66 Z" />
</g>
<g id="#4b1a13ff">
<path fill="#4b1a13" opacity="1.00" d=" M 557.24 322.34 C 561.40 317.16 566.26 311.84 572.92 310.09 C 577.47 308.77 582.59 310.88 585.26 314.71 C 589.10 319.66 590.43 325.97 591.24 332.04 C 592.00 339.25 592.12 346.63 590.61 353.75 C 590.92 354.10 591.54 354.80 591.85 355.14 L 591.97 355.77 L 590.17 356.91 C 589.87 353.07 589.06 349.30 588.21 345.55 C 587.92 340.22 588.50 334.78 587.02 329.58 C 586.03 324.88 584.89 319.97 581.55 316.33 C 579.52 314.46 576.69 313.25 573.93 314.01 C 569.12 315.08 565.65 318.97 562.56 322.54 C 555.51 331.23 549.94 341.14 545.86 351.54 C 542.48 360.78 540.68 370.55 539.83 380.34 C 539.40 378.52 538.84 376.75 538.30 374.98 C 538.01 377.32 537.76 379.68 537.49 382.03 L 536.97 381.70 C 536.43 379.87 536.70 377.94 536.78 376.08 C 538.42 356.72 545.74 337.95 557.24 322.34 M 589.36 331.38 C 588.57 332.95 588.37 335.15 589.31 336.71 C 590.68 335.96 590.50 332.21 589.36 331.38 Z" />
</g>
<g id="#ebc4abff">
<path fill="#ebc4ab" opacity="1.00" d=" M 388.34 312.12 C 390.46 311.84 389.84 314.32 389.61 315.63 C 387.65 322.38 381.10 326.04 375.52 329.49 C 372.66 333.27 372.19 338.24 369.87 342.33 C 369.46 334.62 373.35 327.39 372.11 319.66 C 378.33 319.79 384.54 317.09 388.34 312.12 Z" />
</g>
<g id="#190704ff">
<path fill="#190704" opacity="1.00" d=" M 174.23 312.03 C 174.43 312.46 174.84 313.32 175.04 313.74 C 175.36 319.41 174.36 325.17 175.80 330.74 C 175.82 332.33 175.81 333.92 175.84 335.53 C 172.37 328.20 173.07 319.81 174.23 312.03 Z" />
</g>
<g id="#331f16ff">
<path fill="#331f16" opacity="1.00" d=" M 175.04 313.74 C 177.30 319.07 175.72 325.12 175.80 330.74 C 174.36 325.17 175.36 319.41 175.04 313.74 Z" />
</g>
<g id="#ffd191ff">
<path fill="#ffd191" opacity="1.00" d=" M 562.56 322.54 C 565.65 318.97 569.12 315.08 573.93 314.01 C 576.69 313.25 579.52 314.46 581.55 316.33 C 581.30 318.48 578.85 318.59 577.30 319.40 C 573.68 320.65 570.66 323.08 567.92 325.68 C 566.72 325.99 565.99 326.75 565.73 327.96 C 560.90 331.84 557.79 337.28 554.23 342.24 C 551.14 346.56 548.99 351.42 546.43 356.04 C 546.22 354.54 546.01 353.03 545.86 351.54 C 549.94 341.14 555.51 331.23 562.56 322.54 Z" />
<path fill="#ffd191" opacity="1.00" d=" M 610.12 347.37 C 620.76 341.24 632.63 336.67 645.01 336.17 C 649.59 335.88 654.14 337.87 657.15 341.32 L 657.17 342.39 C 650.42 342.38 643.56 342.03 636.98 343.88 C 621.90 347.86 608.57 356.66 596.80 366.66 C 590.14 371.63 584.47 377.75 578.40 383.38 C 576.75 384.92 574.79 386.06 572.85 387.17 C 573.10 385.15 573.33 383.13 573.73 381.14 C 574.85 379.52 575.99 377.92 577.17 376.35 C 586.00 364.54 597.40 354.78 610.12 347.37 Z" />
</g>
<g id="#ffa2a4ff">
<path fill="#ffa2a4" opacity="1.00" d=" M 368.28 319.65 C 369.24 319.65 371.16 319.66 372.11 319.66 C 373.35 327.39 369.46 334.62 369.87 342.33 C 369.73 345.34 366.07 345.93 363.72 345.23 C 368.39 337.64 369.94 328.38 368.28 319.65 Z" />
</g>
<g id="#f5cca7ff">
<path fill="#f5cca7" opacity="1.00" d=" M 181.74 324.65 C 182.47 323.00 183.83 320.87 185.95 321.39 C 187.98 322.05 189.21 323.95 190.12 325.77 C 187.30 325.60 184.50 325.23 181.74 324.65 Z" />
</g>
<g id="#45130dff">
<path fill="#45130d" opacity="1.00" d=" M 234.88 328.54 C 240.96 325.74 247.51 324.29 253.99 322.75 C 261.81 322.91 270.17 324.47 276.05 330.04 C 281.78 335.46 287.65 341.02 291.50 348.00 C 292.72 349.87 292.55 352.11 292.22 354.21 C 290.76 354.29 289.16 355.16 287.80 354.22 C 287.32 354.02 286.37 353.62 285.89 353.42 C 285.87 352.80 285.84 351.56 285.82 350.94 C 286.12 350.40 286.73 349.32 287.04 348.77 C 284.98 343.62 281.05 339.58 277.16 335.76 C 272.74 331.50 267.15 328.08 260.92 327.52 C 250.80 326.45 240.45 328.90 231.64 333.94 C 228.12 335.71 224.54 337.44 221.48 339.96 C 221.93 340.10 222.83 340.39 223.28 340.54 C 227.74 342.18 232.59 342.12 237.11 343.56 C 244.72 345.89 252.54 347.51 260.05 350.19 C 266.31 352.49 273.83 352.30 279.42 348.37 L 279.98 348.02 C 280.59 347.93 281.82 347.76 282.43 347.68 C 281.47 352.53 276.43 354.79 272.01 355.48 C 264.19 356.56 256.77 353.19 249.54 350.71 C 243.22 348.72 236.88 346.59 230.29 345.69 C 231.31 347.79 232.39 349.88 233.37 352.03 C 236.95 361.24 240.54 370.86 247.77 377.92 C 249.78 379.75 252.30 381.12 255.05 381.33 C 261.92 380.86 268.71 378.38 273.94 373.83 C 275.76 372.05 277.51 370.19 279.07 368.17 C 281.93 364.66 282.75 360.04 285.30 356.34 C 284.07 364.50 280.27 372.46 273.87 377.82 C 268.62 382.21 261.98 385.56 254.97 385.07 C 248.41 384.26 242.98 379.76 239.30 374.49 C 233.15 365.79 230.43 355.30 227.55 345.19 C 224.33 344.44 220.98 343.82 218.16 341.97 C 217.92 341.42 217.42 340.32 217.17 339.77 C 222.02 334.60 228.55 331.49 234.88 328.54 Z" />
</g>
<g id="#ff9934ff">
<path fill="#ff9934" opacity="1.00" d=" M 565.73 327.96 C 565.99 326.75 566.72 325.99 567.92 325.68 C 568.06 327.28 567.33 328.04 565.73 327.96 Z" />
</g>
<g id="#fe493bff">
<path fill="#fe493b" opacity="1.00" d=" M 231.64 333.94 C 240.45 328.90 250.80 326.45 260.92 327.52 C 267.15 328.08 272.74 331.50 277.16 335.76 C 281.05 339.58 284.98 343.62 287.04 348.77 C 286.73 349.32 286.12 350.40 285.82 350.94 C 285.84 351.56 285.87 352.80 285.89 353.42 C 285.71 354.39 285.52 355.36 285.30 356.34 C 282.75 360.04 281.93 364.66 279.07 368.17 C 277.51 370.19 275.76 372.05 273.94 373.83 C 272.02 372.33 271.54 369.97 271.28 367.70 C 272.17 366.75 273.06 365.80 273.95 364.86 C 273.92 364.26 273.86 363.06 273.83 362.47 C 265.40 363.09 257.40 359.88 249.96 356.32 C 244.42 354.88 239.28 351.38 233.37 352.03 C 232.39 349.88 231.31 347.79 230.29 345.69 C 236.88 346.59 243.22 348.72 249.54 350.71 C 256.77 353.19 264.19 356.56 272.01 355.48 C 276.43 354.79 281.47 352.53 282.43 347.68 C 281.82 347.76 280.59 347.93 279.98 348.02 C 280.25 347.52 280.79 346.52 281.07 346.02 C 276.80 338.04 269.12 331.43 260.04 329.90 C 250.34 328.84 241.20 333.20 231.64 333.94 Z" />
</g>
<g id="#fcab5aff">
<path fill="#fcab5a" opacity="1.00" d=" M 231.64 333.94 C 241.20 333.20 250.34 328.84 260.04 329.90 C 269.12 331.43 276.80 338.04 281.07 346.02 C 280.79 346.52 280.25 347.52 279.98 348.02 L 279.42 348.37 C 273.26 348.26 266.95 348.97 260.97 347.09 C 253.23 344.54 244.76 345.01 237.32 341.45 C 232.92 339.32 227.90 338.76 223.28 340.54 C 222.83 340.39 221.93 340.10 221.48 339.96 C 224.54 337.44 228.12 335.71 231.64 333.94 Z" />
</g>
<g id="#f39d02ff">
<path fill="#f39d02" opacity="1.00" d=" M 587.02 329.58 C 588.50 334.78 587.92 340.22 588.21 345.55 C 587.86 350.15 586.80 354.71 584.96 358.95 C 582.68 363.73 579.10 367.70 575.94 371.89 C 576.28 370.31 576.16 368.57 577.12 367.19 C 584.10 356.07 588.89 342.87 587.02 329.58 Z" />
</g>
<g id="#f2c7c0ff">
<path fill="#f2c7c0" opacity="1.00" d=" M 325.29 331.38 C 327.99 331.80 329.29 336.43 326.01 336.79 C 323.14 336.23 322.70 332.75 325.29 331.38 Z" />
</g>
<g id="#64352dff">
<path fill="#64352d" opacity="1.00" d=" M 589.36 331.38 C 590.50 332.21 590.68 335.96 589.31 336.71 C 588.37 335.15 588.57 332.95 589.36 331.38 Z" />
</g>
<g id="#48140eff">
<path fill="#48140e" opacity="1.00" d=" M 636.95 332.03 C 644.39 330.89 652.96 330.88 659.07 335.94 C 663.54 339.56 664.94 345.56 665.14 351.05 C 664.76 359.99 661.86 368.64 657.74 376.53 C 652.38 387.60 644.72 397.44 635.89 405.95 C 639.78 405.32 643.63 404.29 647.59 404.20 C 645.93 405.17 644.22 406.02 642.40 406.63 C 642.25 407.18 641.95 408.27 641.79 408.82 C 636.90 409.73 632.08 411.00 627.30 412.38 C 624.83 413.09 622.31 413.62 619.79 414.10 C 631.74 405.00 642.41 394.05 650.35 381.25 C 654.45 375.05 657.42 368.17 659.59 361.08 C 660.78 355.42 660.65 349.44 659.32 343.82 C 658.61 342.96 657.89 342.12 657.15 341.32 C 654.14 337.87 649.59 335.88 645.01 336.17 C 632.63 336.67 620.76 341.24 610.12 347.37 C 597.40 354.78 586.00 364.54 577.17 376.35 C 576.41 375.55 575.65 374.74 574.89 373.94 C 575.10 373.54 575.51 372.74 575.72 372.34 L 575.94 371.89 C 579.10 367.70 582.68 363.73 584.96 358.95 C 586.80 354.71 587.86 350.15 588.21 345.55 C 589.06 349.30 589.87 353.07 590.17 356.91 L 591.97 355.77 L 591.85 355.14 L 592.06 354.42 C 604.74 343.23 620.32 335.26 636.95 332.03 Z" />
</g>
<g id="#fb9fa4ff">
<path fill="#fb9fa4" opacity="1.00" d=" M 147.58 345.19 C 157.73 340.95 169.58 337.63 180.29 341.81 C 183.42 343.71 186.51 345.70 189.78 347.37 C 191.33 349.68 193.26 351.78 194.35 354.37 C 195.38 358.78 195.03 363.70 192.47 367.56 C 187.21 376.13 177.47 380.70 167.89 382.51 C 158.58 384.27 148.45 383.11 140.28 378.10 C 138.76 376.43 137.35 374.66 135.72 373.11 C 137.01 365.77 137.67 358.23 140.47 351.26 C 142.92 349.34 145.21 347.21 147.58 345.19 Z" />
<path fill="#fb9fa4" opacity="1.00" d=" M 353.16 350.49 C 356.51 349.27 360.05 348.40 362.99 346.29 C 371.27 346.92 379.73 345.28 387.85 347.54 C 397.13 349.51 407.17 353.24 412.40 361.69 C 415.91 366.78 415.67 374.16 411.80 379.00 C 405.59 388.01 394.36 391.67 384.00 393.15 C 371.55 394.29 357.92 393.05 347.59 385.37 C 343.31 382.51 340.81 377.72 339.36 372.92 C 338.10 367.19 341.05 361.88 344.53 357.61 C 344.45 357.24 344.28 356.50 344.19 356.13 C 344.63 356.08 345.51 355.99 345.95 355.95 C 348.08 353.82 350.25 351.52 353.16 350.49 M 353.21 353.29 C 349.89 354.40 346.43 358.02 348.41 361.70 C 352.44 365.36 359.66 361.93 360.76 356.98 C 361.29 352.94 356.11 351.62 353.21 353.29 Z" />
</g>
<g id="#e96e31ff">
<path fill="#e96e31" opacity="1.00" d=" M 223.28 340.54 C 227.90 338.76 232.92 339.32 237.32 341.45 C 244.76 345.01 253.23 344.54 260.97 347.09 C 266.95 348.97 273.26 348.26 279.42 348.37 C 273.83 352.30 266.31 352.49 260.05 350.19 C 252.54 347.51 244.72 345.89 237.11 343.56 C 232.59 342.12 227.74 342.18 223.28 340.54 Z" />
</g>
<g id="#f0c9b5ff">
<path fill="#f0c9b5" opacity="1.00" d=" M 352.39 344.67 C 352.49 343.10 351.88 340.29 354.11 340.03 C 356.59 339.81 356.64 342.80 356.63 344.52 C 355.21 344.57 353.80 344.63 352.39 344.67 Z" />
</g>
<g id="#170100ff">
<path fill="#170100" opacity="1.00" d=" M 523.19 343.72 C 522.04 343.31 521.34 341.26 523.03 341.12 C 523.07 341.77 523.15 343.07 523.19 343.72 Z" />
</g>
<g id="#edc5afff">
<path fill="#edc5af" opacity="1.00" d=" M 218.16 341.97 C 220.98 343.82 224.33 344.44 227.55 345.19 C 230.43 355.30 233.15 365.79 239.30 374.49 C 242.98 379.76 248.41 384.26 254.97 385.07 C 261.98 385.56 268.62 382.21 273.87 377.82 C 280.27 372.46 284.07 364.50 285.30 356.34 C 285.52 355.36 285.71 354.39 285.89 353.42 C 286.37 353.62 287.32 354.02 287.80 354.22 C 286.00 357.81 287.31 362.07 285.64 365.75 C 282.70 377.06 271.97 386.45 260.01 386.08 C 255.34 385.70 250.37 386.29 246.04 384.10 C 238.39 380.45 232.03 373.77 229.31 365.67 C 226.96 360.32 226.27 354.49 225.40 348.76 C 222.70 346.91 217.45 346.29 218.16 341.97 Z" />
</g>
<g id="#f49802ff">
<path fill="#f49802" opacity="1.00" d=" M 659.32 343.82 C 660.65 349.44 660.78 355.42 659.59 361.08 C 657.42 368.17 654.45 375.05 650.35 381.25 C 649.79 380.11 649.24 378.96 648.69 377.82 C 650.71 375.19 652.67 372.32 652.93 368.91 C 654.83 367.32 656.80 365.57 657.32 363.02 C 658.85 356.76 659.17 350.25 659.32 343.82 Z" />
</g>
<g id="#221211ff">
<path fill="#221211" opacity="1.00" d=" M 525.36 354.17 C 523.82 353.27 523.36 351.21 524.90 350.05 C 525.75 351.09 526.16 352.99 525.36 354.17 Z" />
</g>
<g id="#eb6f29ff">
<path fill="#eb6f29" opacity="1.00" d=" M 233.37 352.03 C 239.28 351.38 244.42 354.88 249.96 356.32 C 257.40 359.88 265.40 363.09 273.83 362.47 C 273.86 363.06 273.92 364.26 273.95 364.86 C 273.06 365.80 272.17 366.75 271.28 367.70 C 267.96 371.23 264.60 374.94 260.16 377.08 C 256.31 379.00 251.89 377.92 247.77 377.92 C 240.54 370.86 236.95 361.24 233.37 352.03 Z" />
</g>
<g id="#fcfffeff">
<path fill="#fcfffe" opacity="1.00" d=" M 353.21 353.29 C 356.11 351.62 361.29 352.94 360.76 356.98 C 359.66 361.93 352.44 365.36 348.41 361.70 C 346.43 358.02 349.89 354.40 353.21 353.29 Z" />
</g>
<g id="#e9a600ff">
<path fill="#e9a600" opacity="1.00" d=" M 557.54 364.44 C 559.18 362.28 561.91 360.20 564.76 361.34 C 569.11 363.15 571.35 367.61 573.46 371.53 C 574.03 371.74 575.15 372.14 575.72 372.34 C 575.51 372.74 575.10 373.54 574.89 373.94 C 569.71 381.98 564.38 389.94 559.78 398.33 C 556.46 396.34 553.32 394.08 550.17 391.85 C 548.30 390.58 546.36 389.44 544.42 388.32 C 546.54 387.46 547.35 385.25 548.22 383.33 C 550.96 376.88 553.21 370.05 557.54 364.44 Z" />
</g>
<g id="#ff564aff">
<path fill="#ff564a" opacity="1.00" d=" M 260.16 377.08 C 264.60 374.94 267.96 371.23 271.28 367.70 C 271.54 369.97 272.02 372.33 273.94 373.83 C 268.71 378.38 261.92 380.86 255.05 381.33 C 252.30 381.12 249.78 379.75 247.77 377.92 C 251.89 377.92 256.31 379.00 260.16 377.08 Z" />
</g>
<g id="#100400ff">
<path fill="#100400" opacity="1.00" d=" M 134.56 372.21 C 134.77 372.37 135.20 372.69 135.41 372.85 C 135.74 374.89 135.28 376.95 134.80 378.94 C 134.14 376.76 133.41 374.35 134.56 372.21 Z" />
</g>
<g id="#fcfefcff">
<path fill="#fcfefc" opacity="1.00" d=" M 135.41 372.85 L 135.72 373.11 C 137.35 374.66 138.76 376.43 140.28 378.10 C 140.45 394.74 140.42 411.39 140.32 428.03 C 140.27 433.35 139.28 438.62 139.41 443.95 C 139.57 448.94 136.43 453.11 134.83 457.64 C 133.39 448.13 133.40 438.52 132.90 428.94 C 132.30 421.49 132.47 413.99 132.78 406.52 C 133.35 400.58 133.24 394.60 133.90 388.67 C 134.23 385.56 134.45 382.45 134.72 379.34 L 134.80 378.94 C 135.28 376.95 135.74 374.89 135.41 372.85 Z" />
</g>
<g id="#4f3900ff">
<path fill="#4f3900" opacity="1.00" d=" M 559.78 398.33 C 564.38 389.94 569.71 381.98 574.89 373.94 C 575.65 374.74 576.41 375.55 577.17 376.35 C 575.99 377.92 574.85 379.52 573.73 381.14 C 569.19 387.12 564.60 393.26 561.78 400.28 C 564.71 401.91 567.20 404.17 569.70 406.38 C 581.50 416.20 591.65 427.90 600.47 440.44 C 609.34 453.02 615.43 467.38 619.39 482.22 C 619.88 484.76 620.39 487.30 621.19 489.78 C 619.86 489.58 618.55 489.41 617.23 489.24 C 616.90 488.09 616.57 486.94 616.25 485.80 C 616.15 486.40 615.96 487.58 615.86 488.18 C 611.52 470.05 603.76 452.59 592.03 438.01 C 579.94 421.97 564.92 408.24 548.48 396.76 C 548.99 395.11 549.58 393.48 550.17 391.85 C 553.32 394.08 556.46 396.34 559.78 398.33 Z" />
</g>
<g id="#e8a600ff">
<path fill="#e8a600" opacity="1.00" d=" M 620.53 406.46 C 631.54 398.68 640.72 388.64 648.69 377.82 C 649.24 378.96 649.79 380.11 650.35 381.25 C 642.41 394.05 631.74 405.00 619.79 414.10 C 622.31 413.62 624.83 413.09 627.30 412.38 L 628.40 413.04 C 629.53 413.76 630.61 414.54 631.72 415.33 C 622.94 418.97 614.94 424.58 609.21 432.23 C 607.31 435.01 607.88 439.34 610.75 441.29 C 615.74 445.09 621.82 447.29 627.96 448.37 C 639.04 450.06 650.60 449.84 661.31 446.29 C 666.63 444.67 671.42 441.74 676.65 439.89 C 673.67 443.75 670.41 447.56 666.14 450.04 C 664.38 451.06 662.67 452.20 661.38 453.79 C 654.51 457.22 647.35 460.16 639.83 461.79 C 638.20 462.08 636.66 462.64 635.20 463.40 C 635.76 463.58 636.89 463.93 637.45 464.11 C 639.67 466.55 641.91 468.98 644.46 471.10 C 643.07 470.84 641.68 470.67 640.32 470.40 C 639.08 470.08 637.86 469.71 636.65 469.37 C 636.25 470.25 635.87 471.14 635.49 472.04 C 630.45 475.44 625.66 479.24 621.55 483.74 C 621.12 482.44 620.70 481.14 620.28 479.84 C 620.06 480.44 619.61 481.62 619.39 482.22 C 615.43 467.38 609.34 453.02 600.47 440.44 C 591.65 427.90 581.50 416.20 569.70 406.38 C 567.20 404.17 564.71 401.91 561.78 400.28 C 567.03 399.95 570.10 394.78 575.05 393.70 C 576.76 395.69 577.39 398.31 578.49 400.65 C 581.77 408.69 590.41 414.02 599.03 413.86 C 606.82 414.05 614.07 410.47 620.53 406.46 Z" />
</g>
<g id="#140000ff">
<path fill="#140000" opacity="1.00" d=" M 133.90 388.67 C 132.76 385.61 132.51 382.00 134.72 379.34 C 134.45 382.45 134.23 385.56 133.90 388.67 Z" />
</g>
<g id="#48100bff">
<path fill="#48100b" opacity="1.00" d=" M 511.21 383.99 C 511.95 390.36 511.36 396.77 511.59 403.17 C 516.94 405.54 522.36 407.72 527.79 409.90 C 539.53 415.79 551.55 422.89 558.76 434.22 C 558.94 437.14 559.39 440.09 559.02 443.02 C 558.43 446.56 556.43 449.63 554.65 452.68 C 564.44 459.13 574.45 467.91 576.29 480.13 C 577.28 485.76 574.47 490.79 572.09 495.62 C 573.50 497.00 575.09 498.18 576.65 499.39 C 583.05 504.09 588.47 510.52 590.72 518.26 C 592.20 523.02 591.59 528.07 591.09 532.94 C 597.59 539.56 604.91 547.07 605.07 556.99 C 605.02 568.68 597.42 578.83 588.50 585.70 C 576.98 595.25 561.91 599.84 547.05 599.67 C 548.57 605.45 550.61 611.08 552.58 616.72 C 571.33 610.09 587.48 597.25 599.42 581.48 C 610.06 567.50 616.06 550.45 618.21 533.12 L 619.50 532.07 C 620.09 522.08 619.93 512.02 619.73 502.01 C 619.38 502.53 618.67 503.59 618.32 504.12 C 617.72 498.77 616.91 493.45 615.86 488.18 C 615.96 487.58 616.15 486.40 616.25 485.80 C 616.57 486.94 616.90 488.09 617.23 489.24 C 618.55 489.41 619.86 489.58 621.19 489.78 C 621.27 490.03 621.43 490.55 621.50 490.81 C 622.04 493.96 622.42 497.13 622.83 500.30 C 633.89 500.18 645.89 498.67 654.93 491.75 C 657.96 489.53 659.94 485.73 659.22 481.93 C 658.49 478.89 656.48 476.37 654.26 474.27 C 649.74 469.43 644.31 464.83 637.45 464.11 C 636.89 463.93 635.76 463.58 635.20 463.40 C 636.66 462.64 638.20 462.08 639.83 461.79 C 647.35 460.16 654.51 457.22 661.38 453.79 C 667.86 450.91 673.39 446.29 678.51 441.46 C 681.57 438.42 684.74 435.33 686.71 431.44 C 688.10 428.54 687.97 425.23 688.01 422.09 L 688.75 422.28 C 689.23 424.20 689.64 426.15 690.00 428.11 C 690.69 426.17 691.38 424.23 692.02 422.27 C 693.16 427.57 690.97 432.81 688.05 437.13 C 678.48 450.58 663.55 459.13 647.95 463.76 C 653.84 467.80 659.70 472.62 662.45 479.42 C 664.32 483.92 663.58 489.54 660.09 493.06 C 654.40 499.18 645.88 501.52 637.93 502.95 C 637.02 501.46 635.04 502.06 634.10 503.16 C 631.02 505.01 627.07 504.10 623.63 504.52 C 623.73 505.46 623.85 506.42 623.97 507.39 C 622.17 514.44 623.42 521.75 623.53 528.91 L 623.54 529.37 C 621.25 530.90 622.01 533.74 622.70 535.92 C 622.99 537.22 622.59 538.53 622.44 539.83 C 619.26 558.26 611.33 575.89 599.30 590.24 C 587.79 603.59 573.65 615.50 556.60 620.89 C 554.61 621.44 552.62 621.98 550.64 622.54 C 548.21 628.71 543.41 634.15 536.74 635.66 C 533.01 635.33 529.25 634.93 525.52 635.48 L 525.03 636.16 C 521.47 643.05 513.14 644.78 506.06 644.96 C 498.89 644.89 491.34 643.83 485.22 639.83 C 482.39 638.02 480.94 634.88 480.08 631.76 C 481.44 631.52 482.99 631.43 483.61 629.97 L 483.70 629.85 C 484.43 631.13 485.19 632.41 485.97 633.69 C 491.12 639.58 499.62 640.53 506.98 640.44 C 512.16 640.43 518.12 638.25 520.14 633.08 C 518.11 630.10 515.26 627.82 512.79 625.24 C 509.33 620.69 503.05 623.07 498.23 622.02 C 493.75 619.55 488.07 619.45 483.99 622.80 C 483.51 624.72 483.44 626.76 482.68 628.60 C 481.46 628.42 481.98 626.00 481.43 625.23 C 481.61 627.31 481.06 629.34 480.11 631.19 C 479.90 629.19 479.70 627.20 479.52 625.21 C 457.10 632.03 434.07 637.31 410.63 638.82 C 406.38 638.04 401.31 636.92 397.57 639.74 C 396.57 639.80 395.57 639.88 394.59 639.94 C 391.11 639.09 387.49 638.59 383.93 639.26 C 383.34 638.25 382.74 637.25 382.15 636.25 C 380.33 636.16 378.51 636.07 376.69 636.07 L 377.31 634.70 C 382.05 634.66 386.78 634.21 391.52 634.05 C 395.59 634.75 400.89 636.77 404.20 633.26 C 426.98 631.27 449.82 628.03 471.71 621.24 C 475.58 620.07 479.48 619.01 483.27 617.59 C 449.28 604.36 422.99 575.76 407.86 543.07 C 397.60 520.98 394.39 495.91 397.90 471.85 C 400.66 459.26 403.90 446.60 410.06 435.18 C 413.20 429.50 416.63 423.79 421.64 419.54 C 420.06 424.25 417.02 428.26 414.98 432.76 C 401.52 459.36 398.34 490.91 406.07 519.68 C 414.94 552.75 436.17 582.28 464.66 601.26 C 478.16 609.84 493.73 616.56 510.02 615.96 C 518.58 616.18 527.56 612.93 533.01 606.12 C 535.49 603.22 536.52 599.48 537.53 595.89 C 530.02 592.50 522.86 587.87 517.75 581.31 C 524.05 585.66 530.04 591.56 538.06 592.26 C 548.80 593.37 560.05 593.24 570.13 588.89 C 581.99 584.09 593.55 575.79 598.32 563.50 C 602.11 553.60 595.37 543.99 588.99 536.98 C 585.81 540.54 582.49 544.39 577.80 545.90 C 573.30 547.48 568.48 546.75 563.89 546.13 C 557.39 542.93 551.34 538.94 545.48 534.71 C 545.89 534.74 546.71 534.79 547.12 534.81 C 551.05 536.76 554.63 539.72 559.12 540.30 C 565.91 541.20 573.63 541.81 579.42 537.41 C 584.19 534.38 586.79 528.76 586.25 523.16 C 584.15 512.90 576.45 505.05 568.21 499.18 C 563.45 503.09 557.11 503.55 551.22 503.04 L 551.44 502.47 C 556.48 501.99 562.18 502.00 565.90 497.97 C 571.89 491.26 572.99 481.04 569.19 472.96 C 565.20 465.58 558.69 459.94 552.13 454.90 C 546.39 459.67 538.72 460.24 531.58 459.72 C 535.14 458.73 538.82 458.31 542.44 457.53 C 550.01 455.59 554.91 447.60 554.71 440.04 C 554.72 436.76 552.57 434.10 550.39 431.90 C 538.06 419.07 521.16 412.21 504.71 406.36 C 496.72 403.21 488.39 401.05 480.41 397.90 C 490.93 398.32 501.34 400.16 511.47 403.00 C 511.34 396.66 511.72 390.31 511.21 383.99 M 541.29 599.54 C 541.23 600.12 541.12 601.27 541.07 601.85 C 543.08 602.36 545.60 602.47 544.82 599.64 C 543.64 599.60 542.46 599.56 541.29 599.54 M 540.85 602.91 C 536.06 613.59 525.70 621.42 514.00 622.72 C 517.04 626.16 520.72 629.16 525.10 630.70 C 531.77 633.26 540.11 631.02 544.30 625.16 C 549.05 618.32 547.13 608.16 540.85 602.91 Z" />
</g>
<g id="#fae9cfff">
<path fill="#fae9cf" opacity="1.00" d=" M 542.10 403.95 C 543.38 397.59 537.66 393.47 535.37 388.32 C 539.79 391.05 544.21 393.79 548.48 396.76 C 564.92 408.24 579.94 421.97 592.03 438.01 C 591.99 441.63 593.27 445.01 594.33 448.40 C 596.32 460.93 591.63 474.05 583.17 483.32 C 582.97 482.70 582.57 481.46 582.37 480.84 C 580.01 472.50 573.38 466.45 567.49 460.50 C 565.37 458.15 562.11 456.79 560.55 454.04 C 562.83 447.60 563.98 439.60 558.76 434.22 C 551.55 422.89 539.53 415.79 527.79 409.90 C 533.06 409.62 538.09 407.29 542.10 403.95 Z" />
</g>
<g id="#f5d758ff">
<path fill="#f5d758" opacity="1.00" d=" M 438.61 405.51 C 451.20 398.24 466.14 396.51 480.41 397.90 C 488.39 401.05 496.72 403.21 504.71 406.36 C 521.16 412.21 538.06 419.07 550.39 431.90 C 548.82 436.29 546.91 441.22 542.34 443.27 C 535.45 447.18 527.38 447.03 519.72 446.96 C 521.38 448.04 523.10 449.06 524.61 450.37 C 524.91 452.57 522.98 454.25 522.06 456.08 C 524.41 458.89 528.01 459.91 531.58 459.72 C 538.72 460.24 546.39 459.67 552.13 454.90 C 558.69 459.94 565.20 465.58 569.19 472.96 C 567.92 477.53 565.00 481.56 560.60 483.56 C 551.95 488.26 541.84 487.68 532.33 487.91 C 535.59 492.99 541.70 497.20 541.06 503.93 C 540.16 507.42 535.89 507.51 532.98 507.28 C 522.68 506.00 512.84 502.51 502.81 500.04 C 507.98 507.54 517.31 510.17 525.32 513.51 C 526.65 518.05 528.58 522.61 532.38 525.66 C 536.45 529.01 540.11 533.48 545.48 534.71 C 551.34 538.94 557.39 542.93 563.89 546.13 C 566.82 548.03 570.06 549.32 573.18 550.87 C 574.48 551.39 575.34 553.12 574.27 554.29 C 570.31 559.85 563.64 562.41 557.41 564.50 C 548.90 567.11 539.92 568.64 531.01 567.87 C 523.13 567.55 515.45 565.53 507.60 564.99 C 509.14 570.39 511.84 575.35 515.07 579.91 C 517.73 583.53 518.81 588.00 518.76 592.45 C 508.33 597.08 496.68 594.53 486.15 591.67 C 463.61 584.88 444.50 568.82 432.14 548.98 C 429.57 544.84 428.11 539.93 424.49 536.52 C 421.27 533.40 417.48 530.70 415.28 526.70 C 412.53 522.14 411.24 516.93 410.28 511.75 C 408.66 514.28 407.18 516.88 406.07 519.68 C 398.34 490.91 401.52 459.36 414.98 432.76 C 417.02 428.26 420.06 424.25 421.64 419.54 C 421.24 419.69 420.45 419.99 420.05 420.14 C 425.87 414.84 431.77 409.48 438.61 405.51 M 467.33 474.30 C 464.92 476.77 467.69 482.64 471.42 480.46 C 474.06 477.93 469.99 474.32 467.33 474.30 M 458.07 504.95 C 458.10 508.02 460.07 510.94 463.34 511.14 C 462.38 508.48 460.30 506.56 458.07 504.95 M 509.83 519.69 C 511.34 525.07 515.58 530.09 513.82 535.98 C 512.74 542.04 506.18 543.98 501.29 546.06 C 502.39 546.91 503.38 548.18 504.95 548.11 C 509.92 548.26 515.07 546.07 517.88 541.87 C 520.12 538.31 519.67 533.68 518.08 529.96 C 516.25 525.94 513.76 521.94 509.83 519.69 Z" />
</g>
<g id="#44181cff">
<path fill="#44181c" opacity="1.00" d=" M 127.21 427.05 C 129.26 419.15 127.63 410.97 128.61 402.96 C 129.24 407.50 129.29 412.10 129.18 416.68 C 129.67 416.50 130.64 416.14 131.12 415.96 C 131.26 419.77 130.89 423.57 130.44 427.35 C 129.41 427.39 128.39 427.46 127.36 427.47 C 127.32 427.36 127.25 427.15 127.21 427.05 Z" />
</g>
<g id="#fbfeffff">
<path fill="#fbfeff" opacity="1.00" d=" M 160.34 408.25 C 162.04 406.21 164.80 405.53 167.07 404.27 C 168.65 405.28 170.25 406.30 171.83 407.32 C 169.77 410.20 167.01 413.22 163.30 413.65 C 161.49 412.47 159.77 410.60 160.34 408.25 Z" />
</g>
<g id="#460e0aff">
<path fill="#460e0a" opacity="1.00" d=" M 647.59 404.20 C 654.13 402.83 661.10 403.54 667.79 403.95 L 667.60 404.53 C 676.91 405.22 686.20 410.51 690.74 418.87 C 690.00 418.62 688.53 418.12 687.79 417.87 C 687.48 418.50 686.87 419.75 686.56 420.37 C 683.02 414.69 676.64 411.64 670.47 409.69 C 661.18 406.94 651.27 407.25 641.79 408.82 C 641.95 408.27 642.25 407.18 642.40 406.63 C 644.22 406.02 645.93 405.17 647.59 404.20 Z" />
</g>
<g id="#1d0603ff">
<path fill="#1d0603" opacity="1.00" d=" M 131.12 415.96 C 131.16 412.75 130.34 409.09 132.78 406.52 C 132.47 413.99 132.30 421.49 132.90 428.94 C 132.28 428.55 131.06 427.75 130.44 427.35 C 130.89 423.57 131.26 419.77 131.12 415.96 Z" />
</g>
<g id="#ffdb95ff">
<path fill="#ffdb95" opacity="1.00" d=" M 641.79 408.82 C 651.27 407.25 661.18 406.94 670.47 409.69 C 676.64 411.64 683.02 414.69 686.56 420.37 C 686.69 420.74 686.95 421.49 687.08 421.86 C 687.19 422.53 687.40 423.88 687.50 424.56 C 685.40 421.13 683.01 417.27 678.86 416.18 C 662.49 410.82 645.12 415.48 628.40 413.04 L 627.30 412.38 C 632.08 411.00 636.90 409.73 641.79 408.82 Z" />
</g>
<g id="#f9ffffff">
<path fill="#f9ffff" opacity="1.00" d=" M 152.23 416.41 C 153.49 415.81 154.74 415.18 156.05 414.70 C 157.29 415.17 158.48 415.79 159.67 416.39 C 159.92 418.87 160.02 421.37 159.99 423.87 C 157.74 424.93 154.81 424.99 153.06 423.02 C 151.87 421.04 152.42 418.60 152.23 416.41 Z" />
<path fill="#f9ffff" opacity="1.00" d=" M 167.70 424.28 C 165.52 421.01 170.75 416.35 173.57 419.39 C 175.45 421.18 174.56 423.72 173.84 425.81 C 171.79 425.72 168.46 427.03 167.70 424.28 Z" />
</g>
<g id="#512723ff">
<path fill="#512723" opacity="1.00" d=" M 686.56 420.37 C 686.87 419.75 687.48 418.50 687.79 417.87 C 688.53 418.12 690.00 418.62 690.74 418.87 L 690.94 418.94 C 691.27 420.05 691.63 421.17 692.02 422.27 C 691.38 424.23 690.69 426.17 690.00 428.11 C 689.64 426.15 689.23 424.20 688.75 422.28 L 688.01 422.09 L 687.08 421.86 C 686.95 421.49 686.69 420.74 686.56 420.37 Z" />
</g>
<g id="#cc680eff">
<path fill="#cc680e" opacity="1.00" d=" M 687.08 421.86 L 688.01 422.09 C 687.97 425.23 688.10 428.54 686.71 431.44 C 684.74 435.33 681.57 438.42 678.51 441.46 C 673.39 446.29 667.86 450.91 661.38 453.79 C 662.67 452.20 664.38 451.06 666.14 450.04 C 670.41 447.56 673.67 443.75 676.65 439.89 C 681.54 435.88 687.18 431.45 687.50 424.56 C 687.40 423.88 687.19 422.53 687.08 421.86 Z" />
</g>
<g id="#470f0bff">
<path fill="#470f0b" opacity="1.00" d=" M 126.75 425.75 L 127.21 427.05 C 127.25 427.15 127.32 427.36 127.36 427.47 C 128.39 427.46 129.41 427.39 130.44 427.35 C 131.06 427.75 132.28 428.55 132.90 428.94 C 133.40 438.52 133.39 448.13 134.83 457.64 C 136.89 478.77 140.61 499.88 147.38 520.03 C 156.66 550.08 175.81 577.43 202.31 594.70 C 221.41 607.22 242.97 615.47 264.93 621.42 C 301.51 631.17 339.48 635.47 377.31 634.70 L 376.69 636.07 C 369.16 636.64 361.60 636.01 354.07 636.51 C 361.46 637.10 368.92 636.07 376.26 637.36 C 374.96 637.73 373.66 638.13 372.37 638.52 C 372.84 639.09 373.77 640.23 374.24 640.80 C 367.70 640.93 361.15 641.02 354.62 640.60 C 350.03 637.89 344.40 639.27 339.44 639.94 C 323.09 638.94 306.77 636.95 290.74 633.57 C 290.21 631.87 287.76 631.06 286.95 632.99 C 281.57 631.95 276.24 630.67 270.84 629.75 C 268.57 630.27 266.55 631.50 264.44 632.45 C 250.91 638.88 235.92 641.99 220.97 642.16 C 217.40 641.97 213.48 641.72 210.58 639.37 C 208.52 637.78 208.41 634.99 207.71 632.70 C 200.50 631.85 191.74 631.13 187.16 624.67 C 188.18 621.79 188.38 618.73 187.91 615.72 L 187.88 615.34 C 191.80 609.52 198.10 606.23 203.89 602.72 C 200.60 600.60 197.17 598.69 193.90 596.53 C 189.12 599.26 183.59 602.00 177.97 600.13 C 172.48 597.83 169.99 591.52 170.48 585.87 C 165.28 588.32 159.84 590.63 154.02 590.85 C 152.62 589.52 150.39 589.57 149.00 590.88 C 143.19 590.46 138.78 585.54 137.34 580.17 C 136.03 576.17 136.93 571.95 137.69 567.96 C 132.93 570.24 127.38 572.10 122.14 570.37 C 114.53 568.54 109.59 561.29 107.83 554.05 C 106.32 545.42 108.23 536.47 111.88 528.61 C 111.54 531.26 111.27 533.92 111.10 536.60 C 113.76 535.45 113.29 532.06 114.09 529.75 C 114.42 530.12 115.07 530.85 115.40 531.22 C 113.30 538.57 112.49 546.39 113.86 553.94 C 114.93 558.95 117.87 564.22 123.00 565.90 C 129.04 567.51 136.06 566.09 140.54 561.59 C 142.39 559.72 144.03 557.65 145.77 555.69 C 143.22 563.54 140.57 572.00 142.82 580.26 C 144.45 585.75 150.87 587.43 155.95 586.57 C 162.32 585.46 169.26 583.19 173.06 577.57 C 161.17 563.48 151.06 547.73 144.57 530.42 C 142.59 525.01 140.82 519.53 139.21 514.01 C 138.17 510.38 137.28 506.72 136.29 503.08 C 132.42 488.29 130.03 473.14 128.54 457.94 C 128.45 454.78 128.24 451.63 128.13 448.48 C 129.17 443.48 128.99 438.37 128.92 433.31 C 128.52 433.32 127.74 433.35 127.35 433.37 C 127.00 433.38 126.30 433.39 125.95 433.39 C 112.02 447.59 101.03 465.22 96.90 484.84 C 95.30 492.87 94.31 501.65 98.10 509.25 C 99.97 514.04 103.90 518.01 109.06 519.05 C 110.82 520.49 113.17 520.57 114.98 519.16 C 117.88 517.86 120.71 516.41 123.46 514.81 C 120.42 518.57 118.21 522.93 116.63 527.49 C 115.51 526.69 114.39 525.88 113.28 525.10 C 114.12 523.74 114.92 522.36 115.73 520.99 C 112.52 521.68 109.19 522.79 105.90 521.91 C 98.14 520.57 92.37 513.37 91.39 505.79 C 91.99 499.90 92.11 493.95 91.38 488.07 C 95.22 465.78 106.66 444.68 123.43 429.45 C 124.58 428.25 125.62 426.96 126.75 425.75 M 176.85 594.15 C 179.27 597.17 183.67 596.84 187.00 595.84 C 188.19 595.35 190.27 595.15 189.80 593.38 C 184.78 588.56 179.85 583.63 174.75 578.90 C 172.77 583.89 173.43 589.95 176.85 594.15 M 191.86 619.84 C 191.10 621.12 191.67 622.59 191.82 623.96 L 192.69 624.04 C 197.05 627.71 203.29 628.57 208.76 627.63 C 212.31 621.99 215.72 616.07 220.85 611.63 C 219.18 610.60 217.48 609.63 215.63 608.97 L 215.64 608.66 C 213.38 607.62 211.17 606.47 208.97 605.32 C 202.07 608.34 195.04 612.70 191.86 619.84 M 220.15 616.19 C 216.90 619.76 213.98 624.07 213.43 628.99 C 213.22 629.99 213.10 631.02 213.08 632.07 L 212.54 631.94 C 212.74 633.27 212.94 634.61 213.14 635.95 C 213.78 636.05 215.06 636.26 215.70 636.36 C 221.95 639.31 229.09 637.51 235.71 637.39 C 235.23 637.12 234.75 636.86 234.27 636.62 C 241.95 636.58 249.27 633.81 256.40 631.21 C 258.70 630.08 261.68 629.72 263.13 627.38 C 257.61 625.64 252.02 624.15 246.56 622.27 C 239.67 619.55 232.92 616.47 225.99 613.88 C 223.69 612.50 221.78 614.84 220.15 616.19 Z" />
</g>
<g id="#e4a72dff">
<path fill="#e4a72d" opacity="1.00" d=" M 550.39 431.90 C 552.57 434.10 554.72 436.76 554.71 440.04 C 554.91 447.60 550.01 455.59 542.44 457.53 C 538.82 458.31 535.14 458.73 531.58 459.72 C 528.01 459.91 524.41 458.89 522.06 456.08 C 522.98 454.25 524.91 452.57 524.61 450.37 C 523.10 449.06 521.38 448.04 519.72 446.96 C 527.38 447.03 535.45 447.18 542.34 443.27 C 546.91 441.22 548.82 436.29 550.39 431.90 Z" />
</g>
<g id="#f6d859ff">
<path fill="#f6d859" opacity="1.00" d=" M 96.90 484.84 C 101.03 465.22 112.02 447.59 125.95 433.39 C 126.30 433.39 127.00 433.38 127.35 433.37 C 127.43 438.41 127.76 443.45 128.13 448.48 C 128.24 451.63 128.45 454.78 128.54 457.94 C 126.18 463.56 123.36 469.04 121.90 474.99 C 119.97 482.45 119.74 490.26 117.49 497.64 C 114.65 505.44 105.86 508.98 98.10 509.25 C 94.31 501.65 95.30 492.87 96.90 484.84 Z" />
</g>
<g id="#2b0300ff">
<path fill="#2b0300" opacity="1.00" d=" M 127.35 433.37 C 127.74 433.35 128.52 433.32 128.92 433.31 C 128.99 438.37 129.17 443.48 128.13 448.48 C 127.76 443.45 127.43 438.41 127.35 433.37 Z" />
</g>
<g id="#e09479ff">
<path fill="#e09479" opacity="1.00" d=" M 558.76 434.22 C 563.98 439.60 562.83 447.60 560.55 454.04 C 562.11 456.79 565.37 458.15 567.49 460.50 C 573.38 466.45 580.01 472.50 582.37 480.84 C 583.22 487.47 580.59 494.15 576.65 499.39 C 575.09 498.18 573.50 497.00 572.09 495.62 C 574.47 490.79 577.28 485.76 576.29 480.13 C 574.45 467.91 564.44 459.13 554.65 452.68 C 556.43 449.63 558.43 446.56 559.02 443.02 C 559.39 440.09 558.94 437.14 558.76 434.22 Z" />
<path fill="#e09479" opacity="1.00" d=" M 394.95 510.02 C 394.07 497.27 394.88 484.29 397.90 471.85 C 394.39 495.91 397.60 520.98 407.86 543.07 C 422.99 575.76 449.28 604.36 483.27 617.59 C 479.48 619.01 475.58 620.07 471.71 621.24 C 461.65 618.12 453.58 610.94 445.58 604.40 C 436.19 597.57 429.53 587.90 422.42 578.90 C 409.15 557.98 397.43 535.02 394.95 510.02 Z" />
</g>
<g id="#ebb092ff">
<path fill="#ebb092" opacity="1.00" d=" M 592.03 438.01 C 603.76 452.59 611.52 470.05 615.86 488.18 C 616.91 493.45 617.72 498.77 618.32 504.12 C 619.21 513.75 619.08 523.48 618.21 533.12 C 616.06 550.45 610.06 567.50 599.42 581.48 C 587.48 597.25 571.33 610.09 552.58 616.72 C 550.61 611.08 548.57 605.45 547.05 599.67 C 561.91 599.84 576.98 595.25 588.50 585.70 C 597.42 578.83 605.02 568.68 605.07 556.99 C 604.91 547.07 597.59 539.56 591.09 532.94 C 591.59 528.07 592.20 523.02 590.72 518.26 C 588.47 510.52 583.05 504.09 576.65 499.39 C 580.59 494.15 583.22 487.47 582.37 480.84 C 582.57 481.46 582.97 482.70 583.17 483.32 C 591.63 474.05 596.32 460.93 594.33 448.40 C 593.27 445.01 591.99 441.63 592.03 438.01 Z" />
<path fill="#ebb092" opacity="1.00" d=" M 147.38 520.03 C 152.43 523.07 155.70 528.13 160.07 531.98 C 172.78 543.95 187.07 554.25 202.32 562.74 C 235.41 581.77 273.09 592.11 311.02 595.07 C 348.71 597.67 387.16 592.65 422.42 578.90 C 429.53 587.90 436.19 597.57 445.58 604.40 C 453.58 610.94 461.65 618.12 471.71 621.24 C 449.82 628.03 426.98 631.27 404.20 633.26 C 399.97 633.59 395.74 633.78 391.52 634.05 C 386.78 634.21 382.05 634.66 377.31 634.70 C 339.48 635.47 301.51 631.17 264.93 621.42 C 242.97 615.47 221.41 607.22 202.31 594.70 C 175.81 577.43 156.66 550.08 147.38 520.03 Z" />
</g>
<g id="#fcfefdff">
<path fill="#fcfefd" opacity="1.00" d=" M 208.11 452.93 C 214.41 450.45 220.79 454.80 224.58 459.59 C 230.26 459.80 236.86 459.41 241.08 463.97 C 244.27 466.18 244.33 472.44 249.34 471.57 C 250.44 469.01 251.25 466.21 253.09 464.06 C 257.22 460.69 263.00 460.94 267.96 461.77 C 273.76 462.50 277.92 466.98 282.88 469.58 C 287.91 466.88 293.95 464.60 299.63 466.53 C 304.45 468.18 307.15 472.76 310.85 475.93 C 314.46 473.59 318.91 473.76 323.04 473.80 C 330.63 474.02 338.45 478.64 340.99 486.04 C 342.04 489.09 344.35 491.40 346.04 494.08 C 346.60 497.60 346.93 501.48 345.85 504.90 C 343.27 507.70 340.99 511.39 337.04 512.30 C 334.72 512.97 332.41 514.05 329.95 513.93 C 329.37 513.85 328.20 513.70 327.61 513.62 C 328.78 518.15 329.64 523.21 327.36 527.55 C 324.03 533.86 318.81 539.08 312.76 542.80 C 300.43 549.85 284.96 549.85 271.82 545.11 C 267.39 543.67 263.65 540.81 259.53 538.74 C 262.08 543.38 266.63 547.29 266.77 552.93 C 266.75 556.14 267.48 560.33 264.48 562.51 C 260.09 565.80 254.36 566.71 249.00 566.24 C 235.30 565.47 222.71 558.38 212.99 549.01 C 206.17 542.20 200.08 534.23 197.24 524.89 C 196.23 522.00 197.50 518.28 195.04 516.01 C 194.58 517.29 194.16 518.58 193.78 519.90 C 193.38 521.19 193.00 522.49 192.62 523.80 C 190.84 523.92 189.07 524.09 187.29 524.10 C 175.08 523.56 164.13 514.25 161.76 502.26 C 161.45 497.45 164.26 493.17 164.59 488.40 C 167.46 480.82 171.92 473.06 179.43 469.30 C 182.64 467.48 186.29 466.80 189.70 465.52 C 195.33 460.63 201.70 456.69 208.11 452.93 Z" />
</g>
<g id="#e5a82aff">
<path fill="#e5a82a" opacity="1.00" d=" M 128.54 457.94 C 130.03 473.14 132.42 488.29 136.29 503.08 C 132.21 507.20 128.55 511.86 123.46 514.81 C 120.71 516.41 117.88 517.86 114.98 519.16 C 113.06 518.49 111.00 518.44 109.06 519.05 C 103.90 518.01 99.97 514.04 98.10 509.25 C 105.86 508.98 114.65 505.44 117.49 497.64 C 119.74 490.26 119.97 482.45 121.90 474.99 C 123.36 469.04 126.18 463.56 128.54 457.94 Z" />
<path fill="#e5a82a" opacity="1.00" d=" M 569.19 472.96 C 572.99 481.04 571.89 491.26 565.90 497.97 C 562.18 502.00 556.48 501.99 551.44 502.47 L 551.22 503.04 C 550.20 505.56 549.75 508.64 547.32 510.28 C 543.97 513.11 539.51 513.67 535.31 513.99 C 538.79 520.76 546.08 524.54 553.10 526.64 C 564.00 529.36 576.63 529.86 586.25 523.16 C 586.79 528.76 584.19 534.38 579.42 537.41 C 573.63 541.81 565.91 541.20 559.12 540.30 C 554.63 539.72 551.05 536.76 547.12 534.81 C 546.71 534.79 545.89 534.74 545.48 534.71 C 540.11 533.48 536.45 529.01 532.38 525.66 C 528.58 522.61 526.65 518.05 525.32 513.51 C 517.31 510.17 507.98 507.54 502.81 500.04 C 512.84 502.51 522.68 506.00 532.98 507.28 C 535.89 507.51 540.16 507.42 541.06 503.93 C 541.70 497.20 535.59 492.99 532.33 487.91 C 541.84 487.68 551.95 488.26 560.60 483.56 C 565.00 481.56 567.92 477.53 569.19 472.96 Z" />
</g>
<g id="#e9d25eff">
<path fill="#e9d25e" opacity="1.00" d=" M 637.45 464.11 C 644.31 464.83 649.74 469.43 654.26 474.27 C 650.84 473.71 647.54 472.67 644.46 471.10 C 641.91 468.98 639.67 466.55 637.45 464.11 Z" />
</g>
<g id="#f7b100ff">
<path fill="#f7b100" opacity="1.00" d=" M 635.49 472.04 C 635.87 471.14 636.25 470.25 636.65 469.37 C 637.86 469.71 639.08 470.08 640.32 470.40 C 639.64 473.02 638.67 475.61 636.73 477.56 C 635.32 477.93 633.90 478.25 632.48 478.55 C 630.09 483.63 627.53 488.72 623.41 492.64 C 622.76 492.03 622.12 491.42 621.50 490.81 C 621.43 490.55 621.27 490.03 621.19 489.78 C 620.39 487.30 619.88 484.76 619.39 482.22 C 619.61 481.62 620.06 480.44 620.28 479.84 C 620.70 481.14 621.12 482.44 621.55 483.74 C 625.66 479.24 630.45 475.44 635.49 472.04 Z" />
</g>
<g id="#ffcd34ff">
<path fill="#ffcd34" opacity="1.00" d=" M 640.32 470.40 C 641.68 470.67 643.07 470.84 644.46 471.10 C 647.54 472.67 650.84 473.71 654.26 474.27 C 656.48 476.37 658.49 478.89 659.22 481.93 C 659.94 485.73 657.96 489.53 654.93 491.75 C 651.26 491.85 647.62 492.28 643.97 492.48 C 639.71 492.66 636.01 489.72 633.64 486.44 C 631.39 483.15 634.74 479.93 636.73 477.56 C 638.67 475.61 639.64 473.02 640.32 470.40 Z" />
</g>
<g id="#eaa52dff">
<path fill="#eaa52d" opacity="1.00" d=" M 467.33 474.30 C 469.99 474.32 474.06 477.93 471.42 480.46 C 467.69 482.64 464.92 476.77 467.33 474.30 Z" />
</g>
<g id="#e5a500ff">
<path fill="#e5a500" opacity="1.00" d=" M 632.48 478.55 C 633.90 478.25 635.32 477.93 636.73 477.56 C 634.74 479.93 631.39 483.15 633.64 486.44 C 636.01 489.72 639.71 492.66 643.97 492.48 C 647.62 492.28 651.26 491.85 654.93 491.75 C 645.89 498.67 633.89 500.18 622.83 500.30 C 622.42 497.13 622.04 493.96 621.50 490.81 C 622.12 491.42 622.76 492.03 623.41 492.64 C 627.53 488.72 630.09 483.63 632.48 478.55 Z" />
</g>
<g id="#eec3adff">
<path fill="#eec3ad" opacity="1.00" d=" M 150.38 488.47 C 153.61 487.32 157.99 488.52 158.51 492.37 C 160.26 498.02 151.27 501.22 148.13 496.85 C 145.41 494.21 146.76 489.44 150.38 488.47 Z" />
</g>
<g id="#170201ff">
<path fill="#170201" opacity="1.00" d=" M 91.38 488.07 C 92.11 493.95 91.99 499.90 91.39 505.79 C 90.07 500.01 90.16 493.85 91.38 488.07 Z" />
</g>
<g id="#e9c5a3ff">
<path fill="#e9c5a3" opacity="1.00" d=" M 160.54 495.92 C 160.94 498.03 161.35 500.14 161.76 502.26 C 164.13 514.25 175.08 523.56 187.29 524.10 C 186.49 525.04 185.47 526.01 184.11 525.60 C 175.71 524.59 168.02 519.74 163.34 512.72 C 159.99 507.99 157.41 501.40 160.54 495.92 Z" />
</g>
<g id="#f5d858ff">
<path fill="#f5d858" opacity="1.00" d=" M 551.22 503.04 C 557.11 503.55 563.45 503.09 568.21 499.18 C 576.45 505.05 584.15 512.90 586.25 523.16 C 576.63 529.86 564.00 529.36 553.10 526.64 C 546.08 524.54 538.79 520.76 535.31 513.99 C 539.51 513.67 543.97 513.11 547.32 510.28 C 549.75 508.64 550.20 505.56 551.22 503.04 Z" />
</g>
<g id="#2f0000ff">
<path fill="#2f0000" opacity="1.00" d=" M 618.32 504.12 C 618.67 503.59 619.38 502.53 619.73 502.01 C 619.93 512.02 620.09 522.08 619.50 532.07 L 618.21 533.12 C 619.08 523.48 619.21 513.75 618.32 504.12 Z" />
</g>
<g id="#110300ff">
<path fill="#110300" opacity="1.00" d=" M 634.10 503.16 C 635.04 502.06 637.02 501.46 637.93 502.95 C 636.67 503.79 635.39 503.86 634.10 503.16 Z" />
</g>
<g id="#e9ae35ff">
<path fill="#e9ae35" opacity="1.00" d=" M 136.29 503.08 C 137.28 506.72 138.17 510.38 139.21 514.01 C 138.80 513.65 137.97 512.94 137.55 512.59 C 135.31 515.49 131.81 516.73 128.59 518.17 C 128.44 520.90 128.16 523.93 126.03 525.91 C 123.61 527.85 120.83 529.26 118.19 530.86 C 117.60 529.92 117.02 528.97 116.43 528.04 L 116.63 527.49 C 118.21 522.93 120.42 518.57 123.46 514.81 C 128.55 511.86 132.21 507.20 136.29 503.08 Z" />
</g>
<g id="#e1b337ff">
<path fill="#e1b337" opacity="1.00" d=" M 458.07 504.95 C 460.30 506.56 462.38 508.48 463.34 511.14 C 460.07 510.94 458.10 508.02 458.07 504.95 Z" />
</g>
<g id="#240000ff">
<path fill="#240000" opacity="1.00" d=" M 623.53 528.91 C 623.42 521.75 622.17 514.44 623.97 507.39 C 624.20 514.53 624.88 521.87 623.53 528.91 Z" />
</g>
<g id="#e4a82bff">
<path fill="#e4a82b" opacity="1.00" d=" M 128.59 518.17 C 131.81 516.73 135.31 515.49 137.55 512.59 C 137.97 512.94 138.80 513.65 139.21 514.01 C 140.82 519.53 142.59 525.01 144.57 530.42 C 151.06 547.73 161.17 563.48 173.06 577.57 C 169.26 583.19 162.32 585.46 155.95 586.57 C 150.87 587.43 144.45 585.75 142.82 580.26 C 140.57 572.00 143.22 563.54 145.77 555.69 C 144.03 557.65 142.39 559.72 140.54 561.59 C 136.06 566.09 129.04 567.51 123.00 565.90 C 117.87 564.22 114.93 558.95 113.86 553.94 C 112.49 546.39 113.30 538.57 115.40 531.22 C 115.72 530.14 116.07 529.09 116.43 528.04 C 117.02 528.97 117.60 529.92 118.19 530.86 C 120.83 529.26 123.61 527.85 126.03 525.91 C 128.16 523.93 128.44 520.90 128.59 518.17 Z" />
<path fill="#e4a82b" opacity="1.00" d=" M 406.07 519.68 C 407.18 516.88 408.66 514.28 410.28 511.75 C 411.24 516.93 412.53 522.14 415.28 526.70 C 417.48 530.70 421.27 533.40 424.49 536.52 C 428.11 539.93 429.57 544.84 432.14 548.98 C 444.50 568.82 463.61 584.88 486.15 591.67 C 496.68 594.53 508.33 597.08 518.76 592.45 C 518.81 588.00 517.73 583.53 515.07 579.91 C 511.84 575.35 509.14 570.39 507.60 564.99 C 515.45 565.53 523.13 567.55 531.01 567.87 C 539.92 568.64 548.90 567.11 557.41 564.50 C 563.64 562.41 570.31 559.85 574.27 554.29 C 575.34 553.12 574.48 551.39 573.18 550.87 C 570.06 549.32 566.82 548.03 563.89 546.13 C 568.48 546.75 573.30 547.48 577.80 545.90 C 582.49 544.39 585.81 540.54 588.99 536.98 C 595.37 543.99 602.11 553.60 598.32 563.50 C 593.55 575.79 581.99 584.09 570.13 588.89 C 560.05 593.24 548.80 593.37 538.06 592.26 C 530.04 591.56 524.05 585.66 517.75 581.31 C 522.86 587.87 530.02 592.50 537.53 595.89 C 536.52 599.48 535.49 603.22 533.01 606.12 C 527.56 612.93 518.58 616.18 510.02 615.96 C 493.73 616.56 478.16 609.84 464.66 601.26 C 436.17 582.28 414.94 552.75 406.07 519.68 Z" />
</g>
<g id="#efc5aaff">
<path fill="#efc5aa" opacity="1.00" d=" M 327.61 513.62 C 328.20 513.70 329.37 513.85 329.95 513.93 C 332.87 518.26 333.40 524.30 331.02 529.01 C 327.06 537.66 318.86 543.33 310.58 547.42 C 297.46 553.33 281.99 552.91 268.87 547.20 C 269.97 551.36 270.79 555.92 268.83 559.97 C 266.13 565.55 259.82 567.96 254.02 568.67 C 238.56 569.89 223.30 563.31 211.90 553.14 C 203.03 547.46 197.32 537.94 194.42 528.00 C 193.75 525.35 193.47 522.60 193.78 519.90 C 194.16 518.58 194.58 517.29 195.04 516.01 C 197.50 518.28 196.23 522.00 197.24 524.89 C 200.08 534.23 206.17 542.20 212.99 549.01 C 222.71 558.38 235.30 565.47 249.00 566.24 C 254.36 566.71 260.09 565.80 264.48 562.51 C 267.48 560.33 266.75 556.14 266.77 552.93 C 266.63 547.29 262.08 543.38 259.53 538.74 C 263.65 540.81 267.39 543.67 271.82 545.11 C 284.96 549.85 300.43 549.85 312.76 542.80 C 318.81 539.08 324.03 533.86 327.36 527.55 C 329.64 523.21 328.78 518.15 327.61 513.62 Z" />
</g>
<g id="#832300ff">
<path fill="#832300" opacity="1.00" d=" M 109.06 519.05 C 111.00 518.44 113.06 518.49 114.98 519.16 C 113.17 520.57 110.82 520.49 109.06 519.05 Z" />
</g>
<g id="#e4a62dff">
<path fill="#e4a62d" opacity="1.00" d=" M 509.83 519.69 C 513.76 521.94 516.25 525.94 518.08 529.96 C 519.67 533.68 520.12 538.31 517.88 541.87 C 515.07 546.07 509.92 548.26 504.95 548.11 C 503.38 548.18 502.39 546.91 501.29 546.06 C 506.18 543.98 512.74 542.04 513.82 535.98 C 515.58 530.09 511.34 525.07 509.83 519.69 Z" />
</g>
<g id="#5b2828ff">
<path fill="#5b2828" opacity="1.00" d=" M 111.88 528.61 C 112.20 527.38 112.78 526.25 113.28 525.10 C 114.39 525.88 115.51 526.69 116.63 527.49 L 116.43 528.04 C 116.07 529.09 115.72 530.14 115.40 531.22 C 115.07 530.85 114.42 530.12 114.09 529.75 C 113.29 532.06 113.76 535.45 111.10 536.60 C 111.27 533.92 111.54 531.26 111.88 528.61 Z" />
</g>
<g id="#190000ff">
<path fill="#190000" opacity="1.00" d=" M 622.70 535.92 C 622.01 533.74 621.25 530.90 623.54 529.37 C 623.79 531.48 623.61 533.95 622.70 535.92 Z" />
</g>
<g id="#fbfcfeff">
<path fill="#fbfcfe" opacity="1.00" d=" M 180.20 532.22 C 186.55 532.10 189.39 538.95 191.88 543.71 C 189.37 544.14 186.82 544.19 184.31 543.74 C 182.36 540.10 179.42 536.66 180.20 532.22 Z" />
</g>
<g id="#edc5acff">
<path fill="#edc5ac" opacity="1.00" d=" M 344.30 536.41 C 349.61 535.98 355.09 535.73 360.33 536.75 C 361.48 538.85 360.58 541.55 359.36 543.44 C 355.59 547.39 350.39 549.81 345.08 550.91 C 342.13 551.53 338.24 551.35 336.49 548.48 C 335.37 546.20 335.51 543.47 335.89 541.02 C 337.56 538.00 341.05 536.74 344.30 536.41 Z" />
</g>
<g id="#eec4abff">
<path fill="#eec4ab" opacity="1.00" d=" M 351.04 552.04 C 354.83 549.81 359.08 547.02 363.67 548.37 C 364.80 555.51 357.27 563.08 350.15 559.88 C 348.80 557.42 348.39 553.81 351.04 552.04 Z" />
</g>
<g id="#eec5adff">
<path fill="#eec5ad" opacity="1.00" d=" M 381.19 549.37 C 385.43 547.69 391.24 551.18 390.39 556.06 C 390.46 560.37 384.83 563.32 381.34 560.75 C 376.71 558.99 376.16 550.95 381.19 549.37 Z" />
</g>
<g id="#fbfefeff">
<path fill="#fbfefe" opacity="1.00" d=" M 300.25 578.28 C 304.46 578.12 308.36 580.27 312.17 581.83 C 315.06 582.53 315.32 587.89 312.25 588.35 C 309.57 588.98 306.75 588.96 304.03 588.67 C 301.84 587.83 300.08 586.16 298.35 584.64 C 295.89 582.79 298.48 579.62 300.25 578.28 Z" />
</g>
<g id="#e6a829ff">
<path fill="#e6a829" opacity="1.00" d=" M 176.85 594.15 C 173.43 589.95 172.77 583.89 174.75 578.90 C 179.85 583.63 184.78 588.56 189.80 593.38 C 190.27 595.15 188.19 595.35 187.00 595.84 C 183.67 596.84 179.27 597.17 176.85 594.15 Z" />
</g>
<g id="#150609ff">
<path fill="#150609" opacity="1.00" d=" M 149.00 590.88 C 150.39 589.57 152.62 589.52 154.02 590.85 C 152.50 591.54 150.52 591.54 149.00 590.88 Z" />
</g>
<g id="#f86534ff">
<path fill="#f86534" opacity="1.00" d=" M 541.29 599.54 C 542.46 599.56 543.64 599.60 544.82 599.64 C 545.60 602.47 543.08 602.36 541.07 601.85 C 541.12 601.27 541.23 600.12 541.29 599.54 Z" />
<path fill="#f86534" opacity="1.00" d=" M 483.99 622.80 C 488.07 619.45 493.75 619.55 498.23 622.02 C 496.67 622.11 495.14 622.26 493.61 622.46 C 491.48 622.86 489.45 623.62 487.45 624.44 C 487.24 625.41 487.04 626.39 486.85 627.38 C 486.44 629.46 486.18 631.57 485.97 633.69 C 485.19 632.41 484.43 631.13 483.70 629.85 L 483.61 629.97 C 483.79 627.57 483.88 625.19 483.99 622.80 Z" />
</g>
<g id="#ff7b27ff">
<path fill="#ff7b27" opacity="1.00" d=" M 540.85 602.91 C 547.13 608.16 549.05 618.32 544.30 625.16 C 540.11 631.02 531.77 633.26 525.10 630.70 C 520.72 629.16 517.04 626.16 514.00 622.72 C 525.70 621.42 536.06 613.59 540.85 602.91 Z" />
<path fill="#ff7b27" opacity="1.00" d=" M 220.15 616.19 C 221.78 614.84 223.69 612.50 225.99 613.88 C 232.92 616.47 239.67 619.55 246.56 622.27 C 243.96 625.09 241.71 628.53 238.08 630.12 C 233.62 632.24 228.94 634.00 224.00 634.53 C 222.62 634.56 221.36 635.17 220.11 635.67 C 218.64 635.92 217.17 636.15 215.70 636.36 C 215.06 636.26 213.78 636.05 213.14 635.95 C 212.94 634.61 212.74 633.27 212.54 631.94 L 213.08 632.07 C 214.51 632.31 216.58 633.51 217.44 631.62 C 220.11 627.25 224.98 623.24 224.12 617.63 C 219.44 620.33 217.05 625.23 213.43 628.99 C 213.98 624.07 216.90 619.76 220.15 616.19 Z" />
</g>
<g id="#ef5c25ff">
<path fill="#ef5c25" opacity="1.00" d=" M 191.86 619.84 C 195.04 612.70 202.07 608.34 208.97 605.32 C 211.17 606.47 213.38 607.62 215.64 608.66 L 215.63 608.97 C 215.61 609.37 215.58 610.18 215.57 610.58 C 216.42 611.25 217.28 611.93 218.15 612.61 C 216.57 613.19 215.01 613.83 213.50 614.56 C 213.36 615.61 213.22 616.67 213.08 617.73 C 212.35 617.19 211.63 616.65 210.91 616.12 C 207.34 619.44 203.93 623.15 199.49 625.32 C 197.90 626.08 196.36 624.62 194.84 624.27 C 194.30 624.22 193.23 624.10 192.69 624.04 L 191.82 623.96 C 191.67 622.59 191.10 621.12 191.86 619.84 M 201.78 619.60 C 204.54 619.13 206.96 615.45 204.97 613.01 C 201.82 612.78 202.54 617.58 201.78 619.60 Z" />
</g>
<g id="#f06531ff">
<path fill="#f06531" opacity="1.00" d=" M 215.63 608.97 C 217.48 609.63 219.18 610.60 220.85 611.63 C 215.72 616.07 212.31 621.99 208.76 627.63 C 203.29 628.57 197.05 627.71 192.69 624.04 C 193.23 624.10 194.30 624.22 194.84 624.27 C 196.36 624.62 197.90 626.08 199.49 625.32 C 203.93 623.15 207.34 619.44 210.91 616.12 C 211.63 616.65 212.35 617.19 213.08 617.73 C 213.22 616.67 213.36 615.61 213.50 614.56 C 215.01 613.83 216.57 613.19 218.15 612.61 C 217.28 611.93 216.42 611.25 215.57 610.58 C 215.58 610.18 215.61 609.37 215.63 608.97 Z" />
</g>
<g id="#f89348ff">
<path fill="#f89348" opacity="1.00" d=" M 201.78 619.60 C 202.54 617.58 201.82 612.78 204.97 613.01 C 206.96 615.45 204.54 619.13 201.78 619.60 Z" />
</g>
<g id="#d3d3d3ff">
<path fill="#d3d3d3" opacity="1.00" d=" M 166.03 624.21 C 172.27 620.77 179.16 618.78 185.84 616.40 C 186.13 616.59 186.70 616.96 186.99 617.14 C 186.45 619.63 186.23 622.23 187.16 624.67 C 191.74 631.13 200.50 631.85 207.71 632.70 C 208.41 634.99 208.52 637.78 210.58 639.37 C 213.48 641.72 217.40 641.97 220.97 642.16 C 235.92 641.99 250.91 638.88 264.44 632.45 C 266.55 631.50 268.57 630.27 270.84 629.75 C 276.24 630.67 281.57 631.95 286.95 632.99 C 288.19 633.33 289.45 633.52 290.74 633.57 C 306.77 636.95 323.09 638.94 339.44 639.94 C 344.49 640.35 349.55 640.49 354.62 640.60 C 361.15 641.02 367.70 640.93 374.24 640.80 C 376.90 640.75 379.57 640.65 382.23 640.41 C 386.35 640.31 390.47 640.30 394.59 639.94 C 395.57 639.88 396.57 639.80 397.57 639.74 C 401.92 639.49 406.29 639.27 410.63 638.82 C 434.07 637.31 457.10 632.03 479.52 625.21 C 479.70 627.20 479.90 629.19 480.11 631.19 C 481.06 629.34 481.61 627.31 481.43 625.23 C 481.98 626.00 481.46 628.42 482.68 628.60 C 483.44 626.76 483.51 624.72 483.99 622.80 C 483.88 625.19 483.79 627.57 483.61 629.97 C 482.99 631.43 481.44 631.52 480.08 631.76 C 480.94 634.88 482.39 638.02 485.22 639.83 C 491.34 643.83 498.89 644.89 506.06 644.96 C 513.14 644.78 521.47 643.05 525.03 636.16 C 528.92 636.44 532.92 636.78 536.74 635.66 C 543.41 634.15 548.21 628.71 550.64 622.54 C 552.62 621.98 554.61 621.44 556.60 620.89 C 556.53 621.33 556.39 622.22 556.31 622.67 C 560.43 624.18 564.08 626.82 566.91 630.17 C 569.25 633.04 568.75 637.61 566.03 640.08 C 559.19 646.62 549.84 649.34 541.08 652.27 C 515.75 659.59 489.48 662.79 463.32 665.50 C 428.98 668.76 394.49 670.09 360.00 669.82 C 321.48 669.98 282.93 668.12 244.69 663.51 C 224.20 661.20 203.82 657.66 183.93 652.19 C 176.07 649.44 167.85 646.98 161.17 641.83 C 158.35 639.65 156.19 635.94 157.42 632.32 C 158.92 628.51 162.51 626.02 166.03 624.21 Z" />
</g>
<g id="#2a1414ff">
<path fill="#2a1414" opacity="1.00" d=" M 186.99 617.14 C 187.22 616.79 187.68 616.08 187.91 615.72 C 188.38 618.73 188.18 621.79 187.16 624.67 C 186.23 622.23 186.45 619.63 186.99 617.14 Z" />
</g>
<g id="#f89c59ff">
<path fill="#f89c59" opacity="1.00" d=" M 213.43 628.99 C 217.05 625.23 219.44 620.33 224.12 617.63 C 224.98 623.24 220.11 627.25 217.44 631.62 C 216.58 633.51 214.51 632.31 213.08 632.07 C 213.10 631.02 213.22 629.99 213.43 628.99 Z" />
</g>
<g id="#ff3a46ff">
<path fill="#ff3a46" opacity="1.00" d=" M 246.56 622.27 C 252.02 624.15 257.61 625.64 263.13 627.38 C 261.68 629.72 258.70 630.08 256.40 631.21 C 249.27 633.81 241.95 636.58 234.27 636.62 C 234.75 636.86 235.23 637.12 235.71 637.39 C 229.09 637.51 221.95 639.31 215.70 636.36 C 217.17 636.15 218.64 635.92 220.11 635.67 C 221.92 636.23 223.93 636.68 225.74 635.80 C 225.30 635.48 224.43 634.84 224.00 634.53 C 228.94 634.00 233.62 632.24 238.08 630.12 C 241.71 628.53 243.96 625.09 246.56 622.27 Z" />
</g>
<g id="#ee5a21ff">
<path fill="#ee5a21" opacity="1.00" d=" M 493.61 622.46 C 495.14 622.26 496.67 622.11 498.23 622.02 C 503.05 623.07 509.33 620.69 512.79 625.24 C 515.26 627.82 518.11 630.10 520.14 633.08 C 518.12 638.25 512.16 640.43 506.98 640.44 C 499.62 640.53 491.12 639.58 485.97 633.69 C 486.18 631.57 486.44 629.46 486.85 627.38 C 490.19 629.41 492.72 633.14 496.90 633.43 C 499.04 633.73 501.26 633.95 503.39 633.44 C 506.22 632.21 507.55 629.17 509.13 626.72 C 505.75 625.43 502.51 627.71 499.14 627.73 C 496.80 626.62 495.40 624.23 493.61 622.46 Z" />
</g>
<g id="#faa058ff">
<path fill="#faa058" opacity="1.00" d=" M 487.45 624.44 C 489.45 623.62 491.48 622.86 493.61 622.46 C 495.40 624.23 496.80 626.62 499.14 627.73 C 502.51 627.71 505.75 625.43 509.13 626.72 C 507.55 629.17 506.22 632.21 503.39 633.44 C 501.26 633.95 499.04 633.73 496.90 633.43 C 492.72 633.14 490.19 629.41 486.85 627.38 C 487.04 626.39 487.24 625.41 487.45 624.44 Z" />
</g>
<g id="#1b0303ff">
<path fill="#1b0303" opacity="1.00" d=" M 286.95 632.99 C 287.76 631.06 290.21 631.87 290.74 633.57 C 289.45 633.52 288.19 633.33 286.95 632.99 Z" />
</g>
<g id="#290100ff">
<path fill="#290100" opacity="1.00" d=" M 391.52 634.05 C 395.74 633.78 399.97 633.59 404.20 633.26 C 400.89 636.77 395.59 634.75 391.52 634.05 Z" />
</g>
<g id="#ef4413ff">
<path fill="#ef4413" opacity="1.00" d=" M 220.11 635.67 C 221.36 635.17 222.62 634.56 224.00 634.53 C 224.43 634.84 225.30 635.48 225.74 635.80 C 223.93 636.68 221.92 636.23 220.11 635.67 Z" />
</g>
<g id="#2d0000ff">
<path fill="#2d0000" opacity="1.00" d=" M 525.52 635.48 C 529.25 634.93 533.01 635.33 536.74 635.66 C 532.92 636.78 528.92 636.44 525.03 636.16 L 525.52 635.48 Z" />
</g>
<g id="#5b231fff">
<path fill="#5b231f" opacity="1.00" d=" M 354.07 636.51 C 361.60 636.01 369.16 636.64 376.69 636.07 C 378.51 636.07 380.33 636.16 382.15 636.25 C 382.74 637.25 383.34 638.25 383.93 639.26 C 383.51 639.55 382.65 640.12 382.23 640.41 C 379.57 640.65 376.90 640.75 374.24 640.80 C 373.77 640.23 372.84 639.09 372.37 638.52 C 373.66 638.13 374.96 637.73 376.26 637.36 C 368.92 636.07 361.46 637.10 354.07 636.51 Z" />
</g>
<g id="#1f0602ff">
<path fill="#1f0602" opacity="1.00" d=" M 397.57 639.74 C 401.31 636.92 406.38 638.04 410.63 638.82 C 406.29 639.27 401.92 639.49 397.57 639.74 Z" />
</g>
<g id="#2e0102ff">
<path fill="#2e0102" opacity="1.00" d=" M 339.44 639.94 C 344.40 639.27 350.03 637.89 354.62 640.60 C 349.55 640.49 344.49 640.35 339.44 639.94 Z" />
</g>
<g id="#280000ff">
<path fill="#280000" opacity="1.00" d=" M 382.23 640.41 C 382.65 640.12 383.51 639.55 383.93 639.26 C 387.49 638.59 391.11 639.09 394.59 639.94 C 390.47 640.30 386.35 640.31 382.23 640.41 Z" />
</g>
</svg>
