<?xml version="1.0" encoding="UTF-8" ?>
<!DOCTYPE svg PUBLIC "-//W3C//DTD SVG 1.1//EN" "http://www.w3.org/Graphics/SVG/1.1/DTD/svg11.dtd">
<svg width="512pt" height="512pt" viewBox="0 0 512 512" version="1.1" xmlns="http://www.w3.org/2000/svg">
<g id="#000000ff">
<path fill="#000000" opacity="1.00" d=" M 248.34 0.00 L 251.56 0.00 C 265.91 0.37 278.03 9.34 291.89 11.81 C 306.43 13.49 320.31 7.68 334.53 5.83 C 344.26 4.44 354.56 4.43 363.79 8.19 C 370.78 11.29 374.05 20.19 371.16 27.19 C 364.13 46.12 357.02 65.01 349.96 83.92 C 348.80 87.19 347.04 90.40 347.17 93.97 C 347.20 105.67 347.19 117.37 347.19 129.07 C 369.09 123.91 391.48 120.21 414.04 120.28 C 419.53 120.17 425.00 120.76 430.48 120.80 C 432.58 115.04 436.73 110.05 442.16 107.16 C 450.00 102.77 460.23 103.26 467.68 108.26 C 474.00 112.33 478.28 119.40 478.87 126.91 C 479.68 135.11 476.04 143.56 469.56 148.64 C 462.52 154.35 452.29 155.70 444.02 152.00 C 437.17 149.11 432.17 142.93 429.89 135.96 C 413.55 134.62 397.08 135.42 380.88 137.85 C 402.98 145.08 424.44 156.42 439.71 174.34 C 449.82 185.49 456.56 199.19 461.33 213.36 C 467.82 213.84 474.19 216.57 478.58 221.46 C 484.43 227.70 486.63 237.03 484.22 245.24 C 482.08 252.75 476.22 259.08 468.88 261.75 C 461.43 264.56 452.64 263.49 446.12 258.91 C 439.00 254.13 434.67 245.45 435.37 236.88 C 435.73 228.95 440.33 221.75 446.73 217.25 C 440.94 198.41 429.18 181.40 413.00 170.03 C 396.19 157.79 375.99 151.21 355.70 147.54 C 384.41 186.56 410.59 227.54 432.18 270.95 C 446.50 299.59 458.88 329.29 467.65 360.12 C 473.17 377.05 474.45 395.44 470.51 412.85 C 466.32 432.24 456.14 450.16 442.18 464.18 C 427.25 479.29 408.06 489.95 387.58 495.42 C 356.92 504.84 324.88 508.71 292.97 510.84 C 288.63 511.46 285.00 507.98 284.33 503.88 C 284.61 500.21 287.02 496.49 290.95 496.14 C 303.93 494.56 317.07 494.39 329.99 492.19 C 343.78 490.59 357.37 487.69 370.88 484.54 C 379.93 481.80 389.21 479.71 397.94 475.99 C 415.01 468.85 430.42 457.33 441.20 442.20 C 452.13 427.18 458.20 408.60 457.71 390.00 C 457.62 381.15 455.74 372.42 453.12 364.01 C 442.55 326.91 426.54 291.59 408.32 257.68 C 402.64 247.68 396.88 237.73 391.18 227.75 C 374.31 200.09 356.33 173.07 336.53 147.42 C 335.78 146.18 334.45 145.70 333.06 145.88 C 276.75 145.91 220.45 145.82 164.14 145.92 C 154.48 158.42 145.33 171.31 136.28 184.25 C 134.75 186.30 133.25 188.70 130.70 189.55 C 128.53 190.40 126.22 189.65 124.13 188.93 C 120.72 186.23 119.72 181.11 122.58 177.64 C 131.55 164.98 140.26 152.12 149.91 139.96 C 150.95 138.44 152.56 137.02 152.44 135.01 C 152.54 122.03 152.39 109.05 152.50 96.07 C 152.51 93.79 152.55 91.44 151.71 89.28 C 143.98 68.74 136.22 48.20 128.55 27.64 C 125.72 20.72 128.96 11.98 135.78 8.82 C 143.74 5.42 152.61 4.83 161.16 5.46 C 176.95 6.58 192.12 13.75 208.13 11.76 C 221.91 9.14 234.02 0.26 248.34 0.00 M 230.23 20.25 C 221.83 23.64 213.13 27.14 203.92 27.14 C 191.89 27.45 180.25 23.96 168.56 21.64 C 160.00 19.92 150.94 19.38 142.53 22.14 C 149.96 42.27 157.66 62.30 165.10 82.42 C 221.51 82.54 277.93 82.43 334.34 82.47 C 341.95 62.18 349.78 41.96 356.99 21.53 C 336.76 16.14 317.26 27.49 297.06 27.16 C 284.75 27.51 273.59 21.67 262.34 17.51 C 257.48 15.51 252.17 14.70 246.94 15.17 C 241.04 15.52 235.69 18.26 230.23 20.25 M 167.47 97.50 C 167.47 108.63 167.45 119.76 167.48 130.89 C 222.37 130.84 277.25 130.93 332.14 130.83 C 332.15 119.73 332.14 108.63 332.14 97.53 C 277.25 97.46 222.36 97.51 167.47 97.50 M 451.40 119.60 C 444.58 121.11 441.80 130.46 446.52 135.54 C 451.12 141.44 461.76 139.21 463.47 131.87 C 465.98 124.83 458.46 117.25 451.40 119.60 M 456.24 229.29 C 452.79 230.80 450.41 234.36 450.32 238.12 C 450.12 243.08 454.10 247.62 459.02 248.14 C 465.21 249.14 471.14 243.08 470.00 236.90 C 469.32 230.64 461.92 226.56 456.24 229.29 Z" />
<path fill="#000000" opacity="1.00" d=" M 98.91 214.98 C 101.29 212.61 104.97 212.80 107.87 214.02 C 111.18 216.57 112.38 221.39 109.91 224.95 C 82.67 270.43 58.72 318.43 44.78 369.78 C 39.39 389.48 41.50 411.09 50.64 429.36 C 61.62 451.81 82.10 468.84 105.35 477.50 C 150.41 493.34 198.70 496.52 246.10 497.03 C 250.33 496.81 253.64 500.36 254.14 504.38 C 253.74 508.31 250.81 511.71 246.74 512.00 L 238.32 512.00 C 194.38 511.20 149.94 507.54 107.82 494.25 C 85.26 487.29 64.45 474.03 49.69 455.48 C 35.49 437.90 27.03 415.61 26.84 392.96 C 26.69 383.17 28.20 373.43 30.79 364.01 C 44.33 315.05 66.62 268.96 92.27 225.28 C 94.41 221.80 96.15 218.01 98.91 214.98 Z" />
</g>
<g id="#ac7662ff">
<path fill="#ac7662" opacity="1.00" d=" M 230.23 20.25 C 235.69 18.26 241.04 15.52 246.94 15.17 C 252.17 14.70 257.48 15.51 262.34 17.51 C 273.59 21.67 284.75 27.51 297.06 27.16 C 317.26 27.49 336.76 16.14 356.99 21.53 C 349.78 41.96 341.95 62.18 334.34 82.47 C 277.93 82.43 221.51 82.54 165.10 82.42 C 157.66 62.30 149.96 42.27 142.53 22.14 C 150.94 19.38 160.00 19.92 168.56 21.64 C 180.25 23.96 191.89 27.45 203.92 27.14 C 213.13 27.14 221.83 23.64 230.23 20.25 Z" />
<path fill="#ac7662" opacity="1.00" d=" M 164.14 145.92 C 220.45 145.82 276.75 145.91 333.06 145.88 C 334.45 145.70 335.78 146.18 336.53 147.42 C 356.33 173.07 374.31 200.09 391.18 227.75 C 396.88 237.73 402.64 247.68 408.32 257.68 C 426.54 291.59 442.55 326.91 453.12 364.01 C 455.74 372.42 457.62 381.15 457.71 390.00 C 458.20 408.60 452.13 427.18 441.20 442.20 C 430.42 457.33 415.01 468.85 397.94 475.99 C 389.21 479.71 379.93 481.80 370.88 484.54 C 357.37 487.69 343.78 490.59 329.99 492.19 C 317.07 494.39 303.93 494.56 290.95 496.14 C 287.02 496.49 284.61 500.21 284.33 503.88 C 274.27 504.18 264.20 504.85 254.14 504.38 C 253.64 500.36 250.33 496.81 246.10 497.03 C 198.70 496.52 150.41 493.34 105.35 477.50 C 82.10 468.84 61.62 451.81 50.64 429.36 C 41.50 411.09 39.39 389.48 44.78 369.78 C 58.72 318.43 82.67 270.43 109.91 224.95 C 112.38 221.39 111.18 216.57 107.87 214.02 C 113.06 205.51 118.72 197.30 124.13 188.93 C 126.22 189.65 128.53 190.40 130.70 189.55 C 133.25 188.70 134.75 186.30 136.28 184.25 C 145.33 171.31 154.48 158.42 164.14 145.92 Z" />
</g>
<g id="#ffcb43ff">
<path fill="#ffcb43" opacity="1.00" d=" M 167.47 97.50 C 222.36 97.51 277.25 97.46 332.14 97.53 C 332.14 108.63 332.15 119.73 332.14 130.83 C 277.25 130.93 222.37 130.84 167.48 130.89 C 167.45 119.76 167.47 108.63 167.47 97.50 Z" />
<path fill="#ffcb43" opacity="1.00" d=" M 451.40 119.60 C 458.46 117.25 465.98 124.83 463.47 131.87 C 461.76 139.21 451.12 141.44 446.52 135.54 C 441.80 130.46 444.58 121.11 451.40 119.60 Z" />
<path fill="#ffcb43" opacity="1.00" d=" M 456.24 229.29 C 461.92 226.56 469.32 230.64 470.00 236.90 C 471.14 243.08 465.21 249.14 459.02 248.14 C 454.10 247.62 450.12 243.08 450.32 238.12 C 450.41 234.36 452.79 230.80 456.24 229.29 Z" />
</g>
</svg>
