<?xml version="1.0" encoding="UTF-8" ?>
<!DOCTYPE svg PUBLIC "-//W3C//DTD SVG 1.1//EN" "http://www.w3.org/Graphics/SVG/1.1/DTD/svg11.dtd">
<svg width="512pt" height="512pt" viewBox="0 0 512 512" version="1.1" xmlns="http://www.w3.org/2000/svg">
<g id="#000000ff">
<path fill="#000000" opacity="1.00" d=" M 215.34 30.35 C 222.35 15.88 236.93 5.46 252.87 3.45 C 258.50 2.66 264.22 3.08 269.78 4.11 C 318.15 12.89 366.50 21.72 414.85 30.53 C 421.90 31.73 428.74 34.26 434.64 38.33 C 447.14 46.64 455.39 60.99 456.19 75.99 C 456.71 83.26 455.01 90.41 453.74 97.51 C 448.41 126.82 443.06 156.13 437.74 185.45 C 436.69 191.88 435.27 198.36 432.19 204.16 C 427.45 213.65 419.37 221.19 409.96 225.98 C 417.66 233.72 424.88 242.06 430.56 251.40 C 432.69 254.87 430.80 259.01 428.00 261.43 C 426.07 261.90 424.04 262.64 422.05 262.05 C 419.33 261.44 417.75 258.97 416.26 256.84 C 409.76 247.05 401.78 238.27 392.81 230.68 C 388.03 230.87 383.22 230.68 378.52 229.76 C 365.57 227.37 352.61 225.02 339.66 222.68 C 336.73 238.48 333.95 254.31 330.98 270.11 C 329.20 279.66 321.59 287.71 312.21 290.15 C 304.19 292.43 296.09 289.49 288.15 288.35 C 281.70 287.47 275.18 285.24 270.59 280.43 C 264.49 274.43 261.77 265.35 263.46 256.97 C 266.27 241.42 269.15 225.89 271.93 210.33 C 264.45 208.99 256.99 207.60 249.51 206.27 C 244.90 205.70 240.33 203.80 235.65 204.44 C 202.02 212.83 170.08 229.96 146.50 255.64 C 162.22 255.87 177.81 259.25 192.40 265.06 C 214.28 273.95 235.23 286.48 250.90 304.40 C 260.65 301.32 271.47 301.78 280.75 306.20 C 296.16 313.21 306.84 326.84 317.78 339.21 C 320.31 342.27 323.78 344.98 327.96 344.87 C 333.23 345.08 337.14 341.04 341.19 338.27 C 357.19 326.57 373.36 313.71 393.05 309.03 C 408.61 304.98 425.50 307.86 439.27 315.99 C 437.45 306.02 435.05 296.12 431.42 286.64 C 430.62 284.25 429.46 281.70 430.19 279.13 C 430.71 276.82 432.67 275.31 434.42 273.91 C 438.37 272.92 443.09 274.39 444.44 278.57 C 450.68 294.37 454.33 311.14 455.92 328.04 C 456.08 331.69 459.10 334.17 460.77 337.18 C 473.56 358.10 472.98 386.12 459.96 406.81 C 466.62 406.85 473.29 406.67 479.95 406.87 C 488.28 407.12 496.41 410.74 502.23 416.68 C 507.80 422.22 511.00 429.75 512.00 437.47 L 512.00 442.45 C 511.50 446.42 510.60 450.37 508.94 454.02 C 501.10 471.24 487.85 485.91 471.59 495.59 C 457.02 504.37 440.03 509.02 423.02 508.99 C 319.35 509.02 215.67 508.99 112.00 509.00 C 99.36 508.88 86.54 509.72 74.12 506.86 C 47.40 501.26 23.56 483.42 10.73 459.31 C 7.42 453.41 4.94 446.85 5.12 440.00 C 5.07 427.28 13.05 414.98 24.67 409.82 C 29.45 407.54 34.79 406.75 40.06 406.78 C 55.21 406.81 70.37 406.80 85.52 406.80 C 73.72 384.44 65.37 359.51 66.03 333.97 C 66.28 323.96 68.10 313.93 72.02 304.69 C 66.73 299.01 61.36 293.40 56.01 287.78 C 45.16 293.46 31.66 293.93 20.70 288.27 C 8.95 282.49 1.01 270.22 0.00 257.22 L 0.00 252.62 C 0.61 243.21 4.63 234.02 11.49 227.49 C 17.39 221.59 25.35 218.17 33.54 216.95 C 35.90 203.61 45.61 191.80 58.55 187.52 C 70.28 183.39 84.01 185.56 93.83 193.22 C 102.22 199.56 107.68 209.58 108.47 220.07 C 109.24 228.14 107.04 236.22 103.03 243.19 C 108.37 248.86 113.75 254.49 119.09 260.15 C 121.61 259.21 124.72 258.92 126.32 256.48 C 148.11 227.86 179.35 207.31 213.12 195.54 C 201.39 187.42 193.19 174.26 191.82 159.98 C 190.79 151.74 192.83 143.59 194.26 135.52 C 199.51 106.69 204.77 77.85 210.01 49.01 C 211.10 42.63 212.36 36.16 215.34 30.35 M 252.46 18.70 C 239.18 21.28 228.14 32.48 225.86 45.84 C 219.58 80.21 213.30 114.58 207.09 148.97 C 205.00 160.07 209.06 171.96 217.29 179.64 C 222.21 184.38 228.70 187.23 235.38 188.44 C 248.66 190.85 261.94 193.29 275.23 195.68 C 311.00 202.20 346.78 208.73 382.56 215.22 C 392.66 217.08 403.50 214.08 411.15 207.21 C 417.10 202.02 420.97 194.66 422.23 186.88 C 428.39 152.98 434.59 119.07 440.73 85.16 C 443.36 71.89 437.10 57.51 425.65 50.34 C 419.53 46.19 412.06 45.21 404.96 43.96 C 363.70 36.48 322.45 28.91 281.18 21.44 C 271.69 20.08 262.12 16.63 252.46 18.70 M 48.51 219.09 C 47.79 222.67 48.92 227.08 45.86 229.82 C 43.61 232.30 40.07 231.89 37.05 231.91 C 31.53 231.88 26.31 234.36 22.17 237.89 C 17.39 242.61 14.51 249.29 15.05 256.06 C 15.48 264.34 20.89 272.09 28.50 275.38 C 35.49 278.51 44.11 277.87 50.41 273.45 C 52.42 272.14 54.41 270.33 56.98 270.44 C 59.50 270.32 61.68 271.83 63.29 273.62 C 68.96 279.62 74.64 285.61 80.32 291.60 C 85.16 286.63 90.34 281.99 95.33 277.16 C 98.72 273.98 102.04 270.72 105.56 267.68 C 99.54 261.25 93.37 254.96 87.44 248.47 C 84.68 245.47 85.38 240.71 88.16 237.98 C 93.91 231.40 95.27 221.45 91.50 213.57 C 87.94 205.70 79.57 200.34 70.93 200.45 C 60.23 200.18 50.22 208.54 48.51 219.09 M 286.70 213.04 C 283.89 228.66 280.97 244.26 278.21 259.89 C 276.98 265.36 280.66 271.32 286.12 272.62 C 292.01 273.86 297.96 274.92 303.90 275.89 C 309.61 276.90 315.43 272.61 316.32 266.93 C 319.23 251.29 322.03 235.63 324.89 219.98 C 312.16 217.67 299.44 215.33 286.70 213.04 M 114.81 279.52 C 109.48 284.28 104.41 289.31 99.20 294.19 C 94.97 298.28 90.25 302.10 87.50 307.42 C 82.13 317.33 80.85 328.90 81.10 340.01 C 81.97 363.75 90.83 386.58 102.90 406.80 C 112.25 406.86 121.62 406.68 130.97 406.88 C 134.96 406.93 137.46 410.64 138.10 414.22 C 137.50 417.85 135.00 421.54 130.99 421.69 C 119.96 421.96 108.91 421.72 97.87 421.80 C 77.58 421.86 57.29 421.69 37.00 421.88 C 25.55 422.32 16.98 435.29 21.04 446.00 C 30.44 468.73 51.38 486.09 75.25 491.75 C 87.88 495.02 101.03 493.74 113.92 494.00 C 213.29 494.00 312.66 494.00 412.03 494.00 C 420.41 493.97 428.87 494.32 437.14 492.74 C 462.69 488.36 485.52 470.56 495.75 446.72 C 498.26 440.42 496.76 432.83 492.19 427.86 C 488.66 423.87 483.34 421.64 478.02 421.79 C 372.33 421.79 266.63 421.83 160.93 421.78 C 156.56 422.13 153.04 418.46 152.59 414.28 C 153.05 411.57 154.46 409.25 156.58 407.53 C 158.35 407.13 160.14 406.75 161.97 406.78 C 190.86 406.82 219.74 406.79 248.63 406.80 C 237.57 394.74 229.09 380.29 224.21 364.66 C 221.52 355.93 220.22 346.58 221.80 337.51 C 223.52 327.35 229.33 318.15 237.33 311.74 C 223.63 297.16 205.96 286.92 187.57 279.43 C 174.41 273.97 160.25 270.75 145.97 270.75 C 135.10 270.76 123.62 272.73 114.81 279.52 M 241.22 329.26 C 235.03 337.47 235.20 348.55 237.90 358.03 C 243.15 376.39 254.09 393.10 268.87 405.20 C 269.81 405.84 270.69 406.90 271.96 406.77 C 287.69 406.85 303.42 406.76 319.15 406.81 C 359.39 406.81 399.62 406.77 439.86 406.83 C 442.22 404.85 444.46 402.70 446.23 400.16 C 458.91 382.10 458.06 355.36 443.34 338.70 C 432.54 326.38 415.17 319.67 398.95 323.07 C 381.98 326.43 367.95 337.27 354.30 347.24 C 349.57 350.56 345.15 354.36 340.06 357.11 C 331.76 361.30 321.32 360.64 313.57 355.55 C 309.52 352.99 306.62 349.09 303.43 345.59 C 296.21 337.50 289.33 328.81 280.11 322.88 C 277.89 321.50 275.65 319.84 272.94 319.70 C 273.17 319.58 273.63 319.33 273.86 319.21 C 262.24 314.74 248.29 319.06 241.22 329.26 Z" />
<path fill="#000000" opacity="1.00" d=" M 330.06 48.07 C 333.38 45.22 339.02 46.22 341.17 50.03 C 343.33 53.57 341.48 57.76 341.01 61.52 C 347.55 64.16 354.09 67.99 357.98 74.05 C 361.12 79.68 354.66 86.85 348.72 84.33 C 344.88 82.28 342.39 78.31 338.28 76.57 C 336.30 87.19 334.41 97.83 332.45 108.45 C 339.98 112.55 347.66 117.55 351.38 125.62 C 358.30 139.29 352.73 156.68 341.03 165.86 C 335.29 170.56 328.00 173.03 320.63 173.39 C 319.54 177.61 320.09 183.18 315.99 185.90 C 312.10 188.68 306.07 186.53 304.74 181.97 C 303.84 178.41 305.30 174.81 305.77 171.29 C 297.36 169.24 289.71 164.52 283.90 158.14 C 280.33 153.90 283.50 146.70 288.96 146.26 C 293.02 145.58 295.75 149.05 298.56 151.30 C 301.40 153.80 304.90 155.32 308.45 156.52 C 310.95 142.92 313.41 129.31 315.89 115.71 C 309.14 110.78 301.62 105.52 298.80 97.26 C 294.28 83.66 301.95 67.65 314.94 61.95 C 318.44 60.27 322.32 59.74 326.15 59.35 C 327.09 55.53 326.73 50.80 330.06 48.07 M 312.62 90.96 C 313.10 94.64 316.37 96.87 318.86 99.24 C 320.38 91.06 321.92 82.88 323.31 74.68 C 316.52 76.72 311.57 83.85 312.62 90.96 M 329.62 124.13 C 327.55 135.43 325.45 146.72 323.47 158.04 C 332.79 155.90 340.35 146.75 339.23 137.00 C 338.82 131.22 334.41 126.84 329.62 124.13 Z" />
</g>
<g id="#fd5f7eff">
<path fill="#fd5f7e" opacity="1.00" d=" M 252.46 18.70 C 262.12 16.63 271.69 20.08 281.18 21.44 C 270.29 34.56 263.59 50.68 260.47 67.35 C 257.35 83.04 256.74 99.06 256.38 115.01 C 255.79 131.52 257.08 148.26 261.90 164.13 C 264.94 175.20 270.05 185.49 275.23 195.68 C 261.94 193.29 248.66 190.85 235.38 188.44 C 228.70 187.23 222.21 184.38 217.29 179.64 C 209.06 171.96 205.00 160.07 207.09 148.97 C 213.30 114.58 219.58 80.21 225.86 45.84 C 228.14 32.48 239.18 21.28 252.46 18.70 Z" />
</g>
<g id="#ff748fff">
<path fill="#ff748f" opacity="1.00" d=" M 281.18 21.44 C 322.45 28.91 363.70 36.48 404.96 43.96 C 412.06 45.21 419.53 46.19 425.65 50.34 C 437.10 57.51 443.36 71.89 440.73 85.16 C 434.59 119.07 428.39 152.98 422.23 186.88 C 420.97 194.66 417.10 202.02 411.15 207.21 C 403.50 214.08 392.66 217.08 382.56 215.22 C 346.78 208.73 311.00 202.20 275.23 195.68 C 270.05 185.49 264.94 175.20 261.90 164.13 C 257.08 148.26 255.79 131.52 256.38 115.01 C 256.74 99.06 257.35 83.04 260.47 67.35 C 263.59 50.68 270.29 34.56 281.18 21.44 M 330.06 48.07 C 326.73 50.80 327.09 55.53 326.15 59.35 C 322.32 59.74 318.44 60.27 314.94 61.95 C 301.95 67.65 294.28 83.66 298.80 97.26 C 301.62 105.52 309.14 110.78 315.89 115.71 C 313.41 129.31 310.95 142.92 308.45 156.52 C 304.90 155.32 301.40 153.80 298.56 151.30 C 295.75 149.05 293.02 145.58 288.96 146.26 C 283.50 146.70 280.33 153.90 283.90 158.14 C 289.71 164.52 297.36 169.24 305.77 171.29 C 305.30 174.81 303.84 178.41 304.74 181.97 C 306.07 186.53 312.10 188.68 315.99 185.90 C 320.09 183.18 319.54 177.61 320.63 173.39 C 328.00 173.03 335.29 170.56 341.03 165.86 C 352.73 156.68 358.30 139.29 351.38 125.62 C 347.66 117.55 339.98 112.55 332.45 108.45 C 334.41 97.83 336.30 87.19 338.28 76.57 C 342.39 78.31 344.88 82.28 348.72 84.33 C 354.66 86.85 361.12 79.68 357.98 74.05 C 354.09 67.99 347.55 64.16 341.01 61.52 C 341.48 57.76 343.33 53.57 341.17 50.03 C 339.02 46.22 333.38 45.22 330.06 48.07 Z" />
<path fill="#ff748f" opacity="1.00" d=" M 312.62 90.96 C 311.57 83.85 316.52 76.72 323.31 74.68 C 321.92 82.88 320.38 91.06 318.86 99.24 C 316.37 96.87 313.10 94.64 312.62 90.96 Z" />
<path fill="#ff748f" opacity="1.00" d=" M 329.62 124.13 C 334.41 126.84 338.82 131.22 339.23 137.00 C 340.35 146.75 332.79 155.90 323.47 158.04 C 325.45 146.72 327.55 135.43 329.62 124.13 Z" />
</g>
<g id="#ffefe0ff">
<path fill="#ffefe0" opacity="1.00" d=" M 48.51 219.09 C 50.22 208.54 60.23 200.18 70.93 200.45 C 79.57 200.34 87.94 205.70 91.50 213.57 C 95.27 221.45 93.91 231.40 88.16 237.98 C 85.38 240.71 84.68 245.47 87.44 248.47 C 93.37 254.96 99.54 261.25 105.56 267.68 C 102.04 270.72 98.72 273.98 95.33 277.16 C 88.92 275.76 82.40 274.79 76.11 272.86 C 55.32 266.64 36.23 254.44 22.17 237.89 C 26.31 234.36 31.53 231.88 37.05 231.91 C 40.07 231.89 43.61 232.30 45.86 229.82 C 48.92 227.08 47.79 222.67 48.51 219.09 Z" />
<path fill="#ffefe0" opacity="1.00" d=" M 286.70 213.04 C 299.44 215.33 312.16 217.67 324.89 219.98 C 322.03 235.63 319.23 251.29 316.32 266.93 C 315.43 272.61 309.61 276.90 303.90 275.89 C 297.96 274.92 292.01 273.86 286.12 272.62 C 280.66 271.32 276.98 265.36 278.21 259.89 C 280.97 244.26 283.89 228.66 286.70 213.04 Z" />
</g>
<g id="#de8957ff">
<path fill="#de8957" opacity="1.00" d=" M 235.65 204.44 C 240.33 203.80 244.90 205.70 249.51 206.27 C 236.84 214.34 224.65 223.32 214.37 234.34 C 205.97 243.74 198.07 253.76 192.40 265.06 C 177.81 259.25 162.22 255.87 146.50 255.64 C 170.08 229.96 202.02 212.83 235.65 204.44 Z" />
</g>
<g id="#e3986dff">
<path fill="#e3986d" opacity="1.00" d=" M 214.37 234.34 C 224.65 223.32 236.84 214.34 249.51 206.27 C 256.99 207.60 264.45 208.99 271.93 210.33 C 269.15 225.89 266.27 241.42 263.46 256.97 C 261.77 265.35 264.49 274.43 270.59 280.43 C 275.18 285.24 281.70 287.47 288.15 288.35 C 296.09 289.49 304.19 292.43 312.21 290.15 C 321.59 287.71 329.20 279.66 330.98 270.11 C 333.95 254.31 336.73 238.48 339.66 222.68 C 352.61 225.02 365.57 227.37 378.52 229.76 C 383.22 230.68 388.03 230.87 392.81 230.68 C 401.78 238.27 409.76 247.05 416.26 256.84 C 417.75 258.97 419.33 261.44 422.05 262.05 C 424.04 262.64 426.07 261.90 428.00 261.43 C 430.34 265.48 432.43 269.67 434.42 273.91 C 432.67 275.31 430.71 276.82 430.19 279.13 C 429.46 281.70 430.62 284.25 431.42 286.64 C 435.05 296.12 437.45 306.02 439.27 315.99 C 425.50 307.86 408.61 304.98 393.05 309.03 C 373.36 313.71 357.19 326.57 341.19 338.27 C 337.14 341.04 333.23 345.08 327.96 344.87 C 323.78 344.98 320.31 342.27 317.78 339.21 C 306.84 326.84 296.16 313.21 280.75 306.20 C 271.47 301.78 260.65 301.32 250.90 304.40 C 235.23 286.48 214.28 273.95 192.40 265.06 C 198.07 253.76 205.97 243.74 214.37 234.34 Z" />
</g>
<g id="#fbe5c8ff">
<path fill="#fbe5c8" opacity="1.00" d=" M 15.05 256.06 C 14.51 249.29 17.39 242.61 22.17 237.89 C 36.23 254.44 55.32 266.64 76.11 272.86 C 82.40 274.79 88.92 275.76 95.33 277.16 C 90.34 281.99 85.16 286.63 80.32 291.60 C 74.64 285.61 68.96 279.62 63.29 273.62 C 61.68 271.83 59.50 270.32 56.98 270.44 C 54.41 270.33 52.42 272.14 50.41 273.45 C 44.11 277.87 35.49 278.51 28.50 275.38 C 20.89 272.09 15.48 264.34 15.05 256.06 Z" />
</g>
<g id="#edb798ff">
<path fill="#edb798" opacity="1.00" d=" M 114.81 279.52 C 123.62 272.73 135.10 270.76 145.97 270.75 C 160.25 270.75 174.41 273.97 187.57 279.43 C 205.96 286.92 223.63 297.16 237.33 311.74 C 229.33 318.15 223.52 327.35 221.80 337.51 C 220.22 346.58 221.52 355.93 224.21 364.66 C 229.09 380.29 237.57 394.74 248.63 406.80 C 219.74 406.79 190.86 406.82 161.97 406.78 C 160.14 406.75 158.35 407.13 156.58 407.53 C 150.67 403.10 145.85 397.44 141.27 391.70 C 123.83 369.66 113.52 342.10 112.37 314.01 C 111.54 302.44 113.45 290.97 114.81 279.52 Z" />
<path fill="#edb798" opacity="1.00" d=" M 272.94 319.70 C 275.65 319.84 277.89 321.50 280.11 322.88 C 289.33 328.81 296.21 337.50 303.43 345.59 C 306.62 349.09 309.52 352.99 313.57 355.55 C 321.32 360.64 331.76 361.30 340.06 357.11 C 345.15 354.36 349.57 350.56 354.30 347.24 C 367.95 337.27 381.98 326.43 398.95 323.07 C 415.17 319.67 432.54 326.38 443.34 338.70 C 458.06 355.36 458.91 382.10 446.23 400.16 C 444.46 402.70 442.22 404.85 439.86 406.83 C 399.62 406.77 359.39 406.81 319.15 406.81 C 298.62 389.68 283.81 365.89 276.86 340.11 C 274.93 333.43 274.51 326.40 272.31 319.79 L 272.94 319.70 Z" />
</g>
<g id="#e8a882ff">
<path fill="#e8a882" opacity="1.00" d=" M 99.20 294.19 C 104.41 289.31 109.48 284.28 114.81 279.52 C 113.45 290.97 111.54 302.44 112.37 314.01 C 113.52 342.10 123.83 369.66 141.27 391.70 C 145.85 397.44 150.67 403.10 156.58 407.53 C 154.46 409.25 153.05 411.57 152.59 414.28 C 147.76 414.26 142.93 414.26 138.10 414.22 C 137.46 410.64 134.96 406.93 130.97 406.88 C 121.62 406.68 112.25 406.86 102.90 406.80 C 90.83 386.58 81.97 363.75 81.10 340.01 C 80.85 328.90 82.13 317.33 87.50 307.42 C 90.25 302.10 94.97 298.28 99.20 294.19 Z" />
<path fill="#e8a882" opacity="1.00" d=" M 241.22 329.26 C 248.29 319.06 262.24 314.74 273.86 319.21 C 273.63 319.33 273.17 319.58 272.94 319.70 L 272.31 319.79 C 274.51 326.40 274.93 333.43 276.86 340.11 C 283.81 365.89 298.62 389.68 319.15 406.81 C 303.42 406.76 287.69 406.85 271.96 406.77 C 270.69 406.90 269.81 405.84 268.87 405.20 C 254.09 393.10 243.15 376.39 237.90 358.03 C 235.20 348.55 235.03 337.47 241.22 329.26 Z" />
</g>
<g id="#fbe29fff">
<path fill="#fbe29f" opacity="1.00" d=" M 138.10 414.22 C 142.93 414.26 147.76 414.26 152.59 414.28 C 153.04 418.46 156.56 422.13 160.93 421.78 C 266.63 421.83 372.33 421.79 478.02 421.79 C 483.34 421.64 488.66 423.87 492.19 427.86 C 496.76 432.83 498.26 440.42 495.75 446.72 C 485.52 470.56 462.69 488.36 437.14 492.74 C 428.87 494.32 420.41 493.97 412.03 494.00 C 312.66 494.00 213.29 494.00 113.92 494.00 C 102.13 471.97 96.93 446.70 97.87 421.80 C 108.91 421.72 119.96 421.96 130.99 421.69 C 135.00 421.54 137.50 417.85 138.10 414.22 Z" />
</g>
<g id="#f9d888ff">
<path fill="#f9d888" opacity="1.00" d=" M 21.04 446.00 C 16.98 435.29 25.55 422.32 37.00 421.88 C 57.29 421.69 77.58 421.86 97.87 421.80 C 96.93 446.70 102.13 471.97 113.92 494.00 C 101.03 493.74 87.88 495.02 75.25 491.75 C 51.38 486.09 30.44 468.73 21.04 446.00 Z" />
</g>
</svg>
