<?xml version="1.0" encoding="UTF-8" ?>
<!DOCTYPE svg PUBLIC "-//W3C//DTD SVG 1.1//EN" "http://www.w3.org/Graphics/SVG/1.1/DTD/svg11.dtd">
<svg width="512pt" height="512pt" viewBox="0 0 512 512" version="1.1" xmlns="http://www.w3.org/2000/svg">
<g id="#211e27ff">
<path fill="#211e27" opacity="1.00" d=" M 210.98 14.89 C 232.18 10.01 254.18 8.45 275.83 10.70 C 312.94 14.29 348.88 28.79 378.20 51.80 C 406.56 73.90 428.79 103.82 441.64 137.42 C 461.60 188.80 458.68 248.49 433.67 297.63 C 417.37 330.10 392.00 357.93 361.19 377.18 C 338.44 391.51 312.72 400.99 286.17 405.16 C 286.18 411.71 286.17 418.25 286.18 424.80 C 299.45 424.82 312.72 424.77 325.99 424.82 C 329.47 424.46 332.71 427.53 332.39 431.05 C 332.47 440.01 332.39 448.96 332.41 457.92 C 342.30 457.98 352.20 457.87 362.09 457.96 C 364.51 457.75 366.53 459.29 367.82 461.21 C 375.76 471.91 383.92 482.45 391.74 493.23 C 394.70 497.20 390.74 503.08 385.97 502.32 C 299.30 502.34 212.63 502.35 125.96 502.32 C 122.40 502.73 118.89 499.63 119.27 495.99 C 119.50 493.54 121.38 491.72 122.72 489.80 C 130.07 480.09 137.32 470.32 144.67 460.61 C 145.85 458.87 147.84 457.81 149.96 457.96 C 159.84 457.87 169.71 457.98 179.59 457.92 C 179.61 448.94 179.53 439.96 179.61 430.98 C 179.33 427.52 182.49 424.49 185.93 424.82 C 199.17 424.76 212.42 424.83 225.67 424.79 C 225.66 418.23 225.68 411.66 225.66 405.09 C 195.84 400.45 167.11 388.97 142.41 371.63 C 112.70 350.93 88.78 322.00 74.16 288.87 C 59.30 255.57 54.10 218.12 58.98 182.01 C 64.37 140.92 83.24 101.80 111.83 71.83 C 138.38 43.72 173.28 23.57 210.98 14.89 M 250.19 22.16 C 242.35 24.21 236.50 31.11 234.78 38.91 C 234.10 44.00 235.56 48.98 237.25 53.73 C 242.35 67.56 248.82 80.85 255.61 93.93 C 255.83 93.88 256.26 93.78 256.47 93.74 C 262.94 81.48 268.87 68.93 273.93 56.02 C 275.90 50.53 278.02 44.82 277.21 38.88 C 275.79 33.14 272.51 27.72 267.36 24.61 C 262.35 21.27 255.93 21.03 250.19 22.16 M 152.60 52.60 C 135.62 64.01 120.12 77.96 107.97 94.46 C 105.76 96.78 103.97 99.45 102.14 102.07 C 85.24 126.37 74.22 154.74 70.43 184.10 C 65.93 218.20 70.98 253.53 85.15 284.89 C 99.62 317.27 123.52 345.34 153.14 364.84 C 178.10 381.31 207.07 391.92 236.90 394.63 C 267.31 397.56 298.54 393.65 326.82 381.86 C 342.39 375.30 357.45 367.08 370.49 356.28 C 370.91 356.01 371.73 355.47 372.15 355.20 C 407.27 327.59 431.90 286.96 439.97 243.01 C 445.84 211.67 443.57 178.83 433.30 148.64 C 422.66 117.08 403.31 88.54 378.08 66.80 C 351.27 43.50 317.67 28.26 282.53 23.15 C 285.82 27.78 288.09 33.18 288.71 38.85 C 289.73 46.80 286.67 54.46 284.05 61.81 C 303.52 65.63 322.16 73.34 338.70 84.28 C 360.88 98.88 378.93 119.63 390.38 143.58 C 401.79 166.46 406.68 192.49 405.04 217.97 C 403.25 246.18 393.09 273.68 376.56 296.56 C 360.02 319.46 336.71 337.42 310.35 347.57 C 291.82 354.80 271.88 358.45 251.99 357.84 C 218.37 356.95 185.27 344.21 159.57 322.55 C 137.70 304.19 121.36 279.35 113.14 252.01 C 105.70 227.82 104.59 201.71 110.04 176.99 C 116.95 145.11 134.53 115.60 159.50 94.57 C 178.96 78.09 202.74 66.89 227.76 62.05 C 225.97 56.46 223.74 50.94 223.06 45.07 C 222.26 37.31 224.81 29.50 229.25 23.17 C 201.97 27.32 175.55 37.23 152.60 52.60 M 208.88 79.29 C 220.37 106.97 231.82 134.67 243.29 162.35 C 251.58 160.14 260.36 160.24 268.68 162.29 C 280.04 134.54 291.58 106.86 303.08 79.15 C 295.37 76.42 287.46 74.21 279.38 72.91 C 273.86 85.56 267.55 97.86 260.87 109.93 C 259.06 113.79 253.05 113.70 251.07 110.05 C 244.34 98.00 238.08 85.66 232.52 73.02 C 224.46 74.34 216.59 76.64 208.88 79.29 M 131.29 150.37 C 159.04 161.82 186.72 173.42 214.48 184.85 C 218.65 177.44 224.90 171.31 232.21 167.00 C 220.74 139.27 209.28 111.53 197.76 83.83 C 168.68 97.29 144.65 121.24 131.29 150.37 M 314.17 83.76 C 302.63 111.40 291.15 139.08 279.74 166.77 C 287.12 171.11 293.39 177.27 297.68 184.70 C 325.41 173.31 353.11 161.81 380.78 150.27 C 367.36 121.14 343.32 97.14 314.17 83.76 M 126.60 161.46 C 115.51 191.58 115.45 225.54 126.52 255.68 C 154.31 244.23 182.09 232.75 209.83 221.17 C 207.65 212.95 207.61 204.18 209.82 195.96 C 182.13 184.36 154.37 172.89 126.60 161.46 M 302.17 195.94 C 304.37 204.16 304.35 212.91 302.17 221.12 C 329.88 232.62 357.59 244.13 385.34 255.52 C 396.36 225.43 396.47 191.54 385.42 161.44 C 357.65 172.89 329.88 184.35 302.17 195.94 M 245.96 173.85 C 240.08 175.86 234.04 178.66 230.11 183.61 C 219.15 194.05 216.76 211.93 223.85 225.19 C 229.88 237.39 243.44 245.20 256.97 244.78 C 266.03 244.70 274.60 240.36 281.19 234.36 C 287.94 227.36 292.55 217.83 292.19 207.97 C 292.21 199.95 288.91 192.24 284.04 185.98 C 275.20 174.96 259.60 169.53 245.96 173.85 M 131.19 266.79 C 144.58 295.96 168.69 319.88 197.81 333.33 C 209.36 305.58 220.88 277.82 232.26 250.01 C 224.88 245.80 218.77 239.57 214.44 232.28 C 186.71 243.83 158.92 255.26 131.19 266.79 M 279.82 250.30 C 291.32 277.96 302.70 305.66 314.23 333.30 C 343.32 319.84 367.28 295.83 380.66 266.70 C 353.01 255.21 325.36 243.73 297.66 232.36 C 293.40 239.78 287.18 245.95 279.82 250.30 M 243.33 254.72 C 231.92 282.45 220.44 310.15 208.95 337.85 C 239.08 348.85 272.99 348.96 303.10 337.86 C 291.58 310.16 280.13 282.43 268.67 254.70 C 260.39 256.88 251.61 256.85 243.33 254.72 M 237.32 406.92 C 237.45 412.82 237.35 418.73 237.39 424.64 C 249.82 424.64 262.25 424.64 274.69 424.64 C 274.56 418.66 275.04 412.68 274.56 406.71 C 265.33 407.32 256.08 408.02 246.84 407.34 C 243.68 406.99 240.49 406.86 237.32 406.92 M 277.02 436.72 C 251.87 436.90 226.73 436.41 201.59 436.48 C 198.14 436.46 194.69 436.47 191.25 436.45 C 191.16 443.42 191.31 450.38 191.16 457.35 C 234.18 457.55 277.21 457.38 320.24 457.44 L 320.78 457.40 C 320.72 450.42 320.92 443.44 320.84 436.46 C 306.23 436.57 291.62 436.22 277.02 436.72 M 150.78 471.82 C 146.13 478.13 141.38 484.36 136.71 490.66 C 216.21 490.67 295.71 490.67 375.21 490.66 C 370.09 483.66 364.72 476.84 359.69 469.77 C 291.12 469.60 222.54 469.80 153.96 469.67 C 152.36 469.25 151.62 470.84 150.78 471.82 Z" />
<path fill="#211e27" opacity="1.00" d=" M 134.27 82.35 C 139.55 80.08 145.83 85.26 144.63 90.87 C 143.95 96.70 135.96 99.51 131.81 95.33 C 127.50 91.78 128.97 84.07 134.27 82.35 Z" />
<path fill="#211e27" opacity="1.00" d=" M 372.28 82.35 C 376.56 80.58 381.86 83.57 382.60 88.12 C 383.54 92.35 380.27 96.85 375.97 97.28 C 371.99 97.89 367.96 94.86 367.37 90.90 C 366.68 87.35 368.88 83.56 372.28 82.35 Z" />
<path fill="#211e27" opacity="1.00" d=" M 242.28 192.20 C 248.18 187.11 256.98 185.78 264.14 188.82 C 271.18 191.64 276.39 198.50 277.17 206.05 C 278.19 214.00 274.24 222.30 267.43 226.52 C 262.83 229.61 257.14 230.16 251.75 229.70 C 247.30 228.10 242.74 226.13 239.73 222.30 C 235.47 217.57 234.28 210.94 234.92 204.77 C 235.96 199.94 238.43 195.36 242.28 192.20 M 253.25 199.24 C 246.57 200.92 244.00 210.22 248.89 215.08 C 253.54 220.62 263.59 218.25 265.28 211.22 C 267.67 204.26 260.21 196.82 253.25 199.24 Z" />
<path fill="#211e27" opacity="1.00" d=" M 80.02 207.97 C 80.17 203.31 84.80 200.33 89.17 200.68 C 92.70 201.85 95.87 204.99 95.46 208.98 C 95.39 212.76 92.19 215.42 88.81 216.43 C 84.15 216.64 79.49 212.88 80.02 207.97 Z" />
<path fill="#211e27" opacity="1.00" d=" M 421.30 201.36 C 426.70 198.82 433.32 204.27 431.84 210.06 C 430.98 215.54 423.63 218.24 419.44 214.58 C 414.84 211.25 415.97 203.30 421.30 201.36 Z" />
<path fill="#211e27" opacity="1.00" d=" M 132.35 321.32 C 134.80 319.30 138.15 319.70 140.98 320.56 C 141.84 321.39 142.72 322.22 143.60 323.03 C 144.75 325.73 145.34 329.02 143.57 331.60 C 141.25 335.63 135.13 336.50 131.80 333.24 C 128.21 330.21 128.52 324.01 132.35 321.32 Z" />
<path fill="#211e27" opacity="1.00" d=" M 372.23 320.29 C 377.56 317.95 383.91 323.25 382.61 328.91 C 381.84 334.70 373.88 337.40 369.77 333.22 C 365.53 329.67 366.98 322.03 372.23 320.29 Z" />
<path fill="#211e27" opacity="1.00" d=" M 248.07 375.95 C 249.02 371.94 252.68 368.44 257.02 369.19 C 261.31 369.60 263.98 373.84 263.90 377.91 C 262.88 381.83 259.29 385.26 254.99 384.54 C 250.71 384.13 248.10 379.97 248.07 375.95 Z" />
</g>
<g id="#009affff">
<path fill="#009aff" opacity="1.00" d=" M 250.19 22.16 C 255.93 21.03 262.35 21.27 267.36 24.61 C 272.51 27.72 275.79 33.14 277.21 38.88 C 272.05 45.16 264.24 49.30 256.01 49.11 C 247.78 49.29 239.99 45.16 234.78 38.91 C 236.50 31.11 242.35 24.21 250.19 22.16 Z" />
</g>
<g id="#fec200ff">
<path fill="#fec200" opacity="1.00" d=" M 152.60 52.60 C 175.55 37.23 201.97 27.32 229.25 23.17 C 224.81 29.50 222.26 37.31 223.06 45.07 C 223.74 50.94 225.97 56.46 227.76 62.05 C 202.74 66.89 178.96 78.09 159.50 94.57 C 134.53 115.60 116.95 145.11 110.04 176.99 C 104.59 201.71 105.70 227.82 113.14 252.01 C 121.36 279.35 137.70 304.19 159.57 322.55 C 185.27 344.21 218.37 356.95 251.99 357.84 C 271.88 358.45 291.82 354.80 310.35 347.57 C 336.71 337.42 360.02 319.46 376.56 296.56 C 393.09 273.68 403.25 246.18 405.04 217.97 C 406.68 192.49 401.79 166.46 390.38 143.58 C 378.93 119.63 360.88 98.88 338.70 84.28 C 322.16 73.34 303.52 65.63 284.05 61.81 C 286.67 54.46 289.73 46.80 288.71 38.85 C 288.09 33.18 285.82 27.78 282.53 23.15 C 317.67 28.26 351.27 43.50 378.08 66.80 C 403.31 88.54 422.66 117.08 433.30 148.64 C 443.57 178.83 445.84 211.67 439.97 243.01 C 431.90 286.96 407.27 327.59 372.15 355.20 C 371.73 355.47 370.91 356.01 370.49 356.28 C 366.20 357.34 362.26 359.35 358.34 361.33 C 332.30 373.08 303.58 378.95 275.01 378.19 C 271.30 378.12 267.60 377.99 263.90 377.91 C 263.98 373.84 261.31 369.60 257.02 369.19 C 252.68 368.44 249.02 371.94 248.07 375.95 C 217.05 370.61 187.16 358.09 162.26 338.74 C 155.59 334.04 149.93 328.15 143.60 323.03 C 142.72 322.22 141.84 321.39 140.98 320.56 C 136.80 314.90 131.53 310.19 127.39 304.50 C 107.40 279.03 93.74 248.48 88.81 216.43 C 92.19 215.42 95.39 212.76 95.46 208.98 C 95.87 204.99 92.70 201.85 89.17 200.68 C 88.63 200.44 87.55 199.96 87.01 199.72 C 86.09 194.53 86.12 189.26 86.17 184.01 C 86.51 156.02 92.58 127.99 104.78 102.74 C 106.08 100.07 107.00 97.25 107.97 94.46 C 120.12 77.96 135.62 64.01 152.60 52.60 M 134.27 82.35 C 128.97 84.07 127.50 91.78 131.81 95.33 C 135.96 99.51 143.95 96.70 144.63 90.87 C 145.83 85.26 139.55 80.08 134.27 82.35 M 372.28 82.35 C 368.88 83.56 366.68 87.35 367.37 90.90 C 367.96 94.86 371.99 97.89 375.97 97.28 C 380.27 96.85 383.54 92.35 382.60 88.12 C 381.86 83.57 376.56 80.58 372.28 82.35 M 421.30 201.36 C 415.97 203.30 414.84 211.25 419.44 214.58 C 423.63 218.24 430.98 215.54 431.84 210.06 C 433.32 204.27 426.70 198.82 421.30 201.36 M 372.23 320.29 C 366.98 322.03 365.53 329.67 369.77 333.22 C 373.88 337.40 381.84 334.70 382.61 328.91 C 383.91 323.25 377.56 317.95 372.23 320.29 Z" />
</g>
<g id="#008be6ff">
<path fill="#008be6" opacity="1.00" d=" M 234.78 38.91 C 239.99 45.16 247.78 49.29 256.01 49.11 C 264.24 49.30 272.05 45.16 277.21 38.88 C 278.02 44.82 275.90 50.53 273.93 56.02 C 268.87 68.93 262.94 81.48 256.47 93.74 C 256.26 93.78 255.83 93.88 255.61 93.93 C 248.82 80.85 242.35 67.56 237.25 53.73 C 235.56 48.98 234.10 44.00 234.78 38.91 Z" />
</g>
<g id="#e6e9eeff">
<path fill="#e6e9ee" opacity="1.00" d=" M 208.88 79.29 C 216.59 76.64 224.46 74.34 232.52 73.02 C 238.08 85.66 244.34 98.00 251.07 110.05 C 253.05 113.70 259.06 113.79 260.87 109.93 C 267.55 97.86 273.86 85.56 279.38 72.91 C 287.46 74.21 295.37 76.42 303.08 79.15 C 291.58 106.86 280.04 134.54 268.68 162.29 C 260.36 160.24 251.58 160.14 243.29 162.35 C 231.82 134.67 220.37 106.97 208.88 79.29 Z" />
<path fill="#e6e9ee" opacity="1.00" d=" M 126.60 161.46 C 154.37 172.89 182.13 184.36 209.82 195.96 C 207.61 204.18 207.65 212.95 209.83 221.17 C 182.09 232.75 154.31 244.23 126.52 255.68 C 115.45 225.54 115.51 191.58 126.60 161.46 Z" />
<path fill="#e6e9ee" opacity="1.00" d=" M 302.17 195.94 C 329.88 184.35 357.65 172.89 385.42 161.44 C 396.47 191.54 396.36 225.43 385.34 255.52 C 357.59 244.13 329.88 232.62 302.17 221.12 C 304.35 212.91 304.37 204.16 302.17 195.94 Z" />
<path fill="#e6e9ee" opacity="1.00" d=" M 253.25 199.24 C 260.21 196.82 267.67 204.26 265.28 211.22 C 263.59 218.25 253.54 220.62 248.89 215.08 C 244.00 210.22 246.57 200.92 253.25 199.24 Z" />
<path fill="#e6e9ee" opacity="1.00" d=" M 243.33 254.72 C 251.61 256.85 260.39 256.88 268.67 254.70 C 280.13 282.43 291.58 310.16 303.10 337.86 C 272.99 348.96 239.08 348.85 208.95 337.85 C 220.44 310.15 231.92 282.45 243.33 254.72 Z" />
<path fill="#e6e9ee" opacity="1.00" d=" M 277.02 436.72 C 291.62 436.22 306.23 436.57 320.84 436.46 C 320.92 443.44 320.72 450.42 320.78 457.40 L 320.24 457.44 C 320.23 454.39 320.13 451.34 319.97 448.30 C 285.99 448.24 252.01 448.37 218.03 448.24 C 210.63 448.34 204.46 442.99 201.59 436.48 C 226.73 436.41 251.87 436.90 277.02 436.72 Z" />
</g>
<g id="#ff4823ff">
<path fill="#ff4823" opacity="1.00" d=" M 131.29 150.37 C 144.65 121.24 168.68 97.29 197.76 83.83 C 209.28 111.53 220.74 139.27 232.21 167.00 C 224.90 171.31 218.65 177.44 214.48 184.85 C 186.72 173.42 159.04 161.82 131.29 150.37 Z" />
<path fill="#ff4823" opacity="1.00" d=" M 314.17 83.76 C 343.32 97.14 367.36 121.14 380.78 150.27 C 353.11 161.81 325.41 173.31 297.68 184.70 C 293.39 177.27 287.12 171.11 279.74 166.77 C 291.15 139.08 302.63 111.40 314.17 83.76 Z" />
<path fill="#ff4823" opacity="1.00" d=" M 131.19 266.79 C 158.92 255.26 186.71 243.83 214.44 232.28 C 218.77 239.57 224.88 245.80 232.26 250.01 C 220.88 277.82 209.36 305.58 197.81 333.33 C 168.69 319.88 144.58 295.96 131.19 266.79 Z" />
<path fill="#ff4823" opacity="1.00" d=" M 279.82 250.30 C 287.18 245.95 293.40 239.78 297.66 232.36 C 325.36 243.73 353.01 255.21 380.66 266.70 C 367.28 295.83 343.32 319.84 314.23 333.30 C 302.70 305.66 291.32 277.96 279.82 250.30 Z" />
</g>
<g id="#e5af00ff">
<path fill="#e5af00" opacity="1.00" d=" M 102.14 102.07 C 103.97 99.45 105.76 96.78 107.97 94.46 C 107.00 97.25 106.08 100.07 104.78 102.74 C 92.58 127.99 86.51 156.02 86.17 184.01 C 86.12 189.26 86.09 194.53 87.01 199.72 C 87.55 199.96 88.63 200.44 89.17 200.68 C 84.80 200.33 80.17 203.31 80.02 207.97 C 79.49 212.88 84.15 216.64 88.81 216.43 C 93.74 248.48 107.40 279.03 127.39 304.50 C 131.53 310.19 136.80 314.90 140.98 320.56 C 138.15 319.70 134.80 319.30 132.35 321.32 C 128.52 324.01 128.21 330.21 131.80 333.24 C 135.13 336.50 141.25 335.63 143.57 331.60 C 145.34 329.02 144.75 325.73 143.60 323.03 C 149.93 328.15 155.59 334.04 162.26 338.74 C 187.16 358.09 217.05 370.61 248.07 375.95 C 248.10 379.97 250.71 384.13 254.99 384.54 C 259.29 385.26 262.88 381.83 263.90 377.91 C 267.60 377.99 271.30 378.12 275.01 378.19 C 303.58 378.95 332.30 373.08 358.34 361.33 C 362.26 359.35 366.20 357.34 370.49 356.28 C 357.45 367.08 342.39 375.30 326.82 381.86 C 298.54 393.65 267.31 397.56 236.90 394.63 C 207.07 391.92 178.10 381.31 153.14 364.84 C 123.52 345.34 99.62 317.27 85.15 284.89 C 70.98 253.53 65.93 218.20 70.43 184.10 C 74.22 154.74 85.24 126.37 102.14 102.07 Z" />
</g>
<g id="#5d5b68ff">
<path fill="#5d5b68" opacity="1.00" d=" M 245.96 173.85 C 259.60 169.53 275.20 174.96 284.04 185.98 C 288.91 192.24 292.21 199.95 292.19 207.97 C 292.55 217.83 287.94 227.36 281.19 234.36 C 271.26 235.67 260.31 235.65 251.75 229.70 C 257.14 230.16 262.83 229.61 267.43 226.52 C 274.24 222.30 278.19 214.00 277.17 206.05 C 276.39 198.50 271.18 191.64 264.14 188.82 C 256.98 185.78 248.18 187.11 242.28 192.20 C 238.43 195.36 235.96 199.94 234.92 204.77 C 234.42 206.85 233.93 208.94 233.43 211.02 C 229.39 202.50 228.57 192.84 230.11 183.61 C 234.04 178.66 240.08 175.86 245.96 173.85 Z" />
</g>
<g id="#54525eff">
<path fill="#54525e" opacity="1.00" d=" M 223.85 225.19 C 216.76 211.93 219.15 194.05 230.11 183.61 C 228.57 192.84 229.39 202.50 233.43 211.02 C 233.93 208.94 234.42 206.85 234.92 204.77 C 234.28 210.94 235.47 217.57 239.73 222.30 C 242.74 226.13 247.30 228.10 251.75 229.70 C 260.31 235.65 271.26 235.67 281.19 234.36 C 274.60 240.36 266.03 244.70 256.97 244.78 C 243.44 245.20 229.88 237.39 223.85 225.19 Z" />
</g>
<g id="#99a1aaff">
<path fill="#99a1aa" opacity="1.00" d=" M 237.32 406.92 C 240.49 406.86 243.68 406.99 246.84 407.34 C 246.94 409.88 247.05 412.43 247.16 414.98 C 256.06 415.23 264.97 415.18 273.87 414.94 C 274.05 412.19 274.27 409.45 274.56 406.71 C 275.04 412.68 274.56 418.66 274.69 424.64 C 262.25 424.64 249.82 424.64 237.39 424.64 C 237.35 418.73 237.45 412.82 237.32 406.92 Z" />
</g>
<g id="#aab2bdff">
<path fill="#aab2bd" opacity="1.00" d=" M 246.84 407.34 C 256.08 408.02 265.33 407.32 274.56 406.71 C 274.27 409.45 274.05 412.19 273.87 414.94 C 264.97 415.18 256.06 415.23 247.16 414.98 C 247.05 412.43 246.94 409.88 246.84 407.34 Z" />
<path fill="#aab2bd" opacity="1.00" d=" M 150.78 471.82 C 151.62 470.84 152.36 469.25 153.96 469.67 C 222.54 469.80 291.12 469.60 359.69 469.77 C 364.72 476.84 370.09 483.66 375.21 490.66 C 295.71 490.67 216.21 490.67 136.71 490.66 C 141.38 484.36 146.13 478.13 150.78 471.82 Z" />
</g>
<g id="#cfd2d7ff">
<path fill="#cfd2d7" opacity="1.00" d=" M 191.16 457.35 C 191.31 450.38 191.16 443.42 191.25 436.45 C 194.69 436.47 198.14 436.46 201.59 436.48 C 204.46 442.99 210.63 448.34 218.03 448.24 C 252.01 448.37 285.99 448.24 319.97 448.30 C 320.13 451.34 320.23 454.39 320.24 457.44 C 277.21 457.38 234.18 457.55 191.16 457.35 Z" />
</g>
</svg>
