<?xml version="1.0" encoding="UTF-8" ?>
<!DOCTYPE svg PUBLIC "-//W3C//DTD SVG 1.1//EN" "http://www.w3.org/Graphics/SVG/1.1/DTD/svg11.dtd">
<svg width="512pt" height="512pt" viewBox="0 0 512 512" version="1.1" xmlns="http://www.w3.org/2000/svg">
<g id="#2196f3ff">
<path fill="#2196f3" opacity="1.00" d=" M 253.48 0.00 L 258.47 0.00 C 298.05 0.53 337.55 10.06 372.73 28.27 C 423.87 54.45 465.71 98.35 489.27 150.76 C 503.81 182.63 511.33 217.56 512.00 252.56 L 512.00 258.55 C 511.52 301.61 500.19 344.55 478.83 381.98 C 460.12 415.11 433.89 443.95 402.72 465.74 C 360.82 495.31 309.83 511.51 258.58 512.00 L 253.46 512.00 C 206.28 511.51 159.29 497.85 119.46 472.51 C 94.38 456.69 72.07 436.48 53.90 413.05 C 19.59 369.31 0.48 314.10 0.00 258.54 L 0.00 253.43 C 0.48 197.88 19.60 142.68 53.90 98.95 C 82.09 62.58 120.28 34.04 163.19 17.41 C 191.89 6.14 222.67 0.43 253.48 0.00 M 245.70 77.75 C 240.11 79.50 235.25 83.00 231.11 87.08 C 190.62 127.61 150.13 168.13 109.65 208.68 C 99.61 218.60 93.87 232.78 94.47 246.91 C 95.00 259.72 100.53 272.36 109.78 281.26 C 119.79 290.41 133.52 295.38 147.06 294.78 C 159.90 294.16 172.49 288.69 181.56 279.57 C 187.88 273.25 194.18 266.92 200.50 260.60 C 200.51 303.39 200.48 346.18 200.51 388.97 C 199.91 412.90 216.62 435.82 239.54 442.66 C 252.74 446.79 267.48 445.82 279.96 439.83 C 294.84 432.87 306.26 418.97 310.14 403.00 C 311.95 396.15 311.86 389.02 311.82 381.99 C 311.82 341.53 311.81 301.06 311.82 260.60 C 318.09 266.87 324.35 273.15 330.61 279.43 C 340.69 289.64 355.15 295.33 369.48 294.80 C 382.22 294.23 394.86 288.99 403.89 279.91 C 413.46 269.86 418.70 255.74 417.75 241.87 C 417.05 229.37 411.42 217.25 402.47 208.51 C 363.79 169.86 325.10 131.21 286.41 92.56 C 282.19 88.40 278.18 83.88 273.04 80.82 C 264.94 75.91 254.69 74.78 245.70 77.75 Z" />
</g>
<g id="#fafafaff">
<path fill="#fafafa" opacity="1.00" d=" M 245.70 77.75 C 254.69 74.78 264.94 75.91 273.04 80.82 C 278.18 83.88 282.19 88.40 286.41 92.56 C 325.10 131.21 363.79 169.86 402.47 208.51 C 411.42 217.25 417.05 229.37 417.75 241.87 C 418.70 255.74 413.46 269.86 403.89 279.91 C 394.86 288.99 382.22 294.23 369.48 294.80 C 355.15 295.33 340.69 289.64 330.61 279.43 C 324.35 273.15 318.09 266.87 311.82 260.60 C 311.81 301.06 311.82 341.53 311.82 381.99 C 311.86 389.02 311.95 396.15 310.14 403.00 C 306.26 418.97 294.84 432.87 279.96 439.83 C 267.48 445.82 252.74 446.79 239.54 442.66 C 216.62 435.82 199.91 412.90 200.51 388.97 C 200.48 346.18 200.51 303.39 200.50 260.60 C 194.18 266.92 187.88 273.25 181.56 279.57 C 172.49 288.69 159.90 294.16 147.06 294.78 C 133.52 295.38 119.79 290.41 109.78 281.26 C 100.53 272.36 95.00 259.72 94.47 246.91 C 93.87 232.78 99.61 218.60 109.65 208.68 C 150.13 168.13 190.62 127.61 231.11 87.08 C 235.25 83.00 240.11 79.50 245.70 77.75 Z" />
</g>
</svg>
